<svg width="453" height="215" viewBox="0 0 453 215" fill="none" xmlns="http://www.w3.org/2000/svg">
<g clip-path="url(#clip0_1007_7)">
<path d="M0.700006 188.6C-0.499994 164.9 0.100006 141.2 1.40001 117.5C2.70001 92.4002 5.50001 67.4002 12.6 43.0002C16.3 30.1002 21 17.5002 30.7 7.50018C38.7 -0.799822 47 -2.19982 57.3 3.20018C70.3 10.1002 79 21.5002 87.4 33.1002C99.5 49.9002 107.6 68.8002 116 87.5002C124.3 105.9 133 124.2 146 140C154.6 150.5 157.7 150.6 167.4 141.1C182.1 126.8 194.5 110.6 206.5 94.1002C218.8 77.3002 232.5 61.8002 250.6 50.9002C257.5 46.7002 264.7 43.6002 272.5 41.5002C283.8 38.3002 293.8 40.8002 302.8 48.2002C316.7 59.7002 325.6 74.8002 333.3 90.7002C342.4 109.7 348.6 129.9 358.2 148.7C365.3 162.8 372.6 176.7 383.4 188.4C386.2 191.4 389.3 194.2 393.3 195.8C401.9 199.3 409.2 197.1 415.5 190.7C423.3 182.7 428.3 173 432.9 163.1C435 158.6 437 154 438.4 149.2C439.6 145.1 441.6 143.5 445.8 144.1C447.7 144.4 449.8 144.1 452.3 144.1C445.7 165.7 438.4 186.4 422.7 202.9C406.4 220 386 217 368.6 201.8C355.6 190.4 346.7 175.7 338.1 160.9C328.5 144.4 322 126.4 313.3 109.4C306.9 96.9002 300.5 84.3002 290.8 73.8002C284.2 66.6002 279.7 65.7002 270.9 70.2002C259.4 76.1002 250.7 85.3002 242.8 95.2002C231 110 220.9 126 208.5 140.3C197.6 152.9 186.5 165.2 172.4 174.3C158.4 183.4 148.8 182.4 136.8 170.7C121 155.3 110.7 136.1 101.2 116.5C89.2 92.0002 79.2 66.5002 65.2 42.9002C61.2 36.2002 57.2 29.5002 51.7 23.9002C46.9 18.9002 44.9 19.1002 40.9 24.6002C33.5 34.6002 29.6 46.3002 26.1 58.1002C18.2 84.5002 13.1 111.5 9.00001 138.7C6.50001 155.4 4.30001 172.2 2.00001 188.9C1.60001 188.8 1.10001 188.7 0.700006 188.6Z" fill="#FD9A0D"/>
</g>
<defs>
<clipPath id="clip0_1007_7">
<rect width="452.1" height="214.6" fill="white"/>
</clipPath>
</defs>
</svg>
