<svg width="45" height="46" viewBox="0 0 45 46" fill="none" xmlns="http://www.w3.org/2000/svg">
<path d="M41.9988 32.0068V37.7387C42.001 38.2708 41.892 38.7975 41.6788 39.285C41.4656 39.7726 41.153 40.2102 40.7609 40.57C40.3688 40.9297 39.9059 41.2036 39.4018 41.374C38.8977 41.5445 38.3636 41.6078 37.8336 41.5599C31.9543 40.9211 26.3068 38.9121 21.3449 35.6943C16.7285 32.7608 12.8146 28.8469 9.88114 24.2305C6.65214 19.2461 4.64266 13.5711 4.01551 7.66536C3.96776 7.13701 4.03055 6.6045 4.19988 6.10175C4.36922 5.59899 4.64137 5.137 4.99904 4.74519C5.3567 4.35338 5.79202 4.04034 6.27729 3.82599C6.76257 3.61164 7.28716 3.50068 7.81766 3.50019H13.5496C14.4768 3.49106 15.3757 3.81941 16.0788 4.42404C16.7818 5.02866 17.241 5.86831 17.3708 6.78647C17.6127 8.6208 18.0614 10.4219 18.7083 12.1553C18.9653 12.8392 19.0209 13.5824 18.8686 14.2969C18.7162 15.0114 18.3622 15.6673 17.8485 16.1868L15.422 18.6133C18.1419 23.3966 22.1024 27.3572 26.8857 30.077L29.3122 27.6505C29.8317 27.1368 30.4876 26.7828 31.2021 26.6304C31.9166 26.4781 32.6598 26.5337 33.3437 26.7908C35.0771 27.4376 36.8782 27.8863 38.7125 28.1282C39.6407 28.2591 40.4883 28.7266 41.0942 29.4417C41.7001 30.1569 42.0221 31.0698 41.9988 32.0068Z" fill="#183D6D"/>
</svg>
