<svg width="40" height="40" viewBox="0 0 40 40" fill="none" xmlns="http://www.w3.org/2000/svg">
<path d="M26.666 13.3333C29.3182 13.3333 31.8617 14.3868 33.7371 16.2622C35.6124 18.1375 36.666 20.6811 36.666 23.3333V34.9999H29.9993V23.3333C29.9993 22.4492 29.6482 21.6014 29.023 20.9762C28.3979 20.3511 27.5501 19.9999 26.666 19.9999C25.782 19.9999 24.9341 20.3511 24.309 20.9762C23.6839 21.6014 23.3327 22.4492 23.3327 23.3333V34.9999H16.666V23.3333C16.666 20.6811 17.7196 18.1375 19.5949 16.2622C21.4703 14.3868 24.0139 13.3333 26.666 13.3333Z" fill="#183D6D" stroke="#183D6D" stroke-width="2" stroke-linecap="round" stroke-linejoin="round"/>
<path d="M10.0007 15H3.33398V35H10.0007V15Z" fill="#183D6D" stroke="#183D6D" stroke-width="2" stroke-linecap="round" stroke-linejoin="round"/>
<path d="M6.66732 9.99992C8.50827 9.99992 10.0007 8.50753 10.0007 6.66659C10.0007 4.82564 8.50827 3.33325 6.66732 3.33325C4.82637 3.33325 3.33398 4.82564 3.33398 6.66659C3.33398 8.50753 4.82637 9.99992 6.66732 9.99992Z" fill="#183D6D" stroke="#183D6D" stroke-width="2" stroke-linecap="round" stroke-linejoin="round"/>
</svg>
