<svg width="5" height="5" viewBox="0 0 35 43" fill="none" xmlns="http://www.w3.org/2000/svg">
<path d="M33.7273 17.8636C33.7273 30.5909 17.3636 41.5 17.3636 41.5C17.3636 41.5 1 30.5909 1 17.8636C1 13.5237 2.72402 9.36158 5.7928 6.2928C8.86157 3.22402 13.0237 1.5 17.3636 1.5C21.7035 1.5 25.8657 3.22402 28.9345 6.2928C32.0032 9.36158 33.7273 13.5237 33.7273 17.8636Z" fill="#183D6D"  stroke-linecap="round" stroke-linejoin="round"/>
<path d="M17.3627 23.3183C20.3752 23.3183 22.8173 20.8762 22.8173 17.8637C22.8173 14.8513 20.3752 12.4092 17.3627 12.4092C14.3503 12.4092 11.9082 14.8513 11.9082 17.8637C11.9082 20.8762 14.3503 23.3183 17.3627 23.3183Z" fill="white"/>
</svg>
