<svg width="40" height="40" viewBox="0 0 40 40" fill="none" xmlns="http://www.w3.org/2000/svg">
<path d="M38.3327 4.99991C36.7367 6.12571 34.9695 6.98676 33.0994 7.54991C32.0956 6.39577 30.7616 5.57773 29.2777 5.20646C27.7939 4.83518 26.2318 4.92857 24.8028 5.474C23.3738 6.01943 22.1468 6.99058 21.2877 8.25611C20.4286 9.52163 19.9788 11.0205 19.9993 12.5499V14.2166C17.0704 14.2925 14.1681 13.6429 11.551 12.3257C8.93392 11.0084 6.68321 9.06431 4.99935 6.66658C4.99935 6.66658 -1.66732 21.6666 13.3327 28.3332C9.90023 30.6632 5.81128 31.8315 1.66602 31.6666C16.666 39.9999 34.9994 31.6666 34.9994 12.4999C34.9978 12.0357 34.9532 11.5726 34.866 11.1166C36.567 9.43907 37.7674 7.3211 38.3327 4.99991Z" fill="#183D6D" stroke="#183D6D" stroke-width="2" stroke-linecap="round" stroke-linejoin="round"/>
</svg>
