<svg width="55" height="56" viewBox="0 0 55 56" fill="none" xmlns="http://www.w3.org/2000/svg">
<g clip-path="url(#clip0_1727_7275)">
<path d="M28.8983 55.008C27.6554 55.008 26.4124 55.008 25.1695 55.008C24.1337 55.008 23.5122 54.4177 23.5122 53.4338C23.5122 52.1547 23.5122 50.8757 23.5122 49.4982C23.5122 48.9079 23.5122 48.9079 22.8908 48.7111C21.0264 48.2191 19.2655 47.5304 17.5047 46.6449C17.194 46.4481 16.9868 46.5465 16.7797 46.7433C15.8475 47.6288 14.9153 48.5143 13.8795 49.4982C13.0509 50.2853 12.3258 50.2853 11.4972 49.7934C11.29 49.695 11.1864 49.3998 10.9793 49.203C10.1507 48.3175 9.32204 47.5304 8.49342 46.7433C7.76837 46.0546 7.04332 45.3658 6.31827 44.6771C5.48965 43.89 5.48965 43.1029 6.31827 42.3157C7.25048 41.4302 8.18268 40.4463 9.21846 39.5608C9.5292 39.2656 9.5292 39.0689 9.32204 38.6753C8.38984 37.1011 7.66479 35.5268 7.1469 33.7558C6.93974 33.1655 6.93974 33.1655 6.31827 33.1655C4.97176 33.1655 3.72882 33.1655 2.3823 33.1655C1.24294 33.1655 0.621475 32.5751 0.621475 31.4928C0.621475 29.2299 0.621475 26.8685 0.621475 24.6055C0.621475 23.5232 1.24294 22.9329 2.3823 22.9329C3.72882 22.9329 5.07534 22.9329 6.42185 22.9329C6.83616 22.9329 7.04332 22.8345 7.1469 22.3426C7.56121 20.4732 8.38984 18.8005 9.32204 17.2263C9.5292 16.9311 9.42562 16.7343 9.21846 16.4392C8.18268 15.5537 7.25048 14.5698 6.31827 13.6843C5.48965 12.8971 5.48965 12.11 6.31827 11.3229C8.0791 9.65026 9.83993 7.97763 11.4972 6.40339C12.3258 5.61627 13.1544 5.61627 13.9831 6.40339C14.9153 7.2889 15.8475 8.17441 16.7797 9.15831C17.0904 9.45348 17.2976 9.45348 17.7119 9.2567C19.3691 8.37119 21.13 7.68246 22.9944 7.19051C23.4087 7.09212 23.6158 6.89534 23.6158 6.50178C23.6158 5.22271 23.6158 4.04203 23.6158 2.76296C23.6158 1.58228 24.2373 0.991943 25.4802 0.991943C27.8625 0.991943 30.2448 0.991943 32.6271 0.991943C33.7665 0.991943 34.388 1.58228 34.388 2.76296C34.388 4.04203 34.388 5.3211 34.388 6.60017C34.388 6.99373 34.5951 7.19051 35.0094 7.2889C35.5273 7.38729 36.0452 7.58407 36.4595 7.78085C36.7703 7.87924 36.9774 7.87924 37.1846 7.68246C37.9096 6.69856 38.9454 6.50178 40.0848 6.60017C41.1205 6.69856 42.1563 6.60017 43.1921 6.60017C43.5028 6.60017 43.71 6.50178 43.8136 6.10822C44.3315 4.43559 45.4708 3.3533 47.3352 2.95974C49.1996 2.56618 50.7533 3.15652 51.7891 4.63237C53.1356 6.40339 52.7213 9.05992 50.8569 10.4374C48.9925 11.8148 46.2994 11.5197 44.8493 9.84704C44.3315 9.35509 44.0207 8.76475 43.9171 8.07602C43.8136 7.78085 43.71 7.68246 43.3993 7.68246C42.0527 7.68246 40.6026 7.68246 39.2561 7.68246C39.049 7.68246 38.8418 7.78085 38.7382 7.87924C37.806 8.76475 36.7703 9.74865 35.8381 10.6342C35.6309 10.8309 35.5273 11.0277 35.5273 11.2245C35.5273 13.0939 35.5273 14.8649 35.5273 16.7343C35.5273 17.2263 35.6309 17.3247 36.1488 17.3247C36.9774 17.3247 37.7025 17.3247 38.5311 17.3247C38.9454 17.3247 39.1526 17.2263 39.2561 16.7343C40.0848 14.0778 43.1921 12.7987 45.7816 14.1762C47.3352 14.9633 48.1639 16.7343 47.9567 18.3086C47.7495 20.0796 46.403 21.4571 44.7458 21.8506C42.9849 22.3426 41.1205 21.6538 39.9812 20.3748C39.5669 19.8828 39.3597 19.3909 39.1526 18.8005C39.049 18.5054 38.9454 18.407 38.6347 18.407C37.5989 18.407 36.5631 18.407 35.5273 18.407C35.2166 18.407 35.113 18.6038 34.9058 18.8989C34.1808 20.2764 33.3522 21.5554 32.6271 22.9329C32.42 23.3265 32.2128 23.72 31.9021 24.1136C31.7985 24.4088 31.7985 24.6055 32.0057 24.8023C32.6271 25.3927 33.145 25.983 33.3522 26.8685C33.4558 27.1637 33.6629 27.3605 33.9736 27.3605C37.7025 27.3605 41.4313 27.3605 45.2637 27.3605C45.5744 27.3605 45.7816 27.2621 45.8851 26.9669C46.8173 23.8184 50.8569 22.7361 53.3428 24.9991C54.5857 26.0814 55 27.9508 54.3785 29.525C53.7571 31.1977 52.0998 32.28 50.339 32.28C48.1639 32.28 46.403 31.0993 45.8851 29.1315C45.7816 28.7379 45.5744 28.6395 45.2637 28.6395C43.1921 28.6395 41.017 28.6395 38.9454 28.6395C37.3917 28.6395 35.7345 28.6395 34.1808 28.6395C33.7665 28.6395 33.5593 28.7379 33.4558 29.2299C33.2486 30.017 32.8343 30.6073 32.2128 31.1977C31.9021 31.3944 31.9021 31.6896 32.1092 31.8864C32.8343 33.2639 33.6629 34.5429 34.388 35.9204C34.5951 36.3139 34.8023 36.8059 35.113 37.1995C35.3202 37.4946 35.4237 37.593 35.8381 37.593C36.7703 37.593 37.5989 37.593 38.5311 37.593C39.1526 37.593 39.1526 37.593 39.3597 37.0027C40.0848 34.7397 42.5706 33.4606 44.9529 34.1494C47.1281 34.7397 48.4746 37.0027 48.0603 39.1673C47.5424 41.3318 45.3672 42.7093 43.0885 42.4141C41.2241 42.119 39.9812 41.1351 39.3597 39.364C39.1526 38.7737 39.1526 38.7737 38.5311 38.7737C37.806 38.7737 37.081 38.7737 36.3559 38.7737H36.2524C35.7345 38.7737 35.7345 38.8721 35.7345 39.2656C35.7345 41.0367 35.7345 42.9061 35.7345 44.6771C35.7345 44.9723 35.8381 45.2674 36.0452 45.4642C36.9774 46.3497 37.9096 47.2352 38.8418 48.1207C39.049 48.3175 39.2561 48.4159 39.4633 48.4159C40.8098 48.4159 42.1563 48.4159 43.5028 48.4159C43.9171 48.4159 44.0207 48.3175 44.1243 47.924C44.6422 45.8578 46.7138 44.4803 49.0961 44.8739C51.3748 45.169 53.032 47.0385 52.9284 49.203C52.8249 51.2692 51.1676 53.0402 48.9925 53.237C46.8173 53.4338 44.7458 52.1547 44.1243 50.0885C44.0207 49.695 43.8136 49.5966 43.3993 49.5966C42.0527 49.5966 40.8098 49.5966 39.4633 49.5966C38.7382 49.5966 38.3239 49.3998 37.806 48.9079C36.9774 48.1207 37.2881 48.2191 36.1488 48.5143C35.8381 48.6127 35.4237 48.7111 35.113 48.8095C34.8023 48.9079 34.5951 49.1046 34.5951 49.3998C34.5951 50.6789 34.5951 51.958 34.5951 53.237C34.5951 54.4177 33.9736 55.008 32.8343 55.008C31.3842 55.008 30.1413 55.008 28.8983 55.008ZM1.76084 27.9508C1.76084 29.0331 1.76084 30.2138 1.76084 31.2961C1.76084 31.788 1.86441 31.8864 2.3823 31.8864C3.93598 31.8864 5.48965 31.8864 6.93974 31.8864C7.76837 31.8864 7.87195 31.9848 8.0791 32.7719C8.59699 34.9365 9.5292 36.9043 10.6686 38.6753C10.9793 39.1673 10.9793 39.2656 10.565 39.6592C9.5292 40.8399 8.38984 41.9222 7.25048 43.0045C6.93974 43.2996 6.83616 43.4964 7.25048 43.7916C8.90773 45.3658 10.6686 47.0385 12.3258 48.6127C12.6365 48.9079 12.7401 48.9079 13.1544 48.6127C14.2938 47.5304 15.4332 46.4481 16.6761 45.2674C16.9868 44.9723 17.2976 44.8739 17.6083 45.169C19.6799 46.3497 21.855 47.2352 24.1337 47.7272C24.6516 47.8256 24.8588 48.0224 24.8588 48.5143C24.8588 50.0885 24.8588 51.5644 24.8588 53.1386C24.8588 53.6306 24.9623 53.729 25.4802 53.729C27.8625 53.729 30.2448 53.729 32.6271 53.729C33.145 53.729 33.2486 53.6306 33.2486 53.1386C33.2486 51.6628 33.2486 50.0885 33.2486 48.6127C33.2486 48.0224 33.3522 47.924 33.9736 47.7272C34.4915 47.6288 34.9058 47.5304 35.4237 47.3336C35.8381 47.2352 35.8381 47.0385 35.6309 46.7433C35.5273 46.5465 35.3202 46.4481 35.113 46.2513C34.6987 45.8578 34.2844 45.4642 34.2844 44.8739C34.2844 44.5787 34.2844 44.2835 34.2844 43.89C34.2844 43.2996 34.1808 43.2012 33.5593 43.2996C31.3842 43.89 29.1055 43.9884 26.8267 43.6932C23.7194 43.2996 20.9228 42.119 18.5405 40.2495C16.0546 38.3801 14.2938 36.0188 13.258 33.1655C12.4294 30.9025 12.1187 28.4427 12.3258 26.0814C12.6365 23.3265 13.6723 20.7683 15.3296 18.5054C16.6761 16.7343 18.3333 15.2585 20.3013 14.0778C23.5122 12.2084 27.1375 11.4213 30.8663 11.8148C31.7985 11.9132 32.7307 12.11 33.6629 12.3068C33.9736 12.4052 34.1808 12.3068 34.1808 12.0116C34.1808 11.8148 34.1808 11.6181 34.1808 11.4213C34.0772 10.9293 34.0772 10.4374 34.4915 10.0438C34.8023 9.65026 35.2166 9.2567 35.6309 8.96153C35.8381 8.66636 35.8381 8.46958 35.5273 8.37119C35.113 8.2728 34.5951 8.07602 34.0772 7.97763C33.2486 8.07602 33.145 7.87924 33.145 7.2889C33.145 5.81305 33.145 4.3372 33.145 2.76296C33.145 2.27101 33.0414 2.17262 32.5235 2.17262C30.1413 2.17262 27.759 2.17262 25.3767 2.17262C24.8588 2.17262 24.7552 2.27101 24.7552 2.76296C24.7552 4.23881 24.7552 5.71466 24.7552 7.2889C24.7552 7.97763 24.6516 8.07602 23.9266 8.2728C21.7514 8.66636 19.6799 9.55187 17.7119 10.7326C17.194 11.0277 16.9868 11.0277 16.5725 10.6342C15.4332 9.55187 14.2938 8.46958 13.1544 7.38729C12.8437 7.09212 12.7401 7.09212 12.3258 7.38729C10.6686 8.96153 8.90773 10.6342 7.25048 12.2084C6.83616 12.602 6.83616 12.7004 7.25048 12.9955C8.38984 14.0778 9.5292 15.1601 10.6686 16.2424C10.9793 16.636 11.0829 16.8327 10.7721 17.2263C9.5292 19.0957 8.59699 21.1619 8.0791 23.3265C7.87195 24.0152 7.76837 24.1136 7.04332 24.1136C5.48965 24.1136 3.93598 24.1136 2.3823 24.1136C1.86441 24.1136 1.76084 24.212 1.76084 24.7039C1.76084 25.7862 1.76084 26.8685 1.76084 27.9508ZM34.0772 15.9472C34.0772 15.4553 34.0772 14.8649 34.0772 14.373C34.0772 14.0778 33.9736 13.881 33.6629 13.881C32.3164 13.4875 31.0735 13.1923 29.6234 13.1923C24.1337 13.0939 19.6799 14.9633 16.3654 19.0957C13.3616 22.8345 12.533 27.1637 13.6723 31.6896C14.5009 34.8381 16.2618 37.4946 18.9548 39.5608C21.3371 41.4302 24.1337 42.5125 27.1375 42.8077C29.3126 43.0045 31.3842 42.8077 33.4558 42.2173C33.8701 42.119 33.9736 41.9222 33.9736 41.5286C33.9736 40.5447 33.9736 39.4624 33.9736 38.4785C33.9736 38.2817 33.8701 38.085 33.7665 37.8882C32.7307 36.1172 31.6949 34.2478 30.6591 32.4767C30.452 32.0832 30.2448 32.0832 29.8305 32.0832C28.0697 32.4767 26.516 31.9848 25.3767 30.7057C24.1337 29.3283 24.0301 27.754 24.8588 26.1798C25.791 24.4088 27.8625 23.5232 29.9341 23.9168C30.2448 24.0152 30.452 24.0152 30.6591 23.72C31.4878 22.1458 32.42 20.5716 33.3522 19.0957C33.8701 18.2102 34.1808 17.4231 33.9736 16.4392C34.0772 16.2424 34.0772 16.0456 34.0772 15.9472ZM32.2128 27.9508C32.2128 26.2782 30.7627 24.9007 29.0019 24.9007C27.2411 24.9007 25.791 26.2782 25.791 27.9508C25.791 29.6234 27.2411 31.0009 29.0019 31.0009C30.9699 31.0009 32.1092 29.6234 32.2128 27.9508ZM51.3748 48.9079C51.3748 47.2352 49.9247 45.8578 48.1639 45.8578C46.403 45.8578 44.9529 47.1368 44.9529 48.9079C44.9529 50.6789 46.2994 51.958 48.1639 51.958C49.9247 51.958 51.3748 50.5805 51.3748 48.9079ZM50.0283 31.0009C51.7891 31.0009 53.2392 29.6234 53.2392 27.9508C53.2392 26.2782 51.7891 24.9007 50.0283 24.9007C48.2674 24.9007 46.8173 26.2782 46.8173 27.9508C46.8173 29.6234 48.2674 31.0009 50.0283 31.0009ZM43.3993 41.0367C45.1601 41.0367 46.6102 39.6592 46.6102 37.9866C46.6102 36.3139 45.1601 34.9365 43.3993 34.9365C41.5349 34.9365 40.1883 36.3139 40.1883 37.9866C40.0848 39.5608 41.4313 41.0367 43.3993 41.0367ZM43.3993 20.9651C45.1601 20.9651 46.6102 19.5877 46.6102 17.915C46.6102 16.2424 45.1601 14.8649 43.3993 14.8649C41.6384 14.8649 40.1883 16.2424 40.1883 17.915C40.1883 19.7844 41.5349 20.9651 43.3993 20.9651ZM51.3748 7.09212C51.3748 5.41949 50.0283 4.04203 48.1639 3.94364C46.403 3.94364 44.9529 5.3211 44.9529 6.99373C44.9529 8.66636 46.403 10.0438 48.1639 10.0438C50.0283 10.0438 51.1676 8.66636 51.3748 7.09212ZM39.4633 49.3014C39.3597 49.3014 39.3597 49.3014 39.4633 49.3014C39.3597 49.3014 39.4633 49.3998 39.4633 49.3014C39.4633 49.3998 39.4633 49.3998 39.4633 49.3014Z" fill="#FF9A53"/>
<path d="M39.4633 49.3014C39.3597 49.3014 39.3597 49.3014 39.4633 49.3014ZM39.4633 49.3014C39.3597 49.3014 39.4633 49.3998 39.4633 49.3014ZM39.4633 49.3014C39.4633 49.3998 39.4633 49.3998 39.4633 49.3014ZM28.8983 55.008C27.6554 55.008 26.4124 55.008 25.1695 55.008C24.1337 55.008 23.5122 54.4177 23.5122 53.4338C23.5122 52.1547 23.5122 50.8757 23.5122 49.4982C23.5122 48.9079 23.5122 48.9079 22.8908 48.7111C21.0264 48.2191 19.2655 47.5304 17.5047 46.6449C17.194 46.4481 16.9868 46.5465 16.7797 46.7433C15.8475 47.6288 14.9153 48.5143 13.8795 49.4982C13.0509 50.2853 12.3258 50.2853 11.4972 49.7934C11.29 49.695 11.1864 49.3998 10.9793 49.203C10.1507 48.3175 9.32204 47.5304 8.49342 46.7433C7.76837 46.0546 7.04332 45.3658 6.31827 44.6771C5.48965 43.89 5.48965 43.1029 6.31827 42.3157C7.25048 41.4302 8.18268 40.4463 9.21846 39.5608C9.5292 39.2656 9.5292 39.0689 9.32204 38.6753C8.38984 37.1011 7.66479 35.5268 7.1469 33.7558C6.93974 33.1655 6.93974 33.1655 6.31827 33.1655C4.97176 33.1655 3.72882 33.1655 2.3823 33.1655C1.24294 33.1655 0.621475 32.5751 0.621475 31.4928C0.621475 29.2299 0.621475 26.8685 0.621475 24.6055C0.621475 23.5232 1.24294 22.9329 2.3823 22.9329C3.72882 22.9329 5.07534 22.9329 6.42185 22.9329C6.83616 22.9329 7.04332 22.8345 7.1469 22.3426C7.56121 20.4732 8.38984 18.8005 9.32204 17.2263C9.5292 16.9311 9.42562 16.7343 9.21846 16.4392C8.18268 15.5537 7.25048 14.5698 6.31827 13.6843C5.48965 12.8971 5.48965 12.11 6.31827 11.3229C8.0791 9.65026 9.83993 7.97763 11.4972 6.40339C12.3258 5.61627 13.1544 5.61627 13.9831 6.40339C14.9153 7.2889 15.8475 8.17441 16.7797 9.15831C17.0904 9.45348 17.2976 9.45348 17.7119 9.2567C19.3691 8.37119 21.13 7.68246 22.9944 7.19051C23.4087 7.09212 23.6158 6.89534 23.6158 6.50178C23.6158 5.22271 23.6158 4.04203 23.6158 2.76296C23.6158 1.58228 24.2373 0.991943 25.4802 0.991943C27.8625 0.991943 30.2448 0.991943 32.6271 0.991943C33.7665 0.991943 34.388 1.58228 34.388 2.76296C34.388 4.04203 34.388 5.3211 34.388 6.60017C34.388 6.99373 34.5951 7.19051 35.0094 7.2889C35.5273 7.38729 36.0452 7.58407 36.4595 7.78085C36.7703 7.87924 36.9774 7.87924 37.1846 7.68246C37.9096 6.69856 38.9454 6.50178 40.0848 6.60017C41.1205 6.69856 42.1563 6.60017 43.1921 6.60017C43.5028 6.60017 43.71 6.50178 43.8136 6.10822C44.3315 4.43559 45.4708 3.3533 47.3352 2.95974C49.1996 2.56618 50.7533 3.15652 51.7891 4.63237C53.1356 6.40339 52.7213 9.05992 50.8569 10.4374C48.9925 11.8148 46.2994 11.5197 44.8494 9.84704C44.3315 9.35509 44.0207 8.76475 43.9172 8.07602C43.8136 7.78085 43.71 7.68246 43.3993 7.68246C42.0527 7.68246 40.6026 7.68246 39.2561 7.68246C39.049 7.68246 38.8418 7.78085 38.7382 7.87924C37.806 8.76475 36.7703 9.74865 35.8381 10.6342C35.6309 10.8309 35.5273 11.0277 35.5273 11.2245C35.5273 13.0939 35.5273 14.8649 35.5273 16.7343C35.5273 17.2263 35.6309 17.3247 36.1488 17.3247C36.9774 17.3247 37.7025 17.3247 38.5311 17.3247C38.9454 17.3247 39.1526 17.2263 39.2561 16.7343C40.0848 14.0778 43.1921 12.7987 45.7816 14.1762C47.3352 14.9633 48.1639 16.7343 47.9567 18.3086C47.7495 20.0796 46.403 21.4571 44.7458 21.8506C42.9849 22.3426 41.1205 21.6538 39.9812 20.3748C39.5669 19.8828 39.3597 19.3909 39.1526 18.8005C39.049 18.5054 38.9454 18.407 38.6347 18.407C37.5989 18.407 36.5631 18.407 35.5273 18.407C35.2166 18.407 35.113 18.6038 34.9058 18.8989C34.1808 20.2764 33.3522 21.5554 32.6271 22.9329C32.42 23.3265 32.2128 23.72 31.9021 24.1136C31.7985 24.4088 31.7985 24.6055 32.0057 24.8023C32.6271 25.3927 33.145 25.983 33.3522 26.8685C33.4558 27.1637 33.6629 27.3605 33.9736 27.3605C37.7025 27.3605 41.4313 27.3605 45.2637 27.3605C45.5744 27.3605 45.7816 27.2621 45.8851 26.9669C46.8173 23.8184 50.8569 22.7361 53.3428 24.9991C54.5857 26.0814 55 27.9508 54.3785 29.525C53.7571 31.1977 52.0998 32.28 50.339 32.28C48.1639 32.28 46.403 31.0993 45.8851 29.1315C45.7816 28.7379 45.5744 28.6395 45.2637 28.6395C43.1921 28.6395 41.017 28.6395 38.9454 28.6395C37.3917 28.6395 35.7345 28.6395 34.1808 28.6395C33.7665 28.6395 33.5593 28.7379 33.4558 29.2299C33.2486 30.017 32.8343 30.6073 32.2128 31.1977C31.9021 31.3944 31.9021 31.6896 32.1092 31.8864C32.8343 33.2639 33.6629 34.5429 34.388 35.9204C34.5951 36.3139 34.8023 36.8059 35.113 37.1995C35.3202 37.4946 35.4237 37.593 35.8381 37.593C36.7703 37.593 37.5989 37.593 38.5311 37.593C39.1526 37.593 39.1526 37.593 39.3597 37.0027C40.0848 34.7397 42.5706 33.4606 44.9529 34.1494C47.1281 34.7397 48.4746 37.0027 48.0603 39.1673C47.5424 41.3318 45.3672 42.7093 43.0885 42.4141C41.2241 42.119 39.9812 41.1351 39.3597 39.364C39.1526 38.7737 39.1526 38.7737 38.5311 38.7737C37.806 38.7737 37.081 38.7737 36.3559 38.7737H36.2524C35.7345 38.7737 35.7345 38.8721 35.7345 39.2656C35.7345 41.0367 35.7345 42.9061 35.7345 44.6771C35.7345 44.9723 35.8381 45.2674 36.0452 45.4642C36.9774 46.3497 37.9096 47.2352 38.8418 48.1207C39.049 48.3175 39.2561 48.4159 39.4633 48.4159C40.8098 48.4159 42.1563 48.4159 43.5028 48.4159C43.9171 48.4159 44.0207 48.3175 44.1243 47.924C44.6422 45.8578 46.7138 44.4803 49.0961 44.8739C51.3748 45.169 53.032 47.0385 52.9284 49.203C52.8249 51.2692 51.1676 53.0402 48.9925 53.237C46.8173 53.4338 44.7458 52.1547 44.1243 50.0885C44.0207 49.695 43.8136 49.5966 43.3993 49.5966C42.0527 49.5966 40.8098 49.5966 39.4633 49.5966C38.7382 49.5966 38.3239 49.3998 37.806 48.9079C36.9774 48.1207 37.2881 48.2191 36.1488 48.5143C35.8381 48.6127 35.4237 48.7111 35.113 48.8095C34.8023 48.9079 34.5951 49.1046 34.5951 49.3998C34.5951 50.6789 34.5951 51.958 34.5951 53.237C34.5951 54.4177 33.9736 55.008 32.8343 55.008C31.3842 55.008 30.1413 55.008 28.8983 55.008ZM1.76084 27.9508C1.76084 29.0331 1.76084 30.2138 1.76084 31.2961C1.76084 31.788 1.86441 31.8864 2.3823 31.8864C3.93598 31.8864 5.48965 31.8864 6.93974 31.8864C7.76837 31.8864 7.87195 31.9848 8.0791 32.7719C8.59699 34.9365 9.5292 36.9043 10.6686 38.6753C10.9793 39.1673 10.9793 39.2656 10.565 39.6592C9.5292 40.8399 8.38984 41.9222 7.25048 43.0045C6.93974 43.2996 6.83617 43.4964 7.25048 43.7916C8.90773 45.3658 10.6686 47.0385 12.3258 48.6127C12.6365 48.9079 12.7401 48.9079 13.1544 48.6127C14.2938 47.5304 15.4332 46.4481 16.6761 45.2674C16.9868 44.9723 17.2976 44.8739 17.6083 45.169C19.6799 46.3497 21.855 47.2352 24.1337 47.7272C24.6516 47.8256 24.8588 48.0224 24.8588 48.5143C24.8588 50.0885 24.8588 51.5644 24.8588 53.1386C24.8588 53.6306 24.9623 53.729 25.4802 53.729C27.8625 53.729 30.2448 53.729 32.6271 53.729C33.145 53.729 33.2486 53.6306 33.2486 53.1386C33.2486 51.6628 33.2486 50.0885 33.2486 48.6127C33.2486 48.0224 33.3522 47.924 33.9736 47.7272C34.4915 47.6288 34.9058 47.5304 35.4237 47.3336C35.8381 47.2352 35.8381 47.0385 35.6309 46.7433C35.5273 46.5465 35.3202 46.4481 35.113 46.2513C34.6987 45.8578 34.2844 45.4642 34.2844 44.8739C34.2844 44.5787 34.2844 44.2835 34.2844 43.89C34.2844 43.2996 34.1808 43.2012 33.5593 43.2996C31.3842 43.89 29.1055 43.9884 26.8267 43.6932C23.7194 43.2996 20.9228 42.119 18.5405 40.2495C16.0546 38.3801 14.2938 36.0188 13.258 33.1655C12.4294 30.9025 12.1187 28.4427 12.3258 26.0814C12.6365 23.3265 13.6723 20.7683 15.3296 18.5054C16.6761 16.7343 18.3333 15.2585 20.3013 14.0778C23.5122 12.2084 27.1375 11.4213 30.8663 11.8148C31.7985 11.9132 32.7307 12.11 33.6629 12.3068C33.9736 12.4052 34.1808 12.3068 34.1808 12.0116C34.1808 11.8148 34.1808 11.6181 34.1808 11.4213C34.0772 10.9293 34.0772 10.4374 34.4915 10.0438C34.8023 9.65026 35.2166 9.2567 35.6309 8.96153C35.8381 8.66636 35.8381 8.46958 35.5273 8.37119C35.113 8.2728 34.5951 8.07602 34.0772 7.97763C33.2486 8.07602 33.145 7.87924 33.145 7.2889C33.145 5.81305 33.145 4.3372 33.145 2.76296C33.145 2.27101 33.0414 2.17262 32.5235 2.17262C30.1413 2.17262 27.759 2.17262 25.3767 2.17262C24.8588 2.17262 24.7552 2.27101 24.7552 2.76296C24.7552 4.23881 24.7552 5.71466 24.7552 7.2889C24.7552 7.97763 24.6516 8.07602 23.9266 8.2728C21.7514 8.66636 19.6799 9.55187 17.7119 10.7326C17.194 11.0277 16.9868 11.0277 16.5725 10.6342C15.4332 9.55187 14.2938 8.46958 13.1544 7.38729C12.8437 7.09212 12.7401 7.09212 12.3258 7.38729C10.6686 8.96153 8.90773 10.6342 7.25048 12.2084C6.83617 12.602 6.83617 12.7004 7.25048 12.9955C8.38984 14.0778 9.5292 15.1601 10.6686 16.2424C10.9793 16.636 11.0829 16.8327 10.7721 17.2263C9.5292 19.0957 8.59699 21.1619 8.0791 23.3265C7.87195 24.0152 7.76837 24.1136 7.04332 24.1136C5.48965 24.1136 3.93598 24.1136 2.3823 24.1136C1.86441 24.1136 1.76084 24.212 1.76084 24.7039C1.76084 25.7862 1.76084 26.8685 1.76084 27.9508ZM34.0772 15.9472C34.0772 15.4553 34.0772 14.8649 34.0772 14.373C34.0772 14.0778 33.9736 13.881 33.6629 13.881C32.3164 13.4875 31.0735 13.1923 29.6234 13.1923C24.1337 13.0939 19.6799 14.9633 16.3654 19.0957C13.3616 22.8345 12.533 27.1637 13.6723 31.6896C14.5009 34.8381 16.2618 37.4946 18.9548 39.5608C21.3371 41.4302 24.1337 42.5125 27.1375 42.8077C29.3126 43.0045 31.3842 42.8077 33.4558 42.2173C33.8701 42.119 33.9736 41.9222 33.9736 41.5286C33.9736 40.5447 33.9736 39.4624 33.9736 38.4785C33.9736 38.2817 33.8701 38.085 33.7665 37.8882C32.7307 36.1172 31.6949 34.2478 30.6591 32.4767C30.452 32.0832 30.2448 32.0832 29.8305 32.0832C28.0697 32.4767 26.516 31.9848 25.3767 30.7057C24.1337 29.3283 24.0301 27.754 24.8588 26.1798C25.791 24.4088 27.8625 23.5232 29.9341 23.9168C30.2448 24.0152 30.452 24.0152 30.6591 23.72C31.4878 22.1458 32.42 20.5715 33.3522 19.0957C33.8701 18.2102 34.1808 17.4231 33.9736 16.4392C34.0772 16.2424 34.0772 16.0456 34.0772 15.9472ZM32.2128 27.9508C32.2128 26.2782 30.7627 24.9007 29.0019 24.9007C27.2411 24.9007 25.791 26.2782 25.791 27.9508C25.791 29.6234 27.2411 31.0009 29.0019 31.0009C30.9699 31.0009 32.1092 29.6234 32.2128 27.9508ZM51.3748 48.9079C51.3748 47.2352 49.9247 45.8578 48.1639 45.8578C46.403 45.8578 44.9529 47.1368 44.9529 48.9079C44.9529 50.6789 46.2994 51.958 48.1639 51.958C49.9247 51.958 51.3748 50.5805 51.3748 48.9079ZM50.0283 31.0009C51.7891 31.0009 53.2392 29.6234 53.2392 27.9508C53.2392 26.2782 51.7891 24.9007 50.0283 24.9007C48.2674 24.9007 46.8173 26.2782 46.8173 27.9508C46.8173 29.6234 48.2674 31.0009 50.0283 31.0009ZM43.3993 41.0367C45.1601 41.0367 46.6102 39.6592 46.6102 37.9866C46.6102 36.3139 45.1601 34.9365 43.3993 34.9365C41.5349 34.9365 40.1883 36.3139 40.1883 37.9866C40.0848 39.5608 41.4313 41.0367 43.3993 41.0367ZM43.3993 20.9651C45.1601 20.9651 46.6102 19.5877 46.6102 17.915C46.6102 16.2424 45.1601 14.8649 43.3993 14.8649C41.6384 14.8649 40.1883 16.2424 40.1883 17.915C40.1883 19.7844 41.5349 20.9651 43.3993 20.9651ZM51.3748 7.09212C51.3748 5.41949 50.0283 4.04203 48.1639 3.94364C46.403 3.94364 44.9529 5.3211 44.9529 6.99373C44.9529 8.66636 46.403 10.0438 48.1639 10.0438C50.0283 10.0438 51.1676 8.66636 51.3748 7.09212Z" stroke="#FF9A53" stroke-miterlimit="10"/>
</g>
<defs>
<clipPath id="clip0_1727_7275">
<rect width="55" height="55" fill="white" transform="translate(0 0.5)"/>
</clipPath>
</defs>
</svg>
