<svg width="71" height="56" viewBox="0 0 71 56" fill="none" xmlns="http://www.w3.org/2000/svg">
<path d="M70.428 23.5135C68.7427 24.2649 68.2863 24.0362 68.2512 22.272C68.2161 20.6059 68.1459 18.907 68.2863 17.2409C68.4268 15.5094 67.6192 14.4966 66.0042 13.8432C65.2318 13.5165 64.4594 13.1245 63.5115 12.6671C64.4594 12.3077 64.9158 11.2623 65.6882 11.5236C67.1277 11.981 68.6023 12.6344 69.5502 13.8759C69.8662 14.2679 70.112 14.6599 70.3578 15.0847C70.428 17.8616 70.428 20.6712 70.428 23.5135Z" fill="#FF9A53"/>
<path d="M56.278 39.293C54.347 38.0189 52.8724 39.0643 51.3627 39.8157C51.3627 38.607 51.3627 37.5615 51.3627 36.3527C52.2405 36.7774 53.0129 36.8428 53.8204 36.7774C54.5577 36.7121 55.3652 36.7448 56.0674 37.0061C57.542 37.5289 58.9112 38.1496 60.6316 38.0516C62.1764 37.9536 63.335 38.9663 63.7563 40.4365C64.1425 41.8413 63.6509 43.05 62.4221 43.8668C60.8071 44.9449 59.1219 45.8923 57.4717 46.8724C53.1533 49.4207 48.7647 51.8709 44.5516 54.5498C42.1993 56.02 39.9172 56.2487 37.284 55.4972C32.79 54.2231 28.296 52.8837 23.7319 51.9036C20.8178 51.2502 18.0442 52.2303 15.7621 53.9944C14.2173 55.2032 6.77414 55.5299 5.29956 54.1905C4.63248 53.6024 4.38672 52.851 4.38672 52.0016C4.42183 47.5585 4.38672 43.1154 4.38672 38.705C4.38672 36.8101 5.43999 35.7647 7.47632 35.6993C9.40733 35.634 11.3032 35.6667 13.2342 35.6993C13.8662 35.6993 14.6386 35.732 15.0248 36.2221C16.0078 37.4962 17.1664 37.0388 18.3953 36.7448C22.8541 35.634 27.1726 36.5161 31.4208 37.6922C36.0903 38.999 40.6545 40.5998 45.5346 41.1879C46.9039 41.3512 48.0625 42.07 48.4487 43.4421C48.8349 44.8142 48.1327 45.827 47.0794 46.7417C45.2538 48.3099 42.9717 48.4406 40.6896 48.4406C37.5649 48.4732 34.5806 47.8525 31.7367 46.6764C30.9994 46.3497 30.0866 46.0883 30.5079 45.0756C30.9643 44.0301 31.807 44.4549 32.5442 44.7489C35.669 46.0557 38.9692 46.5784 42.3748 46.317C43.393 46.2517 44.3409 46.0557 45.1484 45.5003C45.7102 45.1409 46.4124 44.7489 46.2368 43.9648C46.0613 43.1807 45.2538 43.1154 44.5516 43.05C41.6375 42.7887 38.8639 42.0046 36.0903 41.2205C32.1932 40.1424 28.4014 38.705 24.3287 38.3783C23.6265 38.3129 22.9243 38.2476 22.2573 38.2803C20.2912 38.3456 18.0091 38.3456 16.6398 39.5544C15.6568 40.4038 16.394 42.3313 16.3589 43.7688C16.2887 45.827 16.394 47.8852 16.3238 49.9434C16.2887 50.8908 16.6749 51.1848 17.5175 50.7928C21.1689 49.094 24.6798 49.878 28.2609 51.0215C31.3856 52.0016 34.6157 52.7203 37.7755 53.6351C39.8118 54.2231 41.5322 53.9944 43.3579 52.8837C48.87 49.486 54.5226 46.2517 60.1049 42.952C60.9475 42.462 62.2466 41.9719 61.3689 40.7632C60.5965 39.6851 59.4378 39.9791 58.4197 40.5671C56.3482 41.7433 54.3119 42.9847 52.2054 44.1608C51.7138 44.4549 51.0117 45.1409 50.5903 44.5202C50.2041 43.9321 50.1339 42.952 51.0819 42.3967C52.8724 41.3186 54.4875 40.3385 56.278 39.293ZM14.2524 45.2716C14.2524 43.1807 14.2173 41.0572 14.2524 38.9663C14.2875 38.0516 13.9364 37.6922 12.9533 37.7249C11.2681 37.7575 9.58287 37.7575 7.89763 37.7249C6.94969 37.6922 6.56349 38.0189 6.56349 38.9663C6.59859 43.1807 6.59859 47.3951 6.56349 51.5769C6.56349 52.557 6.94969 52.949 7.96785 52.949C9.58287 52.9163 11.233 52.9163 12.848 52.949C13.8662 52.9817 14.2875 52.5896 14.2524 51.6095C14.1822 49.486 14.2524 47.3951 14.2524 45.2716Z" fill="#FF9A53"/>
<path d="M42.0941 17.8942C42.059 18.9724 42.2345 20.0505 41.9185 21.1286C41.2515 23.5135 38.9694 25.1469 36.4415 25.0489C33.7732 24.9183 31.5262 23.0887 31.2805 20.6058C31.1049 18.9397 31.1049 17.2408 31.2453 15.5747C31.456 12.7651 33.703 10.8376 36.5819 10.8376C39.4609 10.8049 41.7781 12.7324 42.0941 15.4767C42.1643 16.2608 42.0941 17.0775 42.0941 17.8942ZM39.812 17.9923C39.812 17.1428 39.9173 16.2608 39.7769 15.4113C39.5662 13.8759 38.1267 12.7978 36.5468 12.8304C34.9318 12.8631 33.5274 14.0065 33.4221 15.542C33.3168 17.1102 33.3168 18.6783 33.4221 20.2138C33.4923 21.782 34.8616 22.8601 36.5117 22.9254C38.197 22.9581 39.5311 21.978 39.7769 20.4098C39.8822 19.6257 39.812 18.7763 39.812 17.9923Z" fill="#FF9A53"/>
<path d="M6.10703 5.54499C6.10703 5.12028 6.10703 4.69558 6.10703 4.2382C6.21236 1.88597 7.93271 0.187141 10.3201 0.121802C12.6724 0.0564621 14.6034 1.65728 14.8141 4.00951C14.9194 5.25096 14.9194 6.49241 14.7439 7.73387C14.4279 9.98808 12.4969 11.3929 10.1446 11.2622C7.86249 11.1315 6.24747 9.56338 6.10703 7.34183C6.07193 6.75377 6.10703 6.13305 6.10703 5.54499ZM12.532 5.74101C12.5671 5.74101 12.5671 5.74101 12.532 5.74101C12.5671 5.21829 12.5671 4.66291 12.532 4.14019C12.4618 2.89874 11.6543 2.24534 10.4255 2.21267C9.19664 2.21267 8.35402 2.86607 8.2838 4.10752C8.21358 5.25096 8.21358 6.36174 8.31891 7.50518C8.42424 8.61595 9.19664 9.23668 10.4255 9.23668C11.6543 9.23668 12.3916 8.64862 12.532 7.50518C12.6022 6.91712 12.532 6.32907 12.532 5.74101Z" fill="#FF9A53"/>
<path d="M64.9157 5.77395C64.9157 6.42735 64.986 7.08074 64.9157 7.70147C64.7051 9.62899 63.0901 11.0665 61.0186 11.2298C58.8419 11.3932 56.946 10.217 56.4544 8.25686C56.0331 6.65603 56.1033 5.02254 56.3842 3.42172C56.7704 1.36353 58.6663 -0.00860687 60.8431 0.0894026C63.0901 0.187412 64.8104 1.78823 64.9508 3.97711C64.986 4.59784 64.9508 5.18589 64.9157 5.77395C64.9508 5.77395 64.9508 5.77395 64.9157 5.77395ZM62.7741 5.67594C62.7741 5.18589 62.8092 4.69585 62.7741 4.23847C62.7039 2.93168 61.8964 2.21294 60.5622 2.21294C59.3334 2.24561 58.5259 2.93168 58.4908 4.17313C58.4557 5.25123 58.4205 6.32934 58.4908 7.40744C58.561 8.61622 59.3685 9.26962 60.6675 9.23695C61.9666 9.20428 62.6688 8.48554 62.739 7.30943C62.8092 6.75404 62.7741 6.19866 62.7741 5.67594Z" fill="#FF9A53"/>
<path d="M40.338 32.3669C40.5135 33.2163 40.2326 33.6083 39.8464 33.9677C39.3198 34.4578 38.8283 34.9805 38.3016 35.5032C36.7568 37.0387 36.6515 36.9407 35.0014 35.6012C33.1055 34.0657 32.4384 32.4322 33.3864 30.2434C33.7374 29.4593 33.8428 28.5772 33.9832 27.7278C34.0885 26.8784 34.4396 26.7477 35.3525 26.911C36.4057 27.0744 36.3355 27.5644 36.16 28.2505C35.8791 29.3613 35.6333 30.472 35.3525 31.5828C35.2471 32.0075 35.0014 32.4976 35.3174 32.8243C35.7387 33.2817 36.0898 34.1964 36.8271 33.9024C37.459 33.641 38.2314 33.0856 38.0208 32.1382C37.7048 30.7661 37.459 29.3939 37.0728 28.0218C36.8622 27.3031 37.0728 27.0744 37.8452 26.9764C38.4772 26.911 39.074 26.5517 39.2496 27.4991C39.5656 29.1979 40.022 30.9294 40.338 32.3669Z" fill="#FF9A53"/>
<path d="M11.83 17.6001C11.5491 16.424 11.3384 15.3132 10.9873 14.2351C10.7416 13.5164 10.9522 13.2551 11.6895 13.157C12.2864 13.0917 12.9534 12.7977 13.129 13.7124C13.445 15.1499 13.7961 16.5547 14.1823 17.9595C14.3929 18.8089 13.7961 19.2336 13.2694 19.7237C10.0745 22.664 10.7767 22.6313 7.58175 19.7563C6.80934 19.0376 6.42314 18.4169 6.80935 17.3388C7.19555 16.2933 7.4062 15.1499 7.61686 14.0391C7.7924 13.2224 8.07327 12.863 9.09144 13.059C10.1447 13.255 10.0394 13.7124 9.79362 14.4312C9.47764 15.4113 9.30209 16.424 9.02122 17.4041C8.77546 18.2209 9.51275 18.5476 9.93406 19.0049C10.1798 19.2663 10.4958 19.397 10.8118 19.0703C11.2682 18.6456 12.0406 18.3515 11.83 17.6001Z" fill="#FF9A53"/>
<path d="M61.9661 17.3716C61.7204 16.4242 61.5097 15.3134 61.1586 14.2353C60.9129 13.5165 61.1937 13.2552 61.931 13.1572C62.5279 13.0918 63.1598 12.7978 63.3354 13.7452C63.6163 15.1827 64.0025 16.5875 64.3887 17.9923C64.6695 18.9397 63.8971 19.3644 63.3354 19.8872C60.316 22.6641 60.948 22.6314 57.8935 19.9198C57.0157 19.1358 56.5593 18.417 57.0509 17.2409C57.4371 16.2281 57.6828 15.15 57.8233 14.1046C57.9637 13.1572 58.3499 12.9938 59.2978 13.1572C60.4213 13.3205 60.1405 13.9086 59.9649 14.5293C59.7192 15.5094 59.5085 16.5222 59.2276 17.5023C59.017 18.319 59.7192 18.613 60.1405 19.1031C60.4213 19.4298 60.7373 19.3971 61.0182 19.1031C61.4746 18.613 62.2821 18.3517 61.9661 17.3716Z" fill="#FF9A53"/>
<path d="M41.2517 25.7677C42.1997 24.1016 43.3231 24.4283 44.7977 25.0817C47.8522 26.4211 49.5375 28.3487 49.1864 31.6483C48.9757 33.6738 49.1513 35.732 49.1513 37.7902C49.1513 38.509 49.0108 39.1297 48.0629 39.1297C47.1149 39.1297 46.9745 38.509 46.9745 37.7902C46.9745 35.4707 46.9043 33.1511 47.0096 30.8316C47.0798 29.1327 46.2723 28.0873 44.7275 27.3686C43.5689 26.8459 42.3752 26.2905 41.2517 25.7677Z" fill="#FF9A53"/>
<path d="M7.40612 12.6344C6.9497 12.8958 6.63372 13.1572 6.28263 13.2878C3.33346 14.1046 2.35041 15.9668 2.73661 18.711C2.91215 20.0505 2.77172 21.3899 2.77172 22.7621C2.77172 23.4481 2.49084 23.9382 1.68333 23.9382C0.910932 23.9382 0.59495 23.4481 0.59495 22.7621C0.59495 20.4425 0.524732 18.123 0.630059 15.8034C0.700277 14.0392 3.36857 11.6217 5.26447 11.491C6.1773 11.4257 6.5635 12.3077 7.40612 12.6344Z" fill="#FF9A53"/>
<path d="M13.3046 12.6343C14.4632 12.4383 14.7089 11.0335 15.9729 11.6543C17.9039 12.569 20.0104 13.3858 20.1508 15.738C20.2913 18.0575 20.186 20.3771 20.2211 22.6966C20.2211 23.3827 20.0104 23.9054 19.2029 23.9381C18.2901 23.9708 18.0443 23.3827 18.0443 22.6313C18.0443 20.8018 17.939 18.9396 18.0794 17.1101C18.1847 15.542 17.5177 14.5619 16.008 13.9411C15.2005 13.6144 14.3929 13.1571 13.3046 12.6343Z" fill="#FF9A53"/>
<path d="M57.6117 12.6345C53.1178 13.9413 52.4156 16.9143 52.9773 20.5406C53.0827 21.292 53.0124 22.0435 52.9773 22.7949C52.9773 23.5136 52.5911 23.9383 51.8187 23.9056C51.1165 23.873 50.8357 23.4483 50.8357 22.8275C50.8357 20.41 50.7655 17.9597 50.9059 15.5422C50.9761 13.9413 53.9253 11.3604 55.5754 11.4911C56.2074 11.5238 56.8042 12.1772 57.6117 12.6345Z" fill="#FF9A53"/>
<path d="M31.9484 25.7678C30.9303 26.2578 29.877 26.7805 28.7886 27.2379C26.998 27.9893 26.0852 29.1654 26.2607 31.0603C26.331 31.7464 26.2959 32.4651 26.2607 33.1838C26.2607 33.7392 26.4714 34.4253 25.3479 34.2946C24.5053 34.1966 23.9084 34.1313 24.0138 33.1185C24.1191 32.2691 24.0489 31.387 24.0138 30.5376C23.9435 28.4794 24.9617 27.0092 26.7523 25.9638C27.3491 25.6044 28.0162 25.4084 28.5779 25.049C29.9823 24.167 31.1058 24.1343 31.9484 25.7678Z" fill="#FF9A53"/>
<path d="M10.426 42.7233C9.75896 42.6906 9.33765 42.3639 9.33765 41.7105C9.37276 41.0898 9.79407 40.6977 10.4611 40.7304C11.0229 40.7631 11.4091 41.0898 11.4442 41.6778C11.5144 42.3639 11.1282 42.6906 10.426 42.7233Z" fill="#FF9A53"/>
</svg>
