<svg width="63" height="56" viewBox="0 0 63 56" fill="none" xmlns="http://www.w3.org/2000/svg">
<path d="M0.829435 27.8766C1.71463 26.6705 2.59983 25.4644 3.48503 24.2582C4.05408 23.5228 4.65475 23.4051 5.47672 23.9346C6.67806 24.6995 7.84779 25.4349 9.01751 26.1998C9.61818 26.6116 9.71302 27.2588 9.30204 27.7589C8.92267 28.259 8.25877 28.3473 7.6581 28.0237C7.37357 27.8766 7.12066 27.7001 6.86775 27.5236C6.70968 27.4353 6.5516 27.3177 6.33031 27.1706C6.39353 27.8178 6.61483 28.3473 6.83613 28.8474C9.68141 35.5252 14.8661 39.4083 22.5168 40.4674C23.56 40.6145 24.1291 41.2911 23.7497 42.0559C23.4968 42.6149 22.991 42.762 22.3903 42.7031C19.2921 42.3795 16.3836 41.497 13.728 39.9967C8.79621 37.202 5.57156 33.2012 4.02247 28.0237C3.99085 27.906 3.95924 27.8178 3.89601 27.6413C3.6431 27.9649 3.45341 28.2296 3.23211 28.5238C2.44176 29.5828 1.58818 29.5828 0.797821 28.5532C0.829435 28.3179 0.829435 28.0825 0.829435 27.8766Z" fill="#FF9A53"/>
<path d="M23.7822 32.966C23.8138 25.3468 30.8638 19.375 39.0202 20.0516C46.6076 20.6988 52.235 26.9353 51.6027 34.025C51.4446 35.7018 51.002 37.2904 50.1801 38.7612C49.9904 39.0848 50.0536 39.2613 50.3381 39.4967C51.0336 40.0262 51.6975 40.5851 52.393 41.1441C52.9937 41.6442 53.0569 42.3208 52.5827 42.8209C52.1401 43.2916 51.413 43.2916 50.8123 42.8503C50.1801 42.3502 49.5794 41.8501 48.9471 41.35C48.7258 41.1441 48.5677 41.0852 48.3464 41.3794C47.8406 41.9678 47.2715 42.4973 46.6393 42.968C46.3863 43.1445 46.418 43.2621 46.6076 43.4975C49.5162 46.5863 52.393 49.7046 55.3016 52.7935C56.3132 53.8525 57.9888 53.9408 59.032 52.9994C60.0753 52.058 60.0437 50.5283 58.9688 49.5281C58.3365 48.9398 58.2733 48.322 58.7475 47.8219C59.2533 47.3218 59.9804 47.3512 60.6443 47.9396C62.6677 49.7046 62.7309 52.7346 60.7708 54.5585C58.8423 56.3824 55.5545 56.3824 53.6892 54.4703C51.2865 51.9992 48.9787 49.4693 46.6076 46.9688C45.9437 46.2628 45.2799 45.5861 44.6476 44.8507C44.363 44.5271 44.1734 44.5565 43.794 44.7036C36.333 48.0866 27.2598 44.5859 24.5409 37.2021C24.0351 35.8195 23.8138 34.4074 23.7822 32.966ZM37.7557 22.2579C31.3696 22.2579 26.1849 27.0236 26.1849 32.966C26.1533 38.8789 31.338 43.7034 37.6608 43.7034C44.0785 43.7034 49.2316 38.9672 49.2632 33.0248C49.2949 27.1118 44.1417 22.2873 37.7557 22.2579Z" fill="#FF9A53"/>
<path d="M7.59415 21.6403C6.48766 21.6109 5.57084 21.1696 5.00179 20.2871C4.40112 19.3457 3.80045 18.4043 3.23139 17.4336C2.59911 16.3451 2.75718 15.1096 3.64238 14.1682C3.99013 13.8152 4.3695 13.4622 4.71726 13.1092C5.06502 12.7561 5.06502 12.4325 4.71726 12.0795C4.3695 11.7559 4.02175 11.4323 3.67399 11.0793C2.72557 10.1086 2.5675 8.84359 3.23139 7.72572C3.76884 6.81377 4.33789 5.8724 4.93856 4.98987C5.66569 3.872 6.96187 3.3719 8.35289 3.69549C8.79549 3.78375 9.23809 3.872 9.68069 3.98967C10.2497 4.16618 10.5659 3.93084 10.6923 3.43073C10.8188 2.98947 10.9453 2.57762 11.1033 2.13636C11.5143 0.930231 12.5892 0.165371 13.9486 0.106536C15.1183 0.0771182 16.2564 0.0771182 17.4262 0.106536C18.8488 0.194789 19.9237 0.959649 20.3663 2.19519C20.4927 2.60704 20.6192 3.01889 20.7457 3.43073C20.9353 4.04851 21.1566 4.13676 21.7889 4.01909C22.2315 3.93084 22.6741 3.81316 23.1167 3.72491C24.4445 3.43073 25.7723 3.93084 26.4678 5.01929C27.0685 5.93124 27.6376 6.8726 28.2066 7.81397C28.8705 8.93184 28.6808 10.2262 27.7324 11.1676C27.4163 11.4912 27.0685 11.8148 26.7207 12.1384C26.3414 12.4914 26.3414 12.8444 26.7207 13.1974C27.0685 13.521 27.3846 13.8446 27.7324 14.1682C28.6808 15.1096 28.8389 16.4039 28.2066 17.5218C27.6376 18.4632 27.0685 19.4045 26.4678 20.3165C25.7407 21.4049 24.4445 21.8756 23.1167 21.5814C22.6425 21.4932 22.1683 21.3755 21.7257 21.2579C21.2199 21.1108 20.9037 21.3167 20.7773 21.758C20.6508 22.1698 20.5244 22.5816 20.3979 22.9935C19.9869 24.3173 18.8804 25.1116 17.3946 25.141C16.2881 25.1704 15.1499 25.1704 14.0434 25.141C12.6208 25.1116 11.5459 24.3467 11.1349 23.0523C11.0085 22.6699 10.9136 22.2581 10.7872 21.8756C10.5975 21.2579 10.3446 21.1402 9.68069 21.2873C8.95356 21.4049 8.32128 21.6403 7.59415 21.6403ZM21.5992 18.9339C22.1367 18.9633 22.8006 19.1692 23.4961 19.3457C23.9387 19.4634 24.2548 19.3751 24.5077 18.9633C25.0136 18.1396 25.5194 17.3159 26.0252 16.4922C26.2465 16.1392 26.2149 15.8156 25.8988 15.5214C25.551 15.1978 25.2033 14.8742 24.8555 14.5212C23.749 13.3739 23.749 11.7559 24.8555 10.6381C25.1716 10.3145 25.5194 9.99088 25.8672 9.66728C26.2149 9.37311 26.2465 9.04951 25.9936 8.66708C25.4878 7.87281 24.982 7.07853 24.5077 6.25483C24.2548 5.84298 23.9071 5.75473 23.4645 5.84298C22.9903 5.96066 22.5477 6.07833 22.0735 6.16658C20.3979 6.49017 18.9436 5.66648 18.4378 4.16618C18.3114 3.75433 18.1849 3.34248 18.0585 2.93063C17.9636 2.5482 17.7107 2.34228 17.2365 2.34228C16.1932 2.34228 15.1499 2.34228 14.1067 2.34228C13.6641 2.34228 13.4112 2.5482 13.3163 2.93063C13.1899 3.40132 13.0634 3.872 12.8737 4.31327C12.3679 5.6959 10.9136 6.46076 9.36455 6.196C8.85872 6.10774 8.35289 5.96066 7.84707 5.84298C7.43608 5.75473 7.11994 5.81357 6.86703 6.196C6.3612 7.04911 5.82376 7.87281 5.31793 8.6965C5.09663 9.02009 5.15986 9.31427 5.44439 9.60845C5.79214 9.93204 6.1399 10.2556 6.48766 10.6087C7.62577 11.7854 7.62577 13.3739 6.48766 14.5506C6.17151 14.8742 5.85537 15.1684 5.53923 15.4626C5.19147 15.7862 5.12825 16.1098 5.38116 16.4922C5.88699 17.2865 6.39281 18.0807 6.86703 18.9044C7.08833 19.2869 7.43608 19.4045 7.87868 19.2869C8.35289 19.1692 8.85872 19.0515 9.33293 18.9633C10.882 18.6691 12.3679 19.434 12.8737 20.846C13.0318 21.3167 13.1899 21.758 13.3163 22.2286C13.4428 22.6405 13.6957 22.817 14.1383 22.817C15.1499 22.817 16.1616 22.7876 17.2049 22.817C17.6791 22.817 17.932 22.6111 18.0585 22.1992C18.1849 21.758 18.3114 21.3461 18.4378 20.9048C18.912 19.7576 20.0818 18.9633 21.5992 18.9339Z" fill="#FF9A53"/>
<path d="M45.0894 16.3744C44.3623 13.9916 43.2558 11.9617 41.7383 10.1673C38.6085 6.51946 34.5935 4.31313 29.6301 3.54827C28.7133 3.40119 28.2707 2.9305 28.3972 2.22448C28.5236 1.51845 29.1559 1.19486 30.0411 1.37136C38.7034 2.90108 44.4572 7.5785 47.2708 15.3742C47.3024 15.4624 47.3657 15.5507 47.4289 15.6684C47.6818 15.2565 47.9347 14.9035 48.1876 14.5505C48.5986 13.9621 49.2625 13.815 49.8316 14.1386C50.4006 14.4622 50.5903 15.1094 50.2109 15.6978C49.4522 16.9039 48.6619 18.0806 47.8399 19.2573C47.4289 19.8751 46.7966 19.9928 46.1327 19.6103C44.8682 18.9043 43.6036 18.1689 42.3706 17.4334C41.7067 17.051 41.5487 16.4038 41.928 15.8449C42.3074 15.3153 42.9713 15.1977 43.6036 15.5507C44.0778 15.786 44.5204 16.0508 45.0894 16.3744Z" fill="#FF9A53"/>
<path d="M56.9124 45.3215C56.9124 45.9392 56.4066 46.4393 55.7427 46.4393C55.0472 46.4393 54.5097 45.9392 54.5413 45.3215C54.5413 44.7331 55.0788 44.233 55.7427 44.233C56.375 44.2036 56.9124 44.6743 56.9124 45.3215Z" fill="#FF9A53"/>
<path d="M37.7227 40.9381C32.9489 40.9381 29.1552 37.4374 29.1552 32.9953C29.1552 28.5827 32.9806 24.9937 37.7227 25.0231C42.4648 25.0231 46.2901 28.5827 46.2901 32.9953C46.2901 37.4374 42.4964 40.9381 37.7227 40.9381ZM37.6595 38.7318C41.0422 38.7906 43.8242 36.2901 43.8875 33.113C43.9823 29.9065 41.2951 27.3177 37.8175 27.2295C34.4348 27.1706 31.6212 29.7005 31.5895 32.9071C31.4947 36.1136 34.2135 38.6729 37.6595 38.7318Z" fill="#FF9A53"/>
<path d="M15.6884 17.8453C12.5902 17.8159 10.0927 15.4625 10.1243 12.6089C10.1559 9.72601 12.6534 7.40201 15.7516 7.43143C18.8814 7.43143 21.3789 9.78484 21.3473 12.6972C21.3157 15.5507 18.7866 17.8453 15.6884 17.8453ZM15.7516 9.63776C13.9812 9.63776 12.5586 10.9321 12.527 12.5795C12.4954 14.2269 13.9496 15.5801 15.6884 15.5801C17.4904 15.5801 18.9447 14.2563 18.9447 12.6089C18.9447 10.991 17.522 9.66717 15.7516 9.63776Z" fill="#FF9A53"/>
</svg>
