<svg width="61" height="56" viewBox="0 0 61 56" fill="none" xmlns="http://www.w3.org/2000/svg">
<path d="M53.9992 15.9035C52.3639 12.6738 50.1112 9.9099 47.2077 7.65843C42.1182 3.73001 36.2612 1.75803 29.6532 2.00647C21.0262 2.33254 14.1846 5.87278 9.12853 12.3943C8.92828 12.6582 8.89491 12.9067 8.92828 13.2017C9.14521 15.1116 9.34545 17.0059 9.57907 18.9158C9.62913 19.335 9.51232 19.6921 9.12853 19.9251C8.76142 20.158 8.37762 20.1114 8.01051 19.9095C7.3931 19.599 6.75901 19.304 6.1416 18.9779C5.85792 18.8226 5.74112 18.8381 5.641 19.1642C4.73991 21.9902 4.35612 24.8783 4.58973 27.8285C4.94015 32.2072 6.42527 36.2133 9.11184 39.8156C9.31208 40.0796 9.22865 40.1883 8.99503 40.3591C7.69347 41.2752 7.67678 41.2907 6.80907 39.9709C2.40377 33.2165 1.36919 26.0428 3.78877 18.4655C3.93895 18.0152 3.85551 17.8289 3.42166 17.627C2.68744 17.3165 1.9866 16.9283 1.26907 16.5867C0.851899 16.3848 0.534851 16.1364 0.534851 15.6706C0.534851 15.2047 0.851899 14.9408 1.25238 14.7389C3.10461 13.8228 4.94015 12.8756 6.79238 11.9595C7.05937 11.8198 7.25961 11.6645 7.42648 11.4316C12.1155 5.22063 18.4898 1.49406 26.5495 0.360566C38.4805 -1.30086 50.4616 4.66165 55.6679 14.8631C55.9182 15.36 56.1685 15.4376 56.6858 15.2824C57.4533 15.0495 58.2543 14.9097 59.0386 14.7079C59.4724 14.5992 59.8729 14.6147 60.19 14.9408C60.507 15.2513 60.5237 15.6084 60.3735 16.0122C59.656 17.891 58.9718 19.7698 58.271 21.6486C58.1709 21.9281 58.1375 22.1921 58.1876 22.4871C59.1721 29.1794 57.6202 35.3127 53.5653 40.9025C53.3484 41.2131 53.1815 41.2286 52.9145 40.9957C52.5474 40.6852 51.8633 40.5299 51.7965 40.1417C51.7465 39.8156 52.2304 39.4119 52.4807 39.0237C55.818 34.0239 57.0695 28.5893 56.2185 22.751C56.1685 22.4405 56.035 22.2231 55.7847 22.0213C54.2829 20.7946 52.7977 19.5524 51.3126 18.3102C50.9622 18.0152 50.6452 17.7046 50.7786 17.2233C50.8955 16.7575 51.2792 16.5556 51.7632 16.4625C52.4807 16.2917 53.2316 16.0898 53.9992 15.9035ZM57.9039 16.8972C56.4855 17.2388 55.1839 17.5494 53.7989 17.891C54.7835 18.7139 55.7012 19.4748 56.6524 20.2667C57.0695 19.1332 57.47 18.0618 57.9039 16.8972ZM7.00931 13.9781C5.85792 14.5681 4.78997 15.096 3.63859 15.6861C4.94015 16.3227 6.12491 16.8972 7.40979 17.5338C7.2763 16.2761 7.1428 15.1737 7.00931 13.9781Z" fill="#FF9A53"/>
<path d="M20.3429 30.3438C19.2582 30.3282 18.5407 29.9556 18.0568 29.2258C17.3226 28.1078 16.5884 26.9898 15.8708 25.8563C15.1533 24.7228 15.5204 23.4651 16.7386 22.813C16.9555 22.6888 17.1724 22.5801 17.3893 22.4869C17.6396 22.3782 17.7564 22.2074 17.7064 21.9279C17.5729 21.0273 17.5729 20.1112 17.7064 19.2106C17.7564 18.9311 17.6063 18.7914 17.3726 18.6516C15.17 17.3784 14.9864 16.6175 16.3047 14.5679C16.8554 13.7139 17.4227 12.8444 17.9734 11.9904C18.7743 10.7637 20.1093 10.4066 21.4442 11.1364C22.1284 11.509 22.6623 11.5246 23.2798 11.0432C23.7804 10.655 24.3978 10.36 25.0152 10.1582C25.6493 9.95631 25.8495 9.63023 25.8328 9.00914C25.8328 7.51851 26.8173 6.61792 28.4026 6.61792C28.4693 6.61792 28.5194 6.61792 28.5861 6.61792C29.9378 6.61792 31.2894 6.61792 32.641 6.61792C34.1261 6.61792 35.1607 7.51851 35.1107 8.90044C35.094 9.6147 35.3443 9.98736 36.0451 10.2203C36.796 10.4687 37.4635 10.8724 38.0976 11.3072C38.4313 11.5401 38.715 11.5401 39.0654 11.3538C39.4659 11.1209 39.8831 10.8724 40.367 10.8103C41.4683 10.6706 42.336 11.0122 42.9201 11.8972C43.6543 13.0152 44.3885 14.1332 45.106 15.2667C45.8069 16.3846 45.4731 17.5958 44.2884 18.279C44.1048 18.3877 43.9379 18.4964 43.7544 18.5585C43.3372 18.7137 43.2204 18.9467 43.2872 19.3659C43.4207 20.1267 43.4207 20.9186 43.2872 21.6795C43.2037 22.1608 43.3539 22.3937 43.8045 22.5801C44.3051 22.7819 44.7556 23.0614 45.056 23.4962C45.5732 24.257 45.6066 25.0179 45.1227 25.7942C44.3885 26.9433 43.671 28.0923 42.9034 29.2103C42.1525 30.3282 40.7842 30.6854 39.5493 30.0021C38.8151 29.5984 38.2645 29.5829 37.6137 30.0953C37.0463 30.5301 36.3455 30.8251 35.6446 31.0735C35.2608 31.2133 35.094 31.4151 35.1107 31.8033C35.1273 32.1449 35.1273 32.5021 35.0439 32.8437C34.7936 33.8064 33.8592 34.474 32.7411 34.474C31.2226 34.4896 29.7042 34.4896 28.1857 34.474C26.834 34.4585 25.7995 33.5269 25.8495 32.2536C25.8829 31.4928 25.6159 31.1046 24.8483 30.8562C24.1308 30.6232 23.48 30.2195 22.8626 29.7848C22.5289 29.5519 22.2452 29.5519 21.8948 29.7537C21.3775 30.0798 20.8435 30.3748 20.3429 30.3438ZM17.5061 24.7384C17.5729 24.8471 17.6396 24.9868 17.7398 25.1266C18.3238 26.0271 18.8911 26.9122 19.4752 27.8128C20.0092 28.6357 20.0258 28.6668 20.9436 28.1699C22.0116 27.5954 23.0295 27.6575 24.0307 28.3252C24.6147 28.7134 25.2321 29.086 25.9163 29.3189C27.2846 29.7848 27.9354 30.6698 27.8352 32.0362C27.8019 32.5021 27.9854 32.6884 28.5027 32.6884C29.7042 32.6573 30.9223 32.6729 32.1237 32.6729C33.1249 32.6729 33.1249 32.6729 33.1249 31.7723C33.1249 30.6698 33.6422 29.8779 34.7435 29.4587C35.411 29.1947 36.0952 28.9308 36.6625 28.5115C37.864 27.642 39.0654 27.5488 40.3336 28.3562C40.7675 28.6202 41.0678 28.5581 41.3515 28.1233C41.9355 27.1762 42.5696 26.229 43.187 25.2974C43.6042 24.6452 43.6042 24.6452 42.87 24.2725C42.7532 24.2104 42.6531 24.1639 42.5363 24.1017C41.5684 23.5738 41.1679 22.813 41.3014 21.7726C41.4016 20.9807 41.4016 20.1888 41.3014 19.3969C41.1846 18.4343 41.5684 17.7045 42.4361 17.1921C42.5863 17.0989 42.7532 17.0057 42.9201 16.9436C43.454 16.7418 43.5875 16.4778 43.2204 15.9809C42.603 15.1269 42.069 14.2419 41.5017 13.3568C40.9677 12.5494 40.9677 12.5338 40.0666 13.0152C38.982 13.6052 37.9474 13.5587 36.9295 12.8599C36.3622 12.4717 35.7614 12.1146 35.094 11.8972C33.6923 11.4314 33.0248 10.5308 33.1416 9.14888C33.1917 8.65201 32.9247 8.52779 32.4408 8.52779C31.2393 8.54331 30.0212 8.52779 28.8198 8.52779C27.8519 8.52779 27.8519 8.52779 27.8519 9.39732C27.8519 10.5463 27.3013 11.3538 26.1499 11.773C25.5158 12.0059 24.8817 12.2854 24.3477 12.6736C23.1296 13.5742 21.9114 13.6518 20.6266 12.8289C20.2261 12.5649 19.909 12.6425 19.6587 13.0618C19.1248 13.9313 18.5574 14.7853 17.9901 15.6393C17.2725 16.7107 17.3726 16.5244 18.3739 17.0678C19.4585 17.6579 19.8256 18.3566 19.6754 19.5212C19.592 20.251 19.592 20.9963 19.6921 21.7261C19.7255 21.99 19.7422 22.254 19.6921 22.5335C19.5252 23.4341 18.8578 23.9154 18.0568 24.3036C17.8399 24.3657 17.5729 24.4278 17.5061 24.7384Z" fill="#FF9A53"/>
<path d="M28.5016 49.2096C28.5016 51.2747 28.4849 53.3554 28.5182 55.4205C28.5182 55.8087 28.4014 55.9019 28.001 55.8864C26.4991 55.8708 26.4991 55.8864 26.4991 54.4889C26.4991 50.9642 26.4825 47.4395 26.5158 43.9303C26.5158 43.4489 26.4157 43.0607 25.9819 42.7812C25.9151 42.7347 25.865 42.6726 25.7983 42.6104C25.4979 42.2844 24.8138 41.9738 24.9139 41.6477C25.0641 41.1975 25.6314 40.8869 26.0152 40.4987C26.1821 40.3279 26.2989 40.4211 26.4157 40.5453C26.9997 41.0888 27.6005 41.6322 28.1845 42.1912C28.4515 42.4396 28.4849 42.7657 28.4849 43.1073C28.5016 45.1414 28.5016 47.1755 28.5016 49.2096Z" fill="#FF9A53"/>
<path d="M32.49 49.1939C32.49 47.1598 32.49 45.1257 32.49 43.0916C32.49 42.6724 32.6068 42.3463 32.9405 42.0513C33.4745 41.5855 33.9918 41.1041 34.4757 40.6072C34.726 40.3588 34.8595 40.3899 35.1098 40.6228C36.2278 41.6321 36.2445 41.6476 35.1265 42.6413C34.6592 43.0606 34.4757 43.4798 34.4757 44.1009C34.5091 47.8585 34.4757 51.6006 34.5091 55.3583C34.5091 55.8085 34.3756 55.8862 33.925 55.8862C32.49 55.8551 32.49 55.8862 32.49 54.5353C32.49 52.7497 32.49 50.9795 32.49 49.1939Z" fill="#FF9A53"/>
<path d="M46.4241 47.5171C44.8055 47.5016 43.4539 46.2283 43.4706 44.7222C43.4872 43.1694 44.8556 41.9272 46.5075 41.9428C48.1428 41.9583 49.4611 43.216 49.4611 44.7377C49.4611 46.2749 48.0928 47.5326 46.4241 47.5171ZM47.4754 44.7222C47.4754 44.2098 47.0415 43.8061 46.4909 43.7905C45.9235 43.775 45.4563 44.2253 45.473 44.7532C45.4896 45.2501 45.9402 45.6693 46.4909 45.6538C47.0248 45.6538 47.4754 45.2346 47.4754 44.7222Z" fill="#FF9A53"/>
<path d="M24.4963 38.2316C24.4963 39.7378 23.1446 40.9955 21.5093 40.9955C19.8406 40.9955 18.489 39.7378 18.5057 38.185C18.5057 36.6633 19.8573 35.4211 21.4926 35.4211C23.1446 35.4211 24.4963 36.6944 24.4963 38.2316ZM22.4938 38.2161C22.4938 37.7192 22.0433 37.3 21.5093 37.3C20.9753 37.3 20.5081 37.7037 20.5081 38.2005C20.4914 38.7285 20.9587 39.1632 21.526 39.1477C22.06 39.1322 22.5105 38.7129 22.4938 38.2161Z" fill="#FF9A53"/>
<path d="M42.4845 38.2627C42.4678 39.7689 41.1162 41.0266 39.4809 41.0111C37.8122 40.9956 36.4773 39.7379 36.494 38.1851C36.5107 36.6634 37.8623 35.4368 39.4976 35.4368C41.1496 35.4368 42.4845 36.71 42.4845 38.2627ZM39.4809 39.1478C40.0149 39.1478 40.4654 38.7441 40.4821 38.2472C40.4988 37.7503 40.065 37.3156 39.531 37.3001C38.9636 37.2845 38.4964 37.7038 38.4964 38.2317C38.4964 38.7286 38.9303 39.1478 39.4809 39.1478Z" fill="#FF9A53"/>
<path d="M14.5191 41.9428C16.1878 41.9583 17.5227 43.216 17.506 44.7688C17.4893 46.2904 16.1377 47.5171 14.5024 47.5171C12.8504 47.5171 11.4988 46.2439 11.5155 44.6911C11.5322 43.185 12.9005 41.9272 14.5191 41.9428ZM14.4857 45.6538C15.0197 45.6693 15.4869 45.2656 15.5036 44.7532C15.5203 44.2253 15.0531 43.7905 14.4857 43.7905C13.9517 43.7905 13.5012 44.2098 13.5012 44.7222C13.5179 45.219 13.9517 45.6383 14.4857 45.6538Z" fill="#FF9A53"/>
<path d="M21.5109 52.5013C21.5109 53.495 21.4942 54.4732 21.5109 55.467C21.5109 55.7775 21.4442 55.8862 21.0771 55.8862C19.5085 55.9018 19.5085 55.9173 19.5085 54.4422C19.5085 53.0447 19.4918 51.6628 19.5252 50.2653C19.5252 49.9082 19.4585 49.6287 19.1414 49.4113C19.0246 49.3337 18.9412 49.225 18.8244 49.1318C17.7064 48.0915 17.723 47.9517 19.0246 47.0356C19.2082 46.9114 19.2916 46.9425 19.4251 47.0667C20.0258 47.6257 20.6265 48.1846 21.2273 48.7592C21.4609 48.9765 21.5109 49.256 21.5109 49.5666C21.4942 50.5293 21.5109 51.523 21.5109 52.5013Z" fill="#FF9A53"/>
<path d="M40.4823 55.8862C39.4977 55.8862 39.4977 55.8862 39.4977 54.9545C39.4977 53.1689 39.4977 51.3988 39.4977 49.6131C39.4977 49.1939 39.6145 48.8678 39.9483 48.5728C40.4656 48.107 40.9995 47.6256 41.4835 47.1287C41.7338 46.8803 41.8673 46.9113 42.1176 47.1443C43.2356 48.1535 43.2523 48.1691 42.1342 49.1628C41.667 49.5821 41.4668 50.0013 41.4835 50.6224C41.5335 52.1441 41.4668 53.6813 41.5168 55.203C41.5335 55.8085 41.3333 55.9949 40.7326 55.8862C40.6491 55.8706 40.5657 55.8862 40.4823 55.8862Z" fill="#FF9A53"/>
<path d="M30.5201 14.0554C34.3914 14.0709 37.5119 17.0056 37.4952 20.6235C37.4785 24.1793 34.308 27.0829 30.4534 27.0674C26.582 27.0363 23.4783 24.1016 23.5117 20.4682C23.5284 16.928 26.6988 14.0244 30.5201 14.0554ZM30.5034 15.9187C27.7501 15.9187 25.4974 17.9994 25.4974 20.5614C25.4974 23.1234 27.7334 25.2196 30.4867 25.2196C33.2401 25.2196 35.4761 23.1389 35.4928 20.5769C35.4928 18.0149 33.2567 15.9187 30.5034 15.9187Z" fill="#FF9A53"/>
</svg>
