<svg width="61" height="56" viewBox="0 0 61 56" fill="none" xmlns="http://www.w3.org/2000/svg">
<path d="M33.3801 38.2204C24.974 38.2204 16.5955 38.2204 8.18948 38.2204C3.58682 38.2204 0.527561 35.4276 0.527561 31.1876C0.527561 22.5552 0.527561 13.9229 0.5 5.31593C0.5 4.37652 0.748048 4.12263 1.79536 4.14802C9.5124 4.1988 17.2019 4.14802 24.9189 4.1988C25.9662 4.1988 26.4072 3.99569 26.2694 2.98011C26.1867 2.44694 26.2418 1.88838 26.2694 1.32981C26.2694 0.466577 26.8757 0.111128 27.675 0.0857384C28.4743 0.0603491 29.1082 0.415799 29.1633 1.25364C29.1633 1.38059 29.1633 1.50754 29.1633 1.63448C29.246 4.17341 29.246 4.17341 32.0847 4.17341C38.9198 4.17341 45.7549 4.17341 52.59 4.17341C57.4407 4.17341 60.4724 6.94084 60.4724 11.4094C60.4724 19.9401 60.4449 28.4963 60.5 37.0271C60.5 38.0427 60.1968 38.2458 59.1495 38.2458C50.5505 38.195 41.9515 38.2204 33.3801 38.2204ZM32.1123 35.5292C40.1876 35.5292 48.263 35.5038 56.3383 35.5545C57.3029 35.5545 57.6612 35.4276 57.6337 34.412C57.5785 26.7445 57.6061 19.1023 57.6061 11.4347C57.6061 8.54037 55.8422 6.89006 52.7003 6.89006C36.6874 6.89006 20.6746 6.89006 4.66169 6.86467C3.50413 6.86467 3.36633 7.22012 3.36633 8.13414C3.39389 15.6748 3.39389 23.19 3.39389 30.7306C3.39389 34.0058 5.04754 35.5292 8.57533 35.5292C16.4026 35.5292 24.2575 35.5292 32.1123 35.5292Z" fill="#FF9A53"/>
<path d="M10.9998 54.5454C10.9447 54.0122 11.3029 53.6568 11.6888 53.2759C15.878 49.0359 20.0397 44.8213 24.229 40.5813C24.9456 39.8704 25.7173 39.3118 26.6543 40.1751C27.4812 40.9367 27.0953 41.6984 26.4063 42.3839C22.1895 46.6493 17.9727 50.9147 13.7559 55.1801C13.2873 55.6625 12.7637 56.0941 11.992 55.8403C11.3856 55.6117 10.9998 55.2309 10.9998 54.5454Z" fill="#FF9A53"/>
<path d="M49.1184 55.891C48.3742 55.9164 47.9884 55.6118 47.6576 55.2563C43.3581 50.8894 39.0586 46.5224 34.7592 42.1808C34.0701 41.4699 33.9323 40.759 34.7316 40.0989C35.5033 39.4642 36.2474 39.7181 36.8813 40.3782C41.1808 44.7452 45.4803 49.1121 49.8074 53.4537C50.331 53.9615 50.4964 54.5454 50.1657 55.1801C49.9176 55.6118 49.4491 55.8149 49.1184 55.891Z" fill="#FF9A53"/>
<path d="M45.259 16.2586C45.259 18.4421 45.3968 20.6256 45.2314 22.809C44.9007 27.4807 41.18 31.5683 36.4395 32.7109C35.3922 32.9648 34.5654 32.8378 34.2622 31.8222C33.9866 30.8574 34.6481 30.4004 35.6127 30.0958C39.8846 28.8263 42.3375 25.8558 42.4753 21.7681C42.5305 19.9147 42.4753 18.0612 42.4753 16.2078C41.9792 16.1317 41.8966 16.5379 41.7036 16.7664C40.6012 17.9597 39.5539 19.1784 38.479 20.3717C37.8727 21.0318 37.1285 21.0826 36.4119 20.5748C35.7505 20.0924 35.6402 19.4069 36.1915 18.7721C38.3963 16.2332 40.6012 13.7197 42.8612 11.2315C43.5226 10.4952 44.4322 10.5206 45.1212 11.2823C47.326 13.7197 49.4758 16.1571 51.6255 18.6198C52.2319 19.3053 52.2319 20.067 51.4326 20.6002C50.6334 21.1334 49.8892 20.8795 49.2829 20.1939C48.0978 18.8229 46.8851 17.5027 45.6724 16.1317C45.507 16.1824 45.3692 16.2332 45.259 16.2586Z" fill="#FF9A53"/>
<path d="M19.8758 17.0712C16.5134 17.0712 13.1785 17.0712 9.81606 17.0712C8.74119 17.0712 7.66632 16.995 7.69388 15.7001C7.72144 14.4814 8.71363 14.4053 9.76094 14.4053C16.4582 14.4307 23.1555 14.4053 29.8528 14.4053C30.9001 14.4053 31.975 14.3545 32.0301 15.7001C32.0852 16.6903 31.4238 17.0712 29.7701 17.0712C26.4904 17.0712 23.1831 17.0712 19.8758 17.0712Z" fill="#FF9A53"/>
<path d="M19.9302 23.1897C23.3202 23.1897 26.7101 23.1897 30.1277 23.1897C31.1474 23.1897 32.0294 23.342 32.0569 24.4845C32.0845 25.6778 31.175 25.881 30.1001 25.881C23.3202 25.8556 16.5126 25.8556 9.73265 25.881C8.65777 25.881 7.7207 25.7286 7.7207 24.5353C7.7207 23.3166 8.71289 23.2151 9.76021 23.2151C13.1502 23.2151 16.5402 23.1897 19.9302 23.1897Z" fill="#FF9A53"/>
</svg>
