<svg width="59" height="53" viewBox="0 0 59 53" fill="none" xmlns="http://www.w3.org/2000/svg">
<path d="M40.501 32.25C40.501 34.5281 42.3479 36.375 44.626 36.375C46.9041 36.375 48.751 34.5281 48.751 32.25C48.751 29.9719 46.9041 28.125 44.626 28.125C42.3479 28.125 40.501 29.9719 40.501 32.25Z" stroke="#FF9A53" stroke-width="3"/>
<path d="M24 13H40.5C48.2781 13 52.1672 13 54.5836 15.4164C57 17.8327 57 21.7219 57 29.5V35C57 42.7781 57 46.6672 54.5836 49.0836C52.1672 51.5 48.2781 51.5 40.5 51.5H24C13.6291 51.5 8.44366 51.5 5.22182 48.2781C2 45.0565 2 39.8708 2 29.5V24C2 13.6291 2 8.44366 5.22182 5.22182C8.44366 2 13.6291 2 24 2H35C37.5575 2 38.8363 2 39.8854 2.28111C42.7322 3.04396 44.9561 5.26774 45.719 8.11473C46 9.16386 46 10.4426 46 13" stroke="#FF9A53" stroke-width="3" stroke-linecap="round"/>
</svg>
