<svg width="100" height="100" viewBox="0 0 100 100" fill="none" xmlns="http://www.w3.org/2000/svg">
<g clip-path="url(#clip0_2938_3513)">
<mask id="mask0_2938_3513" style="mask-type:luminance" maskUnits="userSpaceOnUse" x="0" y="0" width="100" height="100">
<path d="M100 50C100 22.3858 77.6142 0 50 0C22.3858 0 0 22.3858 0 50C0 77.6142 22.3858 100 50 100C77.6142 100 100 77.6142 100 50Z" fill="white"/>
</mask>
<g mask="url(#mask0_2938_3513)">
<path d="M100 0H0V100H100V0Z" fill="#FFB238"/>
<path d="M93.521 15.0338C67.484 -0.610815 33.6944 7.81389 18.0498 33.8509C2.40513 59.8879 10.8298 93.6776 36.8669 109.322C62.9039 124.967 96.6935 116.542 112.338 90.5051C127.983 64.4681 119.558 30.6784 93.521 15.0338Z" fill="#49007E"/>
<path d="M22.3213 64.1309C22.3695 66.8931 23.8788 69.5167 26.5172 71.4244C29.1555 73.3322 32.7069 74.3678 36.3899 74.3035C40.0729 74.2393 43.5859 73.0803 46.156 71.0816C48.7262 69.083 50.1431 66.4083 50.0948 63.6461" fill="white"/>
<path d="M26.2448 50.1714C26.218 48.6375 25.2637 47.4104 24.1133 47.4304C22.9629 47.4505 22.052 48.7103 22.0788 50.2442C22.1055 51.778 23.0598 53.0052 24.2102 52.9851C25.3607 52.9651 26.2716 51.7053 26.2448 50.1714Z" fill="white"/>
<path d="M48.4635 49.7837C48.4368 48.2498 47.4825 47.0227 46.332 47.0427C45.1816 47.0628 44.2707 48.3226 44.2975 49.8565C44.3243 51.3903 45.2786 52.6175 46.429 52.5975C47.5794 52.5774 48.4903 51.3176 48.4635 49.7837Z" fill="white"/>
</g>
</g>
<defs>
<clipPath id="clip0_2938_3513">
<rect width="100" height="100" fill="white"/>
</clipPath>
</defs>
</svg>
