<svg width="57" height="57" viewBox="0 0 57 57" fill="none" xmlns="http://www.w3.org/2000/svg">
<path d="M28.8101 1.15625C28.9655 1.46875 29.1209 1.46875 29.2762 1.78125C31.4514 3.96875 33.7819 6.3125 35.957 8.5C36.1124 8.65625 36.1124 8.65625 36.2678 8.8125C36.4231 9.125 36.5785 9.4375 36.4231 9.75C36.2678 9.90625 35.957 10.0625 35.6463 10.0625C34.7141 10.0625 33.9373 10.0625 33.0051 10.0625C32.3836 10.0625 32.2282 10.2188 32.2282 10.8438C32.2282 12.0938 32.2282 13.5 32.2282 14.75C32.2282 15.2188 32.3836 15.5313 32.8497 15.6875C33.4712 15.8438 34.0926 16.1563 34.5587 16.4688C35.0248 16.7813 35.1802 17.25 35.0248 17.7188C34.8695 18.1875 34.4034 18.3438 33.7819 18.0313C33.0051 17.7188 32.3836 17.4063 31.6067 17.25C30.9853 17.0938 30.6745 16.7813 30.6745 16.1563C30.6745 14.125 30.6745 12.0938 30.6745 10.0625C30.6745 8.96875 30.9853 8.8125 31.9175 8.8125C32.2282 8.8125 32.6943 8.8125 33.0051 8.8125C33.1604 8.8125 33.3158 8.8125 33.3158 8.65625C33.3158 8.5 33.3158 8.5 33.1604 8.34375C31.6067 6.78125 30.0531 5.21875 28.6548 3.8125C28.4994 3.65625 28.1887 3.65625 28.0333 3.8125C26.4796 5.375 25.0813 6.9375 23.5277 8.34375C23.5277 8.34375 23.3723 8.5 23.3723 8.65625C23.683 8.5 23.8384 8.5 23.9938 8.5C24.4599 8.5 24.926 8.5 25.3921 8.5C26.0135 8.5 26.3243 8.8125 26.3243 9.28125C26.3243 9.75 26.0135 10.0625 25.3921 10.0625C24.1491 10.0625 22.7508 10.0625 21.5079 10.0625C21.0418 10.0625 20.5757 10.0625 20.4203 9.59375C20.265 9.125 20.4203 8.8125 20.7311 8.5C23.0616 6.15625 25.3921 3.8125 27.7226 1.46875C27.8779 1.3125 28.0333 1.15625 28.0333 1C28.344 1.15625 28.4994 1.15625 28.8101 1.15625Z" fill="#FF9A53" stroke="#FF9A53" stroke-width="0.5" stroke-miterlimit="10"/>
<path d="M1.31073 28.1876C1.62147 28.0313 1.77684 27.8751 2.08757 27.7188C4.26271 25.5313 6.43785 23.3438 8.61298 21.1563C8.76835 21.0001 8.92372 20.8438 8.92372 20.8438C9.23445 20.5313 9.54519 20.5313 9.85592 20.6876C10.0113 20.5313 10.1667 20.8438 10.1667 21.1563C10.1667 21.9376 10.1667 22.8751 10.1667 23.6563C10.1667 24.5938 10.1667 24.5938 11.0989 24.5938C12.4972 24.5938 12.4972 24.5938 12.4972 26.0001C12.4972 27.7188 12.4972 29.2813 12.4972 31.0001C12.4972 31.9376 12.1864 32.2501 11.2542 32.2501C9.85592 32.2501 9.85592 32.0938 9.85592 33.6563C9.85592 34.2813 9.85592 34.9063 9.85592 35.5313C9.85592 36.0001 9.85592 36.3126 9.38982 36.6251C8.92372 36.7813 8.61298 36.6251 8.30225 36.3126C6.12711 34.1251 3.95197 31.9376 1.77684 29.7501C1.62147 29.5938 1.31073 29.2813 1 29.2813C1.31073 28.8126 1.31073 28.5001 1.31073 28.1876ZM11.0989 28.5001C11.0989 27.8751 11.0989 27.4063 11.0989 26.7813C11.0989 26.3126 10.9435 26.1563 10.4774 26.1563C10.1667 26.1563 9.70055 26.1563 9.38982 26.1563C8.76835 26.1563 8.61298 25.8438 8.45762 25.2188C8.45762 24.7501 8.45762 24.2813 8.45762 23.8126C8.45762 23.6563 8.45762 23.5001 8.30225 23.3438C8.14688 23.3438 7.99152 23.5001 7.99152 23.6563C6.74858 24.9063 5.35028 26.3126 4.10734 27.5626C3.17514 28.5001 3.17514 28.3438 4.10734 29.4376C5.50564 30.6876 6.74858 31.9376 7.99152 33.1876C8.14688 33.3438 8.14688 33.5001 8.30225 33.5001C8.45762 33.5001 8.45762 33.1876 8.45762 33.0313C8.45762 32.5626 8.45762 32.2501 8.45762 31.7813C8.45762 31.1563 8.76835 30.8438 9.38982 30.8438C9.70055 30.8438 10.1667 30.8438 10.4774 30.8438C10.9435 30.8438 11.0989 30.6876 11.0989 30.2188C11.0989 29.5938 11.0989 28.9688 11.0989 28.5001Z" fill="#FF9A53" stroke="#FF9A53" stroke-width="0.5" stroke-miterlimit="10"/>
<path d="M28.1896 56C28.0342 55.6875 27.8788 55.5313 27.7235 55.375C25.5483 53.1875 23.2178 50.8438 21.0427 48.6563L20.8873 48.5C20.5766 48.1875 20.4212 47.875 20.5766 47.4063C20.7319 46.9375 21.0427 46.9375 21.5088 46.9375C22.2856 46.9375 23.0624 46.9375 23.6839 46.9375C24.6161 46.9375 24.6161 46.9375 24.6161 46C24.6161 45.5313 24.6161 45.0625 24.6161 44.5938C24.6161 44.4375 24.6161 44.125 24.6161 43.9688C24.7715 43.5 24.9269 43.3438 25.393 43.3438C25.8591 43.3438 26.1698 43.6563 26.1698 43.9688C26.3252 45.2188 26.3252 46.4688 26.1698 47.875C26.1698 48.3438 25.7037 48.5 25.2376 48.6563C24.7715 48.6563 24.3054 48.6563 23.8393 48.6563C23.6839 48.6563 23.6839 48.6562 23.5286 48.8125C23.3732 48.9688 23.5285 48.9688 23.6839 49.125C25.2376 50.6875 26.6359 52.0938 28.1896 53.6563C28.5003 53.9688 28.6557 53.9688 28.9664 53.6563C30.3647 52.0938 31.9184 50.6875 33.3167 49.125C33.472 48.9688 33.472 48.9688 33.472 48.8125C33.472 48.6562 33.3167 48.6563 33.1613 48.6563C32.6952 48.6563 32.2291 48.6563 31.763 48.6563C31.1415 48.6563 30.8308 48.3438 30.8308 47.7188C30.8308 46.625 30.8308 45.375 30.8308 44.2813C30.8308 43.8125 31.1415 43.3438 31.6076 43.3438C32.0737 43.3438 32.3845 43.6563 32.3845 44.2813C32.3845 44.9063 32.3845 45.6875 32.3845 46.3125C32.3845 46.7813 32.5398 46.9375 33.0059 46.9375C33.7828 46.9375 34.5596 46.9375 35.3364 46.9375C35.6472 46.9375 36.1133 46.9375 36.424 47.4063C36.5794 47.875 36.424 48.1875 35.9579 48.6563C34.2489 50.375 32.5398 52.0938 30.8308 53.8125C30.054 54.5938 29.2771 55.2188 28.6557 56C28.5003 56 28.3449 56 28.1896 56Z" fill="#FF9A53" stroke="#FF9A53" stroke-width="0.5" stroke-miterlimit="10"/>
<path d="M55.8451 29.1255C55.5344 29.1255 55.379 29.438 55.2236 29.5943C53.0485 31.7818 51.0287 33.813 48.8536 36.0005C48.6982 36.1568 48.5428 36.313 48.3875 36.4693C47.9214 36.938 47.1445 36.6255 47.1445 36.0005C47.1445 35.8443 47.1445 35.5318 47.1445 35.3755C47.1445 30.8443 47.1445 26.1568 47.1445 21.6255C47.1445 21.4693 47.1445 21.313 47.1445 21.1568C47.1445 20.5318 47.766 20.2193 48.3875 20.5318C48.5428 20.688 48.6982 20.8443 48.8536 21.0005C51.0287 23.188 53.0485 25.2193 55.2236 27.4068C55.379 27.563 55.6897 27.8755 56.0005 27.8755C55.8451 28.3443 55.8451 28.813 55.8451 29.1255ZM48.5428 28.5005C48.5428 30.063 48.5428 31.6255 48.5428 33.0318C48.5428 33.188 48.5428 33.3443 48.6982 33.5005C48.8536 33.5005 49.0089 33.3443 49.0089 33.3443C50.4072 31.938 51.9609 30.5318 53.3592 29.1255C53.6699 28.813 53.8253 28.6568 53.3592 28.188C51.8055 26.7818 50.4072 25.2193 49.0089 23.813C48.8536 23.6568 48.8536 23.5005 48.6982 23.6568C48.5428 23.6568 48.5428 23.9693 48.5428 24.1255C48.5428 25.5318 48.5428 27.0943 48.5428 28.5005Z" fill="#FF9A53" stroke="#FF9A53" stroke-width="0.5" stroke-miterlimit="10"/>
<path d="M26.7911 14.4375C26.7911 14.9063 26.7911 15.5313 26.7911 16C26.7911 16.625 26.6357 16.9375 26.0143 17.0938C25.3928 17.25 24.616 17.5625 23.9945 17.875C19.955 19.9062 17.6245 23.1875 17.3137 27.875C17.1583 30.0625 17.4691 32.0937 18.5567 33.9687C18.8674 34.5937 18.8674 34.5937 19.1781 33.9687C19.7996 33.1875 20.5764 32.5625 21.5086 32.25C22.4408 31.9375 23.373 31.625 24.3052 31.3125C24.616 31.1563 24.9267 31.1562 25.0821 30.8437C25.7035 30.2187 25.7035 29.9062 25.2374 29.2812C23.8391 27.4062 23.5284 25.5312 24.1499 23.3438C24.9267 20.8437 27.5679 19.4375 30.2092 20.2188C32.2289 20.8438 33.6273 22.5625 33.7826 24.5938C33.938 26.4688 33.4719 28.0312 32.229 29.4375C31.9182 29.75 31.9182 30.0625 32.229 30.375C32.5397 30.8438 33.0058 31.1563 33.6273 31.4688C34.5595 31.7813 35.4917 32.0937 36.4239 32.4062C36.5792 32.4062 36.5792 32.5625 36.7346 32.5625C37.3561 32.875 37.5114 33.3438 37.3561 33.6563C37.2007 34.125 36.7346 34.2812 36.1131 34.125C35.4917 33.9687 34.8702 33.6563 34.0934 33.5C33.7826 33.3437 33.4719 33.5 33.1612 33.8125C31.7628 35.8438 29.1216 36.3125 27.1018 35.6875C26.6357 35.5312 26.4804 35.2187 26.4804 34.75C26.4804 34.2812 26.7911 34.125 27.2572 34.125C27.8787 34.125 28.3448 34.2812 28.9662 34.2812C29.8984 34.2812 30.6753 33.9687 31.4521 33.1875C31.7628 32.875 31.7628 32.5625 31.4521 32.4062C31.2967 32.25 31.1414 32.0938 30.986 31.9375C30.6753 31.3125 30.2092 31.1563 29.4323 31.3125C28.8109 31.4688 28.034 31.4688 27.4126 31.3125C26.9465 31.1563 26.7911 31.3125 26.4804 31.625C25.8589 32.7187 24.9267 33.1875 23.6838 33.3437C22.5962 33.5 21.664 33.9688 20.5764 34.4375C20.1103 34.5938 19.7996 35.0625 19.6442 35.5312C19.3335 36.1562 19.3335 36.625 19.955 37.0937C26.325 43.6562 37.0453 41 39.8419 32.25C40.1527 31.1563 40.308 31.1562 41.3956 31.1562C43.1046 31.1562 42.9493 31.3125 42.9493 29.5938C42.9493 29.4375 42.9493 29.2813 42.9493 29.125C43.1046 28.3438 43.7261 28.0312 44.3476 28.5C44.8137 28.8125 45.2798 29.2813 45.1244 29.9063C45.1244 30.5313 45.1244 31.1562 45.1244 31.7812C45.1244 32.5625 44.8137 32.7188 44.0368 32.875C43.5707 32.875 43.1046 32.875 42.4832 32.875C42.0171 32.875 41.7063 33.0312 41.551 33.5C40.4634 36.3125 38.7544 38.6562 36.2685 40.2187C31.1414 43.6562 24.3052 43.0312 19.7996 38.9688C16.8476 36.3125 15.2939 32.875 15.2939 28.9688C15.4493 23.0313 18.8674 17.875 24.1499 15.8437C25.0821 15.5312 25.0821 15.5313 25.0821 14.4375C25.0821 13.8125 25.0821 13.1875 25.0821 12.5625C25.0821 11.9375 25.3928 11.625 25.8589 11.625C26.325 11.625 26.6357 11.9375 26.6357 12.5625C26.7911 13.1875 26.7911 13.8125 26.7911 14.4375ZM25.0821 25.0625C25.0821 26.1563 25.3928 27.0937 25.8589 27.875C27.2572 29.9062 29.8984 29.9062 31.1414 27.875C31.9182 26.4687 32.0736 25.0625 31.6075 23.6562C31.4521 23.0312 30.986 22.5625 30.5199 22.25C29.277 21.4688 28.034 21.4687 26.7911 22.0937C25.5482 22.7187 25.2374 23.8125 25.0821 25.0625Z" fill="#FF9A53" stroke="#FF9A53" stroke-width="0.5" stroke-miterlimit="10"/>
<path d="M42.483 26.3129C42.0169 26.3129 41.5508 26.3129 41.0847 26.3129C40.6186 26.3129 40.3079 26.1567 40.1525 25.6879C39.6864 23.8129 38.9096 22.2504 37.6666 20.8442C37.3559 20.3754 37.3559 19.9067 37.6666 19.5942C37.9774 19.2817 38.4435 19.4379 38.9096 19.7504C39.9971 21.0004 40.774 22.4067 41.2401 23.9692C41.3955 24.4379 41.7062 24.7504 42.3277 24.7504C42.7938 24.7504 43.4152 24.7504 43.8813 24.7504C44.5028 24.7504 44.8135 25.2192 44.8135 25.5317C44.8135 26.0004 44.5028 26.1567 43.8813 26.3129C43.5706 26.3129 43.4152 26.3129 43.1045 26.3129C42.9491 26.3129 42.6384 26.3129 42.483 26.3129Z" fill="#FF9A53" stroke="#FF9A53" stroke-width="0.5" stroke-miterlimit="10"/>
</svg>
