<svg width="59" height="59" viewBox="0 0 59 59" fill="none" xmlns="http://www.w3.org/2000/svg">
<path d="M29.5 57.001L24 40.501H2L7.5 57.001H29.5ZM29.5 57.001H40.5" stroke="#FF9A53" stroke-width="3" stroke-linecap="round" stroke-linejoin="round"/>
<path d="M29.501 32.251V30.876C29.501 25.6906 29.501 23.0978 27.89 21.4869C26.2791 19.876 23.6864 19.876 18.501 19.876C13.3155 19.876 10.7228 19.876 9.1119 21.4869C7.50098 23.0978 7.50098 25.6906 7.50098 30.876V32.251" stroke="#FF9A53" stroke-width="3" stroke-linecap="round" stroke-linejoin="round"/>
<path d="M48.75 32.25C48.75 35.2876 46.2876 37.75 43.25 37.75C40.2124 37.75 37.75 35.2876 37.75 32.25C37.75 29.2123 40.2124 26.75 43.25 26.75C46.2876 26.75 48.75 29.2123 48.75 32.25Z" stroke="#FF9A53" stroke-width="3"/>
<path d="M24 7.5C24 10.5376 21.5376 13 18.5 13C15.4624 13 13 10.5376 13 7.5C13 4.46243 15.4624 2 18.5 2C21.5376 2 24 4.46243 24 7.5Z" stroke="#FF9A53" stroke-width="3"/>
<path d="M35 44.626H51.5C54.5376 44.626 57 47.0883 57 50.126V51.501C57 54.5386 54.5376 57.001 51.5 57.001H48.75" stroke="#FF9A53" stroke-width="3" stroke-linecap="round"/>
</svg>
