<svg width="55" height="53" viewBox="0 0 55 53" fill="none" xmlns="http://www.w3.org/2000/svg">
<path d="M0 14.3836C0.561468 12.9439 1.31823 11.678 2.90498 11.1567C5.6635 10.2383 8.49525 12.1993 8.54407 15.1531C8.5929 17.7842 8.56848 20.4401 8.54407 23.0961C8.54407 23.7166 8.59289 24.0393 9.34966 24.1138C10.5458 24.2131 11.4002 25.0322 12.2058 25.8761C13.939 27.6881 15.5502 29.6242 18.1623 30.1455C19.1631 30.3441 20.164 30.493 21.1405 30.7164C24.1431 31.3618 26.3402 34.0177 26.3646 37.1453C26.4134 41.7373 26.3646 46.3046 26.389 50.8966C26.389 51.964 25.9007 52.3611 24.8999 52.3611C21.409 52.3363 17.9181 52.3363 14.4273 52.3611C13.3288 52.3611 12.8893 51.8895 12.9382 50.7973C12.987 49.308 12.9138 47.8187 12.9626 46.3294C12.987 45.5847 12.7185 45.2124 12.1082 44.9394C10.7899 44.3188 9.49613 43.599 8.1779 42.9784C3.95468 40.8934 1.36705 37.5673 0.29294 33C0.244116 32.7518 0.341763 32.4043 0 32.2554C0 26.2981 0 20.3409 0 14.3836ZM24.2408 43.3259C24.2408 41.3898 24.2652 39.4537 24.2163 37.4928C24.1431 34.7624 22.7516 33.0497 20.0908 32.7022C16.5999 32.2554 13.5729 30.8902 11.3026 28.0356C11.0341 27.6881 10.6679 27.3903 10.3505 27.0676C9.20319 25.9506 7.9826 25.8513 7.03055 26.8194C6.05408 27.8122 6.15173 28.9541 7.32349 30.1703C8.95907 31.8582 10.5946 33.4965 12.2302 35.1595C12.7673 35.7056 13.1335 36.3262 12.4988 36.9715C11.8641 37.5921 11.2538 37.2446 10.7167 36.6737C9.0323 34.9361 7.32349 33.2482 5.63909 31.4859C3.71057 29.4753 3.80821 26.7945 5.8832 24.9577C6.2982 24.5854 6.44467 24.2379 6.44467 23.6918C6.42026 21.011 6.44467 18.3303 6.42026 15.6247C6.39585 14.0361 5.54144 13.0432 4.24762 13.0432C2.9294 13.0432 2.0994 14.0113 2.0994 15.6247C2.0994 20.4153 2.05058 25.2059 2.0994 29.9966C2.14822 34.9361 4.46733 38.5353 8.73936 40.8189C10.4238 41.7125 12.1326 42.5565 13.8414 43.4004C14.5982 43.7727 14.9399 44.2444 14.9155 45.1131C14.8423 46.4783 14.9399 47.8435 14.8911 49.2087C14.8667 49.9038 15.0864 50.1271 15.7699 50.1023C18.2843 50.0527 20.7987 50.0527 23.3375 50.1023C24.021 50.1023 24.2408 49.9038 24.2163 49.2087C24.2163 47.2975 24.2408 45.3117 24.2408 43.3259Z" fill="#FF9A53"/>
<path d="M54.8782 32.2565C54.2435 33.5721 54.1459 35.0862 53.438 36.377C53.0474 37.072 52.6568 37.7422 51.7536 37.2457C50.9236 36.799 51.1677 36.1039 51.5094 35.4337C52.3638 33.721 52.7544 31.8842 52.7544 29.9481C52.7544 25.2319 52.7544 20.5158 52.7544 15.8244C52.7544 14.1117 51.9489 13.1188 50.6062 13.1188C49.288 13.1188 48.458 14.1365 48.4336 15.8493C48.4092 18.4556 48.4336 21.0619 48.4336 23.6682C48.4336 24.2391 48.5312 24.6362 49.0195 25.0582C51.0456 26.8205 51.1921 29.551 49.3368 31.4871C47.6524 33.2742 45.8948 34.987 44.186 36.7493C43.6489 37.3202 43.0386 37.6677 42.4039 37.0223C41.7692 36.377 42.1354 35.7564 42.6968 35.2103C44.308 33.5721 45.9192 31.9587 47.5303 30.2956C48.7753 29.0297 48.873 27.8631 47.8721 26.8454C46.8956 25.8525 45.6995 26.0014 44.4789 27.2177C44.1615 27.5404 43.8198 27.8382 43.5268 28.1857C41.2566 31.0899 38.1807 32.331 34.6654 32.7778C32.4684 33.0508 30.8572 34.5898 30.784 36.8486C30.6375 41.0931 30.7107 45.3625 30.6863 49.6071C30.6863 50.1531 30.9548 50.2028 31.3698 50.2028C34.0063 50.2028 36.6428 50.178 39.3036 50.2028C39.9627 50.2028 40.0116 49.9049 40.0116 49.3588C39.9871 47.944 40.036 46.554 39.9872 45.1391C39.9627 44.3945 40.1824 43.898 40.8904 43.5753C42.0621 43.0293 43.2095 42.4087 44.3812 41.813C45.0404 41.4655 45.6995 41.4406 46.0656 42.1605C46.4562 42.9051 46.0168 43.4016 45.3333 43.6994C45.2845 43.7243 45.2601 43.7491 45.2357 43.7491C42.2818 44.4441 41.7936 46.4795 42.0133 49.2596C42.2574 52.4119 42.3551 52.3623 39.0351 52.3375C36.1057 52.3126 33.1763 52.3375 30.2469 52.3375C28.9043 52.3375 28.6113 52.0396 28.6113 50.6744C28.6113 46.3057 28.6113 41.9123 28.6113 37.5436C28.6113 33.8451 30.9304 31.0154 34.5434 30.5686C37.546 30.1963 40.036 29.0793 42.0377 26.6964C43.1118 25.4305 44.2348 24.1398 46.1145 24.0405C46.6759 24.0157 46.4074 23.4448 46.4074 23.1221C46.4318 20.6399 46.4074 18.1577 46.4318 15.6755C46.4318 13.1437 47.7745 11.3813 50.0447 10.9593C51.9 10.6118 54.39 11.9026 54.8294 14.2358C54.8294 14.3103 54.9271 14.3351 55.0003 14.4096C54.8782 20.342 54.8782 26.2993 54.8782 32.2565Z" fill="#FF9A53"/>
<path d="M28.3664 13.0936C31.1005 13.5403 33.1755 14.6325 34.7866 16.5686C36.2513 18.331 37.0081 20.3912 37.0569 22.6996C37.0813 24.1145 37.0569 25.5045 37.0569 26.9194C37.0813 27.8378 36.7151 28.3094 35.7631 28.3094C30.1972 28.3094 24.6314 28.3094 19.0655 28.3094C18.3576 28.3094 17.7961 28.0612 17.7961 27.2917C17.7717 25.4052 17.6253 23.4691 17.8938 21.6075C18.5773 17.1147 21.2138 14.3098 25.6079 13.2921C25.8031 13.2425 25.9984 13.1928 26.389 13.0687C24.4605 12.5475 22.9958 11.6539 21.9949 10.0653C21.0185 8.5015 20.7255 6.78879 21.1649 4.97679C21.8485 2.02298 24.8023 -0.186173 27.7561 0.0124022C30.954 0.210978 33.444 2.66835 33.859 5.94484C34.2496 9.0724 32.1746 11.9021 28.3664 13.0936ZM27.3655 26.2243C28.8302 26.2243 30.2949 26.2492 31.7352 26.2243C32.7849 26.1995 34.2007 26.696 34.7622 26.001C35.2993 25.3556 34.9819 23.9656 34.9575 22.8982C34.8599 18.604 31.5643 15.2531 27.4631 15.2282C23.3864 15.2034 20.0664 18.5792 19.9444 22.8734C19.9199 23.6925 19.9688 24.5365 19.9199 25.3556C19.8711 26.0506 20.0908 26.274 20.7988 26.274C22.9958 26.1995 25.1684 26.2243 27.3655 26.2243ZM31.7108 6.51574C31.7108 4.10802 29.8555 2.19673 27.4875 2.17191C25.0708 2.14709 23.1667 4.0832 23.1667 6.54057C23.1667 8.99794 25.1196 10.9092 27.5364 10.8844C29.8799 10.8844 31.7352 8.92347 31.7108 6.51574Z" fill="#FF9A53"/>
<path d="M49.264 39.082C49.8011 39.1069 50.2405 39.4047 50.2649 40.0997C50.2893 40.7699 49.8987 41.1671 49.2396 41.1919C48.6049 41.2167 48.2632 40.8196 48.2143 40.2238C48.1167 39.5785 48.434 39.1317 49.264 39.082Z" fill="#FF9A53"/>
</svg>
