<svg width="194" height="81" viewBox="0 0 194 81" fill="none" xmlns="http://www.w3.org/2000/svg">
<path d="M4.42142 52.7454C4.42142 52.0164 4.21315 51.4437 3.74453 51.0271C3.27592 50.6106 2.85937 50.4023 2.44282 50.4023C1.19318 50.4023 0.568359 50.0378 0.568359 49.2568C0.568359 48.3716 1.03698 47.903 1.92214 47.903C2.18248 47.903 2.6511 47.9551 3.38006 48.1113C4.10901 48.2675 4.6297 48.3196 4.99418 48.3196C5.51486 48.3196 5.98348 48.2675 6.55623 48.1113C7.07692 48.0071 7.44139 47.903 7.64967 47.903C8.22242 47.903 8.5869 48.0592 8.79517 48.3196C9.00345 48.5799 9.10758 49.7254 9.21172 51.704C9.31586 53.6826 9.31586 55.9736 9.31586 58.6291L9.26379 64.0442C9.26379 64.9815 9.31586 65.6063 9.42 65.8146C9.52413 66.0749 9.78447 66.2832 10.149 66.4914C10.5134 66.6997 10.982 66.8559 11.5027 66.908C12.0234 66.9601 12.3879 67.0642 12.6482 67.2204C12.9086 67.3766 13.0127 67.637 13.0127 68.1056C13.0127 68.8345 12.492 69.199 11.4507 69.199C10.6696 69.199 9.88861 69.1469 9.10758 68.9907C8.32656 68.8345 7.54553 68.7825 6.7645 68.7825C6.13968 68.7825 5.35866 68.8345 4.47349 68.9907C3.58833 69.1469 2.91144 69.199 2.44282 69.199C1.29732 69.199 0.724565 68.8866 0.724565 68.2097C0.724565 67.689 0.828702 67.3766 1.03698 67.2204C1.24525 67.0642 1.6618 66.9601 2.23455 66.8559C2.8073 66.8039 3.27592 66.5956 3.6404 66.3352C4.00488 66.0749 4.21315 65.7625 4.31729 65.3459C4.42142 64.9294 4.47349 64.0963 4.47349 62.7946V52.7454H4.42142ZM18.532 52.6412C18.532 52.1726 18.3237 51.8081 17.9072 51.4957C17.4906 51.1833 17.0741 51.0271 16.6054 51.0271C15.5641 51.0271 14.3665 51.5999 12.9606 52.7974C12.1276 53.5264 11.5548 53.8909 11.1903 53.8909C10.6696 53.8909 10.4093 53.6305 10.4093 53.1619C10.4093 52.1206 11.3986 50.8709 13.3251 49.4651C15.2517 48.0592 17.022 47.3823 18.532 47.3823C19.8337 47.3823 21.0313 47.8509 22.0206 48.7882C23.0099 49.7254 23.5305 50.8188 23.5305 52.1206L23.4785 64.6691C23.4785 65.2939 23.6868 65.8666 24.1554 66.2832C24.5719 66.6997 25.0926 66.908 25.7174 66.908C26.7588 66.908 27.2795 67.3245 27.2795 68.1576C27.2795 68.8866 26.7067 69.2511 25.6133 69.2511C25.5091 69.2511 24.8843 69.199 23.7388 69.0428C22.6454 68.8866 21.7081 68.8345 20.9792 68.8345C19.7295 68.8345 18.6882 68.8866 17.8551 69.0428C17.022 69.199 16.4492 69.2511 16.1889 69.2511C15.8244 69.2511 15.512 69.1469 15.1996 68.8866C14.9393 68.6263 14.783 68.3138 14.783 67.9494C14.783 67.3766 15.1475 67.0642 15.8765 67.0642C16.5534 67.0642 17.1782 66.8559 17.7509 66.4394C18.3237 66.0228 18.6361 65.398 18.6361 64.5128V52.6412H18.532ZM32.6946 52.6412C32.6946 52.1726 32.4863 51.8081 32.0698 51.4957C31.6532 51.1833 31.2367 51.0271 30.7681 51.0271C29.935 51.0271 28.9457 51.4957 27.7481 52.433C26.5505 53.3702 25.7695 53.8388 25.3529 53.8388C25.0926 53.8388 24.8843 53.7867 24.6761 53.6305C24.4678 53.4743 24.3636 53.3181 24.3636 53.1099C24.3636 52.1726 25.2488 51.0271 27.0712 49.5692C28.8936 48.1634 30.7681 47.4344 32.6425 47.4344C34.8294 47.4344 36.3394 48.3716 37.1204 50.194C37.4328 50.7668 37.537 53.8388 37.537 59.3581L37.4849 64.617C37.4849 65.2939 37.6411 65.7625 38.0056 66.127C38.3701 66.4394 38.8907 66.6997 39.6197 66.8559C40.3487 67.0121 40.7652 67.1683 40.9214 67.3766C41.0776 67.5849 41.1297 67.7932 41.1297 68.1056C41.1297 68.8866 40.609 69.2511 39.6197 69.2511C39.4635 69.2511 38.8387 69.199 37.7452 69.0428C36.6518 68.8866 35.7146 68.8345 34.9335 68.8345C34.1525 68.8345 33.3194 68.8866 32.4342 69.0428C31.5491 69.199 30.7681 69.2511 30.1953 69.2511C29.8308 69.2511 29.5184 69.1469 29.206 68.8866C28.9457 68.6263 28.7895 68.3138 28.7895 67.9494C28.7895 67.3245 29.2581 66.908 30.2474 66.8559C31.1846 66.7518 31.8615 66.4914 32.1739 66.0749C32.4863 65.6583 32.6425 65.1377 32.6425 64.5128V52.6412H32.6946Z" fill="#FF9A53"/>
<path d="M66.4876 63.6276C66.4876 65.1375 67.4769 66.1268 69.4555 66.6996C69.9762 66.8558 70.3407 67.012 70.549 67.2203C70.8093 67.4285 70.9134 67.741 70.9134 68.3137C70.9134 68.574 70.7572 68.8344 70.4448 69.0427C70.1324 69.2509 69.7679 69.3551 69.4035 69.3551C68.9869 69.3551 68.4662 69.2509 67.7893 69.0947C67.1124 68.8865 66.5918 68.8344 66.1752 68.8344C65.7066 68.8344 65.0818 68.9385 64.3528 69.0947C63.6239 69.303 63.1552 69.3551 62.8949 69.3551C62.5825 69.3551 62.3221 69.2509 62.0618 69.0427C61.8015 68.8344 61.6453 68.6261 61.6453 68.4179C61.6453 68.1054 61.5411 67.8972 61.3328 67.8972C61.1766 67.8972 61.0204 67.9492 60.7601 68.1054C58.417 69.5634 55.9177 70.2923 53.2102 70.2923C51.9085 70.2923 50.5026 69.9799 48.8885 69.303C47.3264 68.6261 46.0247 67.6368 45.0875 66.231C44.1503 64.8772 43.6816 63.1589 43.6816 61.1283C43.6816 58.9935 44.723 57.0669 46.7537 55.4007C48.7843 53.7345 51.4398 52.9014 54.7201 52.9014C55.8136 52.9014 57.0112 53.2139 58.3129 53.8387C59.6146 54.4635 60.2915 55.0883 60.2915 55.7131C60.2915 56.0256 60.1353 56.2859 59.8749 56.4421C59.6146 56.6504 59.2501 56.7024 58.8856 56.7024C58.6253 56.7024 58.1046 56.4942 57.3236 56.1297C56.5425 55.7652 55.7095 55.5569 54.9284 55.5569C53.2102 55.5569 51.8043 56.0776 50.7109 57.0669C49.6174 58.0562 49.0447 59.41 49.0447 61.0762C49.0447 63.0027 49.6695 64.5127 50.9712 65.5541C52.2729 66.5954 53.7309 67.1161 55.397 67.1161C56.907 67.1161 58.3129 66.5954 59.5625 65.6061C60.8122 64.6168 61.489 63.3151 61.489 61.6489V53.2659C61.489 52.0163 61.0725 50.9749 60.2394 50.1939C59.4063 49.4129 58.2608 48.9963 56.907 48.9963C55.1367 48.9963 53.3664 49.5691 51.7002 50.7146C51.1274 51.1311 50.7109 51.2873 50.5026 51.2873C49.9819 51.2873 49.5654 51.1832 49.253 50.9228C48.8885 50.6625 48.7323 50.3501 48.7323 49.9335C48.7323 48.9442 49.6695 48.0591 51.4919 47.3822C53.3664 46.7053 55.345 46.3408 57.5318 46.3408C60.2394 46.3408 62.4263 47.0177 64.0925 48.3715C65.7587 49.7253 66.5918 51.3394 66.5918 53.2139V63.6276H66.4876Z" fill="#FF9A53"/>
<path d="M77.5777 52.7453C77.5777 51.9643 77.4215 51.3915 77.1091 51.0271C76.7966 50.6626 76.1718 50.3502 75.2346 50.194C74.2974 50.0378 73.8287 49.6212 73.8287 48.8923C73.8287 48.5799 73.985 48.3195 74.3494 48.0071C74.6618 47.7468 75.1305 47.5906 75.6511 47.5906C75.8594 47.5906 76.276 47.6426 76.8487 47.7988C77.4215 47.955 77.8901 48.0071 78.2546 48.0071C78.4628 48.0071 78.9835 47.955 79.8166 47.7988C80.6497 47.6947 81.1704 47.5906 81.3787 47.5906C81.7952 47.5906 82.1076 47.7468 82.2638 48.1112C82.42 48.4757 82.5242 49.1526 82.5242 50.194C82.5762 51.9122 82.5762 53.7346 82.5762 55.6612L82.368 64.5128C82.368 65.1376 82.42 65.5542 82.5242 65.7104C82.6283 65.8666 82.8887 66.0228 83.2531 66.2831C83.6176 66.4914 84.1383 66.6997 84.7111 66.8038C85.3359 66.9079 85.7004 67.1162 85.8566 67.3245C86.0128 67.5328 86.1169 67.7931 86.1169 68.1055C86.1169 68.7824 85.5962 69.1469 84.5028 69.1469C83.7738 69.1469 82.9928 69.0948 82.2118 68.9386C81.4307 68.7824 80.6497 68.7303 79.8687 68.7303C79.2439 68.7303 78.4628 68.7824 77.4735 68.8865C76.4842 68.9907 75.7553 69.0428 75.2867 69.0428C74.2453 69.0428 73.7246 68.6783 73.7246 67.8973C73.7246 67.5848 73.8287 67.2724 73.985 67.0642C74.1932 66.8559 74.5577 66.7517 75.1825 66.6997C75.8594 66.6476 76.328 66.5435 76.4842 66.3873C76.9529 65.8666 77.2653 65.45 77.3694 65.0856C77.4735 64.7211 77.5777 63.94 77.5777 62.7945V52.7453ZM96.5827 64.6169C96.5827 65.5021 96.7389 66.0749 97.0513 66.3873C97.3637 66.6476 97.8844 66.9079 98.6654 67.0642C99.4464 67.2204 99.8109 67.5848 99.8109 68.0534C99.8109 68.7303 99.4464 69.0428 98.6654 69.0428C98.5092 69.0428 97.8844 68.9907 96.7909 68.9386C95.6975 68.8866 94.7603 68.8345 94.0313 68.8345C92.7817 68.8345 91.7403 68.8865 90.9072 69.0428C90.0741 69.199 89.5014 69.251 89.241 69.251C88.8765 69.251 88.5121 69.1469 88.1996 68.8865C87.8872 68.6262 87.731 68.3138 87.731 67.9493C87.731 67.689 87.8872 67.4286 88.1476 67.1683C88.4079 66.9079 88.7203 66.8038 89.0848 66.8038C89.7617 66.8038 90.3344 66.5955 90.8551 66.2311C91.3758 65.8666 91.6362 65.2938 91.6362 64.5128C91.6362 59.5142 91.6882 56.4422 91.7403 55.2446C91.7924 54.047 91.8444 53.3702 91.8444 53.266C91.8444 51.6519 91.1155 50.8709 89.6055 50.8709C88.9807 50.8709 88.0434 51.3395 86.8979 52.3288C85.7004 53.3181 84.8673 53.7867 84.3986 53.7867C84.2424 53.7867 84.0342 53.6826 83.8259 53.4743C83.6176 53.266 83.5135 53.0577 83.5135 52.7974C83.5135 52.0684 84.4507 50.975 86.3772 49.465C88.2517 47.955 90.1262 47.2261 91.9486 47.2261C93.042 47.2261 93.9272 47.4864 94.7082 48.0592C95.4892 48.6319 96.0099 49.3088 96.2702 50.1419C96.5306 50.975 96.6347 52.1205 96.6347 53.6305L96.5827 55.6091V64.6169Z" fill="#FF9A53"/>
<path d="M107.308 38.8432C107.308 36.5522 107.569 34.6256 108.037 33.1677C108.506 31.7098 109.339 30.304 110.433 29.0543C111.578 27.8047 112.88 26.7112 114.338 25.774C115.796 24.8368 116.785 24.3682 117.201 24.3682C117.514 24.3682 117.618 24.7847 117.618 25.6178C117.618 25.7219 117.41 25.9302 117.045 26.2426C115.223 27.6485 113.921 29.3147 113.244 31.3453C112.567 33.3239 112.203 35.5629 112.203 37.958V48.0072C112.203 48.2676 112.359 48.3717 112.724 48.3717C112.88 48.3717 113.244 48.3197 113.765 48.2676C114.338 48.2155 114.858 48.1634 115.379 48.1634C116.577 48.1634 117.201 48.58 117.201 49.4131C117.201 49.8296 116.993 50.142 116.629 50.3503C116.212 50.5586 115.796 50.7148 115.223 50.7148C113.244 50.7148 112.255 51.4958 112.255 53.1099V63.836C112.255 64.8774 112.359 65.5022 112.515 65.7105C112.724 65.9709 112.932 66.1791 113.244 66.4915C113.557 66.7519 114.182 66.9602 115.171 67.1164C116.16 67.2205 116.733 67.4288 116.993 67.637C117.202 67.8453 117.358 68.1057 117.358 68.4701C117.358 69.3032 116.733 69.7198 115.535 69.7198C114.806 69.7198 113.921 69.6156 112.88 69.4074C111.786 69.1991 110.745 69.095 109.704 69.095C109.027 69.095 108.09 69.1991 106.892 69.4074C105.694 69.6156 104.913 69.7198 104.601 69.7198C103.299 69.7198 102.622 69.2512 102.622 68.366C102.622 68.0536 102.726 67.8453 102.883 67.637C103.091 67.4288 103.612 67.2726 104.497 67.1684C105.382 67.0643 106.059 66.856 106.475 66.5957C106.892 66.3353 107.152 65.9709 107.204 65.5543C107.256 65.1378 107.308 64.2526 107.308 62.8988V53.0058C107.308 51.5479 106.371 50.7669 104.549 50.7669C103.143 50.7669 102.414 50.2983 102.414 49.4131C102.414 48.58 103.143 48.1634 104.601 48.1634C105.122 48.1634 105.59 48.2155 106.111 48.2676C106.58 48.3197 106.892 48.3717 106.996 48.3717C107.256 48.3717 107.361 48.2676 107.361 48.0072V38.8432H107.308Z" fill="#183D6D"/>
<path d="M129.335 53.8909L129.439 54.7761C129.543 54.7761 130.012 53.7868 130.897 51.8082C131.782 49.8296 132.615 48.4237 133.5 47.6427C134.333 46.8096 135.219 46.3931 136.156 46.3931C136.885 46.3931 137.405 46.4972 137.77 46.7575C138.134 47.0179 138.291 47.2782 138.291 47.5906C138.291 48.1113 138.186 48.5799 137.926 48.8923C137.666 49.2048 137.249 49.6213 136.624 50.0899C133.969 52.0685 132.094 54.5157 130.897 57.3795C129.699 60.2433 129.126 62.6384 129.126 64.5129C129.126 65.398 129.231 66.0229 129.491 66.3353C129.751 66.6477 130.324 66.908 131.209 67.1163C132.094 67.3246 132.719 67.5849 132.98 67.7932C133.24 68.0535 133.396 68.3139 133.396 68.6784C133.396 69.3032 133.032 69.6156 132.303 69.6156C131.73 69.6156 130.897 69.5115 129.908 69.3552C128.918 69.199 127.773 69.0949 126.575 69.0949C125.794 69.0949 125.013 69.199 124.18 69.3552C123.347 69.5635 122.878 69.6156 122.618 69.6156C122.045 69.6156 121.577 69.5115 121.212 69.3032C120.848 69.0949 120.691 68.7825 120.691 68.4701C120.691 68.2097 120.796 68.0015 121.004 67.7932C121.212 67.5849 121.733 67.3246 122.67 67.0122C123.555 66.6998 124.128 66.3873 124.336 66.0749C124.544 65.7625 124.649 64.8253 124.649 63.1591V53.7347C124.649 53.162 124.492 52.5892 124.232 52.1206C123.972 51.652 123.399 51.2875 122.566 51.0272C121.733 50.7668 121.212 50.5585 121.056 50.3503C120.9 50.142 120.848 49.9337 120.848 49.7254C120.848 49.0486 121.316 48.6841 122.306 48.6841C122.566 48.6841 123.034 48.7361 123.659 48.8403C124.284 48.9444 124.753 48.9965 124.961 48.9965C125.169 48.9965 125.482 48.9444 125.95 48.8923C126.419 48.7882 126.992 48.7882 127.617 48.7882C128.762 48.7882 129.283 49.9858 129.283 52.3809V53.8909H129.335Z" fill="#183D6D"/>
<path d="M159.326 56.8068C159.795 56.8068 160.108 56.7027 160.264 56.5465C160.42 56.3903 160.524 56.0778 160.524 55.6613C160.524 54.0992 159.899 52.5893 158.702 51.2355C157.452 49.8817 155.63 49.1527 153.13 49.1527C151.412 49.1527 149.642 49.9858 147.819 51.6C145.997 53.2141 145.06 55.5572 145.06 58.5251C145.06 60.7119 146.049 62.6905 147.976 64.4088C149.902 66.1791 152.089 67.0122 154.484 67.0122C156.307 67.0122 158.285 66.4395 160.368 65.294C161.149 64.8774 161.722 64.6171 161.93 64.6171C162.294 64.6171 162.607 64.7212 162.815 64.9295C163.023 65.1378 163.127 65.3981 163.127 65.7105C163.127 66.4915 161.982 67.3767 159.691 68.4701C157.4 69.5636 155.057 70.0843 152.61 70.0843C149.017 70.0843 145.997 68.8867 143.602 66.4395C141.155 63.9923 139.957 61.0764 139.957 57.744C139.957 54.672 141.311 52.0165 143.966 49.8296C146.622 47.6428 149.642 46.5493 152.974 46.5493C157.296 46.5493 160.524 47.6428 162.711 49.8817C164.846 52.1206 165.939 54.7241 165.939 57.8482C165.939 58.5251 165.783 58.9416 165.418 59.0978C165.106 59.254 164.481 59.3061 163.596 59.3061H149.381C148.236 59.3061 147.663 58.8895 147.663 58.0044C147.663 57.1713 148.288 56.7547 149.486 56.7547H159.326V56.8068Z" fill="#183D6D"/>
<path d="M187.078 56.8068C187.547 56.8068 187.859 56.7027 188.016 56.5465C188.172 56.3903 188.276 56.0778 188.276 55.6613C188.276 54.0992 187.651 52.5893 186.454 51.2355C185.204 49.8817 183.382 49.1527 180.882 49.1527C179.164 49.1527 177.394 49.9858 175.571 51.6C173.749 53.2141 172.812 55.5572 172.812 58.5251C172.812 60.7119 173.801 62.6905 175.728 64.4088C177.654 66.1791 179.841 67.0122 182.236 67.0122C184.058 67.0122 186.037 66.4395 188.12 65.294C188.901 64.8774 189.474 64.6171 189.682 64.6171C190.046 64.6171 190.359 64.7212 190.567 64.9295C190.775 65.1378 190.879 65.3981 190.879 65.7105C190.879 66.4915 189.734 67.3767 187.443 68.4701C185.152 69.5636 182.809 70.0843 180.362 70.0843C176.769 70.0843 173.749 68.8867 171.354 66.4395C168.907 63.9923 167.709 61.0764 167.709 57.744C167.709 54.672 169.063 52.0165 171.718 49.8296C174.374 47.6428 177.394 46.5493 180.726 46.5493C185.048 46.5493 188.276 47.6428 190.463 49.8817C192.598 52.1206 193.691 54.7241 193.691 57.8482C193.691 58.5251 193.535 58.9416 193.17 59.0978C192.858 59.254 192.233 59.3061 191.348 59.3061H177.133C175.988 59.3061 175.415 58.8895 175.415 58.0044C175.415 57.1713 176.04 56.7547 177.238 56.7547H187.078V56.8068Z" fill="#183D6D"/>
<path d="M99.7593 76.957H0.308594V77.2174H99.7593V76.957Z" fill="#FF9A53"/>
<path d="M6.29688 40.9258C7.12997 33.8445 8.27548 26.8153 9.68132 19.8381C10.4103 16.2974 11.2434 12.7047 12.441 9.32025C13.1178 7.49786 13.8468 5.72753 15.1485 4.26961C15.3047 4.16548 15.4089 4.06134 15.513 4.00927C15.6692 3.9572 15.8254 4.00927 15.9816 4.11341C16.3982 4.42582 16.7106 4.89443 17.023 5.25891C17.3875 5.67546 17.6999 6.09201 18.0643 6.56062C18.7412 7.44579 19.314 8.33095 19.8867 9.26818C21.0322 11.0906 22.0215 13.0692 22.9588 14.9957C23.896 16.9743 24.7812 18.9529 25.6663 20.9836C26.3953 22.6498 27.1763 24.2639 28.0094 25.878C29.2591 28.3773 30.717 30.6683 32.4873 32.8552C33.4245 34.0007 34.4138 35.0421 35.5593 35.9272C35.9759 36.2396 36.4445 36.5521 36.9652 36.7083C38.8397 37.3331 41.0265 35.6669 42.4324 34.6255C44.3068 33.2717 46.0251 31.7618 47.5872 30.0956C49.2533 28.3252 50.7633 26.4508 52.2212 24.5242C53.3147 23.0663 54.2519 21.5563 55.3454 20.1505C56.4388 18.7446 57.5843 17.3909 58.9381 16.1933C60.1357 15.1519 62.0622 13.5378 63.7284 13.8502C64.2491 13.9543 64.7697 14.2668 65.1863 14.6312C66.9045 16.1933 68.0501 18.3802 69.0914 20.3588C70.2369 22.4415 71.2262 24.6284 72.2155 26.8153C74.1421 31.1369 76.5893 35.3024 79.6093 38.9993C81.7961 41.7068 84.5557 44.154 88.2526 43.6854C92.0536 43.2168 94.4488 39.8324 96.0108 36.6562C97.1563 34.4693 98.3018 32.0742 98.5101 29.6269C97.677 29.6269 96.8439 29.6269 96.0629 29.6269C96.0629 29.6269 93.1991 39.9365 88.2005 40.4572C88.2005 40.4572 85.5971 41.6548 81.1713 33.6883C80.3382 32.1783 79.6613 30.6162 78.8803 29.1063C76.8496 25.0449 75.4438 20.6191 73.1528 16.6619C72.2155 14.9957 71.1221 13.3295 69.8725 11.8716C68.8832 10.674 67.7897 9.47646 66.3839 8.79957C64.8739 8.01854 63.1556 8.33095 61.6456 8.85164C58.3133 9.94507 55.3454 11.9757 52.794 14.3709C49.8261 17.1826 47.6913 20.6191 45.1399 23.8473C43.9944 25.3053 42.8489 26.8153 41.5472 28.169C40.4538 29.3145 39.2041 30.8766 37.4859 30.0956C36.6528 29.7311 36.028 28.9501 35.5073 28.2211C32.4873 24.0556 30.6128 19.2133 28.478 14.5271C27.2805 11.8716 25.8746 9.26818 24.2084 6.87303C23.0108 5.10271 21.6571 3.33238 19.9909 1.92653C18.8454 0.937232 17.3875 0.0520684 15.8254 0C14.3154 0 12.8575 1.14551 11.9203 2.23894C10.5144 3.9572 9.62926 6.19615 8.95237 8.22682C5.61999 18.6405 6.97376 29.9394 6.29688 40.9258Z" fill="#183D6D"/>
<path d="M189.473 44.0497C187.182 44.0497 185.308 42.1752 185.308 39.8842C185.308 37.5932 187.182 35.7188 189.473 35.7188C191.764 35.7188 193.639 37.5932 193.639 39.8842C193.639 42.1752 191.764 44.0497 189.473 44.0497ZM189.473 36.1874C187.442 36.1874 185.828 37.8536 185.828 39.8322C185.828 41.8628 187.494 43.4769 189.473 43.4769C191.504 43.4769 193.118 41.8108 193.118 39.8322C193.118 37.8536 191.504 36.1874 189.473 36.1874Z" fill="#3F3B3B"/>
<path d="M187.807 41.7066V41.4463L188.171 41.3942C188.275 41.3942 188.275 41.3421 188.275 41.238V38.4784C188.275 38.3742 188.223 38.3742 188.171 38.3222L187.807 38.2701V38.0098H188.536C188.692 38.0098 188.796 38.0098 188.9 38.0098C189.004 38.0098 189.16 38.0098 189.317 38.0098C189.785 38.0098 190.098 38.1139 190.306 38.2701C190.514 38.4263 190.618 38.6867 190.618 38.9991C190.618 39.2073 190.566 39.3635 190.514 39.5198C190.462 39.676 190.358 39.728 190.306 39.8322C190.202 39.8842 190.098 39.9884 189.994 39.9884C189.889 40.0404 189.785 40.0404 189.733 40.0404L189.525 40.0925C189.369 40.0925 189.212 40.0925 189.056 40.0925C188.9 40.0925 188.796 40.0925 188.692 40.0925V39.8322C188.744 39.8322 188.848 39.8322 188.952 39.8322C189.056 39.8322 189.16 39.8322 189.212 39.8322C189.317 39.8322 189.369 39.8322 189.421 39.8322C189.629 39.8322 189.785 39.7801 189.889 39.6239C189.994 39.5198 190.098 39.3115 190.098 38.9991C190.098 38.8429 190.098 38.6867 190.046 38.5825C189.994 38.4784 189.889 38.3742 189.785 38.3222C189.681 38.2701 189.525 38.218 189.317 38.218C189.212 38.218 189.108 38.218 189.056 38.218C188.952 38.218 188.9 38.218 188.848 38.218V41.1859C188.848 41.238 188.9 41.2901 189.004 41.3421L189.421 41.3942V41.6546H187.807V41.7066ZM190.41 41.7066C190.358 41.7066 190.254 41.6546 190.202 41.5504C190.15 41.4463 190.046 41.2901 189.994 41.1339L189.785 40.6132C189.733 40.457 189.629 40.3008 189.577 40.1966C189.525 40.0925 189.421 39.9884 189.369 39.9884L189.785 39.9363C189.941 39.9884 190.046 40.0925 190.15 40.1446C190.254 40.2487 190.306 40.3528 190.41 40.5611L190.775 41.238C190.827 41.2901 190.827 41.3421 190.879 41.3421C190.931 41.3421 190.931 41.3942 190.983 41.3942L191.243 41.4463V41.7066H190.41Z" fill="#3F3B3B"/>
<path d="M107.622 73.729H103.457C103.301 73.729 103.145 73.8852 103.145 74.0414C103.145 74.1976 103.301 74.3538 103.457 74.3538H105.227V79.8731C105.227 80.0293 105.383 80.1855 105.54 80.1855C105.696 80.1855 105.852 80.0293 105.852 79.8731V74.3538H107.622C107.779 74.3538 107.935 74.1976 107.935 74.0414C107.935 73.8852 107.831 73.729 107.622 73.729Z" fill="white"/>
<path d="M115.328 74.3538C115.484 74.3538 115.64 74.1976 115.64 74.0414C115.64 73.8852 115.484 73.729 115.328 73.729H111.475V74.0414V74.3538V76.6448V77.2697V79.5607V79.8731V80.1855H115.328C115.484 80.1855 115.64 80.0293 115.64 79.8731C115.64 79.7169 115.484 79.5607 115.328 79.5607H112.099V77.2697H114.547C114.703 77.2697 114.859 77.1135 114.859 76.9572C114.859 76.801 114.703 76.6448 114.547 76.6448H112.099V74.3538H115.328Z" fill="white"/>
<path d="M183.486 74.3538C183.642 74.3538 183.798 74.1976 183.798 74.0414C183.798 73.8852 183.642 73.729 183.486 73.729H179.633V74.0414V74.3538V76.6448V77.2697V79.5607V79.8731V80.1855H183.486C183.642 80.1855 183.798 80.0293 183.798 79.8731C183.798 79.7169 183.642 79.5607 183.486 79.5607H180.258V77.2697H182.705C182.861 77.2697 183.017 77.1135 183.017 76.9572C183.017 76.801 182.861 76.6448 182.705 76.6448H180.258V74.3538H183.486Z" fill="white"/>
<path d="M155.317 79.5607H152.089V74.0414C152.089 73.8852 151.932 73.729 151.776 73.729C151.62 73.729 151.464 73.8852 151.464 74.0414V79.5607V79.8731V80.1855H155.317C155.473 80.1855 155.629 80.0293 155.629 79.8731C155.629 79.7169 155.473 79.5607 155.317 79.5607Z" fill="white"/>
<path d="M175.832 73.729C175.676 73.729 175.52 73.8852 175.52 74.0414V79.8731C175.52 80.0293 175.676 80.1855 175.832 80.1855C175.988 80.1855 176.144 80.0293 176.144 79.8731V74.0414C176.092 73.8852 175.988 73.729 175.832 73.729Z" fill="white"/>
<path d="M131.366 73.729C131.21 73.729 131.054 73.8852 131.054 74.0414V76.801H127.773V74.0414C127.773 73.8852 127.617 73.729 127.461 73.729C127.305 73.729 127.148 73.8852 127.148 74.0414V79.8731C127.148 80.0293 127.305 80.1855 127.461 80.1855C127.617 80.1855 127.773 80.0293 127.773 79.8731V77.4259H131.054V79.8731C131.054 80.0293 131.21 80.1855 131.366 80.1855C131.522 80.1855 131.678 80.0293 131.678 79.8731V74.0414C131.626 73.8852 131.522 73.729 131.366 73.729Z" fill="white"/>
<path d="M121.107 73.677C120.17 73.7811 119.597 74.6142 119.389 75.4473C118.92 77.0615 119.129 79.5607 121.159 79.9252C122.044 80.0814 122.878 79.7169 123.346 78.988C123.554 78.6756 123.086 78.4152 122.878 78.7276C122.201 79.769 120.639 79.6128 120.066 78.5714C119.649 77.8946 119.649 76.9053 119.806 76.1242C119.91 75.4473 120.17 74.6663 120.847 74.3539C121.68 73.9894 122.669 74.5101 123.086 75.2391C123.242 75.5515 123.711 75.2911 123.554 74.9787C123.086 74.0936 122.097 73.5208 121.107 73.677Z" fill="white"/>
<path d="M138.76 74.1455C138.083 73.6248 137.146 73.5207 136.365 73.9372C135.532 74.3538 135.22 75.2389 135.22 76.1241C135.168 77.3737 135.272 78.6234 135.272 79.873C135.272 80.2375 135.844 80.2375 135.792 79.873C135.792 78.6754 135.74 77.5299 135.74 76.3324C135.74 75.8117 135.792 75.1868 136.157 74.7703C136.469 74.4579 136.886 74.2496 137.354 74.2496C137.875 74.2496 138.344 74.51 138.656 74.8744C139.021 75.3431 139.073 75.9158 139.125 76.4365C139.229 77.582 139.177 78.7275 139.125 79.9251C139.125 80.2896 139.645 80.2896 139.645 79.9251C139.698 78.8316 139.75 77.7382 139.645 76.6968C139.645 75.7075 139.489 74.7182 138.76 74.1455Z" fill="white"/>
<path d="M171.771 76.8531C171.718 76.8531 171.719 76.8531 171.719 76.8531H170.521C170.365 76.8531 170.209 77.0093 170.209 77.1655C170.209 77.3217 170.365 77.4779 170.521 77.4779H171.406C171.406 77.8945 171.354 78.259 171.198 78.6234C171.042 78.9879 170.729 79.3003 170.365 79.5086C169.74 79.821 168.907 79.7169 168.438 79.1441C168.126 78.8317 168.022 78.3631 167.97 77.9465C167.865 77.4259 167.865 76.9052 167.865 76.3845C167.865 75.5514 168.178 74.7183 169.011 74.3538C169.844 74.0414 170.729 74.458 171.094 75.2911C171.25 75.6035 171.771 75.4473 171.614 75.1348C171.25 74.1976 170.365 73.5728 169.323 73.729C168.282 73.8852 167.553 74.6662 167.397 75.6555C167.293 76.2804 167.293 76.9572 167.345 77.5821C167.397 78.1548 167.501 78.7276 167.813 79.2483C168.334 80.0813 169.323 80.3938 170.209 80.1334C170.729 79.9772 171.198 79.6127 171.51 79.1441C171.875 78.5714 171.875 77.8945 171.927 77.2176C171.979 76.9572 171.875 76.8531 171.771 76.8531Z" fill="white"/>
<path d="M191.296 77.6341C190.88 76.9572 190.099 76.749 189.37 76.6448C188.953 76.5928 188.433 76.5928 188.12 76.2283C187.86 75.8638 187.808 75.2911 188.016 74.8745C188.276 74.3538 188.849 74.2497 189.318 74.2497C189.943 74.1976 190.515 74.2497 191.14 74.2497C191.505 74.2497 191.505 73.729 191.14 73.729C190.62 73.729 190.099 73.729 189.578 73.729C189.11 73.729 188.641 73.7811 188.224 73.9893C187.443 74.3538 187.183 75.3431 187.443 76.1762C187.6 76.5928 187.86 76.9052 188.276 77.1135C188.693 77.2697 189.11 77.2697 189.526 77.3217C190.307 77.4259 191.192 77.8945 190.984 78.8317C190.88 79.4045 190.307 79.5607 189.786 79.6127C189.11 79.7169 188.433 79.6648 187.808 79.6648C187.443 79.6648 187.443 80.1855 187.808 80.1855C188.381 80.1855 188.953 80.2376 189.526 80.1855C189.995 80.1334 190.515 80.0814 190.88 79.8731C191.609 79.3524 191.713 78.3631 191.296 77.6341Z" fill="white"/>
<path d="M145.528 73.625C144.226 73.625 143.133 74.7184 143.133 76.1243V77.7384C143.133 79.0922 144.226 80.2377 145.528 80.2377C146.83 80.2377 147.923 79.1443 147.923 77.7384V76.1243C147.923 74.7184 146.83 73.625 145.528 73.625ZM147.35 77.6863C147.35 78.7277 146.517 79.6129 145.528 79.6129C144.539 79.6129 143.706 78.7277 143.706 77.6863V76.0722C143.706 75.0308 144.539 74.1457 145.528 74.1457C146.517 74.1457 147.35 75.0308 147.35 76.0722V77.6863Z" fill="white"/>
<path d="M160.837 73.625C159.535 73.625 158.441 74.7184 158.441 76.1243V77.7384C158.441 79.0922 159.535 80.2377 160.837 80.2377C162.138 80.2377 163.232 79.1443 163.232 77.7384V76.1243C163.232 74.7184 162.138 73.625 160.837 73.625ZM162.659 77.6863C162.659 78.7277 161.826 79.6129 160.837 79.6129C159.847 79.6129 159.014 78.7277 159.014 77.6863V76.0722C159.014 75.0308 159.847 74.1457 160.837 74.1457C161.826 74.1457 162.659 75.0308 162.659 76.0722V77.6863Z" fill="white"/>
</svg>
