<svg width="389" height="86" viewBox="0 0 389 86" fill="none" xmlns="http://www.w3.org/2000/svg">
<g clip-path="url(#clip0_2034_4396)">
<path d="M388.999 71.2941C384.692 71.2941 380.385 71.2081 376.164 71.3801C374.441 71.4661 374.011 70.9501 374.011 69.2301C374.097 63.2961 374.011 57.3621 374.097 51.4281C374.097 49.5361 373.752 48.8481 371.685 48.8481C367.464 49.0201 363.33 49.0201 359.109 48.8481C357.042 48.7621 356.611 49.5361 356.697 51.4281C356.783 57.3621 356.697 63.2961 356.783 69.2301C356.783 70.9501 356.266 71.3801 354.63 71.3801C351.012 71.2941 347.48 71.2941 343.862 71.3801C342.484 71.3801 341.709 71.2941 341.709 69.4881C341.795 51.8581 341.795 34.2281 341.709 16.6841C341.709 15.1361 342.14 14.6201 343.69 14.7061C347.394 14.7921 351.098 14.7921 354.802 14.7061C356.439 14.6201 356.783 15.3081 356.783 16.7701C356.697 22.1881 356.869 27.6921 356.697 33.1101C356.611 35.2601 357.386 35.7761 359.367 35.6901C363.588 35.5181 367.723 35.6041 371.943 35.6901C373.666 35.7761 374.183 35.1741 374.097 33.5401C374.011 28.0361 374.097 22.4461 374.097 16.9421C374.097 15.8241 373.839 14.7921 375.647 14.7921C380.127 14.9641 384.606 14.9641 389.085 15.0501C388.999 33.6261 388.999 52.4601 388.999 71.2941Z" fill="#444A50"/>
<path d="M47.8059 0C50.1316 1.118 52.7158 1.032 55.1276 1.72C74.3365 7.138 88.0324 25.972 86.5681 45.236C84.9315 66.392 69.7711 82.818 49.3564 85.57C25.9268 88.752 3.87543 72.928 0.51604 50.396C-3.10176 26.058 12.5754 4.386 36.7802 0.602C37.297 0.516 37.9861 0.774 38.2446 0C41.4317 0 44.6188 0 47.8059 0ZM43.1544 82.044C64.8613 82.044 82.4334 64.758 82.5196 43.344C82.6057 21.758 64.9474 4.214 43.3267 4.214C21.5338 4.128 4.04771 21.586 4.04771 43.172C4.04771 64.672 21.5338 81.958 43.1544 82.044Z" fill="#444A50"/>
<path d="M166.848 41.8821C174.687 45.6661 177.874 51.1701 176.41 58.4801C175.031 65.3601 168.14 71.0361 160.302 71.2081C150.74 71.4661 141.179 71.2081 131.618 71.2941C129.981 71.2941 129.723 70.6921 129.723 69.2301C129.723 51.7721 129.723 34.2281 129.723 16.7701C129.723 15.3941 129.895 14.6201 131.618 14.6201C140.748 14.7061 149.965 14.5341 159.096 14.7921C166.331 15.0501 171.672 19.0061 173.481 24.8541C175.634 31.9061 173.653 37.0661 166.848 41.8821ZM150.396 59.2541C152.463 59.2541 154.617 59.5121 156.598 59.1681C159.785 58.7381 161.508 56.5881 161.421 53.7501C161.421 51.0841 159.699 49.2781 156.598 48.5901C153.325 47.9021 150.051 48.5041 146.778 48.1601C144.022 47.9021 143.16 48.8481 143.591 51.4281C143.677 51.7721 143.591 52.2021 143.591 52.6321C143.763 59.4261 143.763 59.4261 150.396 59.2541ZM149.621 36.8081C151.171 36.8081 152.808 36.8941 154.358 36.8081C157.287 36.6361 159.354 34.4861 159.526 31.6481C159.613 28.8961 157.631 26.6601 154.617 26.4021C152.549 26.2301 150.482 26.3161 148.328 26.3161C143.591 26.3161 143.591 26.3161 143.591 30.9601C143.591 36.8941 143.591 36.8941 149.621 36.8081Z" fill="#444A50"/>
<path d="M181.32 41.9681C181.406 38.6141 182.009 34.4001 183.474 30.3581C187.436 19.4361 196.394 13.0721 207.765 13.1581C219.135 13.2441 228.007 19.6081 231.797 30.6161C234.554 38.7001 234.554 46.9561 231.797 55.0401C227.921 66.3061 218.963 72.5841 207.162 72.4981C195.792 72.4121 186.747 65.7041 183.129 54.5241C181.923 50.7401 181.32 46.8701 181.32 41.9681ZM219.738 42.9141C219.824 39.3881 219.221 36.0341 217.584 32.9381C215.431 28.8961 211.986 26.8321 207.42 26.8321C202.855 26.9181 199.409 29.1541 197.514 33.2821C194.672 39.5601 194.672 45.9241 197.428 52.2021C199.323 56.5881 202.769 58.9101 207.679 58.9101C212.588 58.9101 215.862 56.4161 217.929 52.1161C219.307 49.1921 219.824 46.0961 219.738 42.9141Z" fill="#444A50"/>
<path d="M259.534 72.412C251.093 72.412 243.685 69.746 237.828 63.554C236.622 62.264 236.363 61.404 237.914 60.286C238.517 59.856 239.033 59.168 239.636 58.652C241.359 57.018 242.737 54.61 244.805 53.836C247.217 52.976 248.25 56.33 250.231 57.448C253.935 59.512 257.725 60.544 261.946 60.028C265.219 59.598 267.287 57.706 267.545 55.212C267.89 51.944 265.736 50.654 263.066 49.88C259.62 48.934 256.089 48.246 252.643 47.214C241.531 44.032 236.277 34.572 240.239 24.596C243.254 16.942 249.801 14.018 257.381 13.244C265.564 12.47 272.972 14.534 279.26 20.038C280.724 21.328 281.241 22.188 279.432 23.736C277.365 25.456 275.47 27.434 273.661 29.326C272.627 30.444 271.938 30.444 270.818 29.412C267.717 26.66 264.014 25.37 259.879 25.542C256.433 25.714 254.022 27.52 253.763 30.1C253.419 33.454 255.83 34.572 258.415 35.346C261.946 36.378 265.564 37.066 269.096 38.012C277.365 40.248 281.327 44.376 282.016 51.256C282.878 59.77 279.432 66.048 272.024 69.746C268.062 71.724 263.841 72.498 259.534 72.412Z" fill="#444A50"/>
<path d="M287.098 43.6881C287.098 35.1741 288.821 28.2941 293.559 22.4461C303.809 9.54606 325.43 10.4061 334.647 24.0801C335.422 25.1981 335.508 25.8861 334.302 26.6601C331.373 28.5521 328.445 30.4441 325.602 32.4221C324.654 33.0241 324.052 33.0241 323.449 31.9921C320.692 27.8641 316.73 26.1441 311.82 27.1761C306.479 28.2941 303.551 31.9921 302.172 37.0661C300.88 42.0541 301.139 47.0421 303.292 51.8581C307.341 60.7161 319.055 61.4901 323.362 54.2661C324.224 52.8041 324.913 52.9761 326.119 53.8361C328.789 55.7281 331.459 57.6201 334.302 59.2541C335.852 60.2001 335.68 60.8021 334.733 62.1781C328.703 70.9501 320.089 73.7021 310.011 72.4981C300.105 71.2941 293.559 65.5321 289.682 56.5881C287.787 52.0301 287.012 47.3861 287.098 43.6881Z" fill="#444A50"/>
<path d="M43.0679 55.2119C39.2778 55.2119 35.4877 55.3839 31.6976 55.1259C29.1996 54.9539 28.0798 55.4699 28.4244 58.2219C28.6828 61.0599 28.5105 63.9839 28.4244 66.8219C28.4244 67.8539 29.1135 69.2299 27.8214 69.7459C26.5294 70.2619 25.1511 69.8319 23.9452 68.8859C18.3462 64.7579 14.3839 59.3399 12.2304 52.6319C8.26806 39.9039 12.6611 25.8859 23.2561 17.8019C23.9452 17.2859 24.7205 16.5979 25.4957 16.4259C27.1323 15.9959 28.6828 15.9099 28.5105 18.4899C28.3383 21.9299 28.5105 25.3699 28.4244 28.8959C28.4244 30.2719 28.5967 31.0459 30.3194 31.0459C39.0194 30.9599 47.6332 30.9599 56.3332 31.0459C57.7975 31.0459 58.1421 30.5299 58.1421 29.1539C58.0559 25.8859 58.0559 22.6179 58.1421 19.3499C58.1421 18.4039 57.453 16.9419 58.8312 16.4259C60.0371 15.9099 61.3292 16.3399 62.449 17.1999C68.3925 21.5859 72.441 27.3479 74.5083 34.3999C78.2123 46.9559 73.4747 61.0599 62.9658 68.7999C62.2767 69.3159 61.6737 70.0039 60.6401 70.0899C59.0896 70.2619 57.9698 70.1759 58.0559 68.0259C58.2282 64.5859 57.9698 61.0599 58.1421 57.6199C58.2282 55.5559 57.5391 55.2119 55.6441 55.2119C51.4233 55.3839 47.2025 55.2119 43.0679 55.2119ZM43.2402 51.0839C47.5471 51.0839 51.854 50.9979 56.0747 51.0839C57.6252 51.0839 58.1421 50.7399 58.0559 49.1059C57.9698 45.0639 57.9698 41.0219 58.0559 36.8939C58.0559 35.4319 57.7975 34.8299 56.1609 34.8299C47.5471 34.9159 39.0194 34.9159 30.4056 34.8299C28.8551 34.8299 28.3383 35.1739 28.3383 36.8079C28.4244 40.8499 28.5105 44.8919 28.3383 48.9339C28.2521 50.7399 29.0274 50.9979 30.5778 50.9979C34.8848 51.0839 39.0194 51.0839 43.2402 51.0839ZM24.0313 63.6399C24.462 59.5979 24.3759 25.1119 23.9452 22.7899C12.1443 32.2499 11.369 52.8899 24.0313 63.6399ZM62.3628 22.6179C62.3628 36.3779 62.3628 49.8799 62.3628 63.4679C74.5083 54.3519 74.5083 32.2499 62.3628 22.6179Z" fill="#444A50"/>
</g>
<defs>
<clipPath id="clip0_2034_4396">
<rect width="389" height="86" fill="white"/>
</clipPath>
</defs>
</svg>
