<svg width="23" height="24" viewBox="0 0 23 24" fill="none" xmlns="http://www.w3.org/2000/svg">
<g clip-path="url(#clip0_2689_1338)">
<path d="M8.58462 2.98837C8.53847 2.99991 8.50385 3.01145 8.4577 3.01145C8.18078 3.06914 7.90385 3.14991 7.65001 3.27684C7.48847 3.29991 7.35001 3.35761 7.22308 3.43837C6.49616 3.7153 5.82693 4.08453 5.21539 4.55761C5.19231 4.56914 5.16924 4.59222 5.1577 4.60376C4.83462 4.79991 4.54616 5.05376 4.26924 5.31914C4.2577 5.31914 4.24616 5.33068 4.24616 5.34222C3.36924 6.13837 2.65385 7.03837 2.13462 8.08838C1.73078 8.79222 1.44231 9.54222 1.2577 10.3384C1.21155 10.3961 1.21155 10.4653 1.21155 10.5461C1.11924 10.8115 1.07308 11.0884 1.05001 11.3538C1.03847 11.423 1.03847 11.5038 1.02693 11.573C0.980776 11.6653 0.980776 11.7691 0.992315 11.873C0.992315 11.9307 0.980776 11.9884 0.980776 12.0461C0.911545 12.4153 0.923084 12.7845 0.946161 13.1538C0.946161 13.1884 0.946161 13.2345 0.957699 13.2691C0.946161 13.3499 0.946161 13.4191 0.969238 13.4999C0.946161 13.5576 0.946161 13.6153 0.980776 13.673C0.980776 13.9845 1.01539 14.2961 1.09616 14.6076C1.1077 14.6653 1.11924 14.7345 1.11924 14.7922C1.15385 15.0115 1.17693 15.2191 1.26924 15.4153C1.26924 15.5422 1.31539 15.6461 1.35001 15.7615C1.59231 16.6499 1.97308 17.4807 2.49231 18.2538C2.64231 18.5538 2.82693 18.8076 3.04616 19.0615C3.09231 19.1191 3.13847 19.1768 3.19616 19.2345C3.41539 19.5461 3.6577 19.8115 3.94616 20.0653C4.44232 20.5961 5.0077 21.0461 5.61924 21.4268C5.66539 21.4499 5.70001 21.473 5.74616 21.5076C5.76924 21.5538 5.80385 21.5768 5.86155 21.5768C6.54231 22.0268 7.28078 22.3499 8.06539 22.5807C8.23847 22.6499 8.41155 22.7191 8.59616 22.7307C8.83847 22.823 9.09231 22.8807 9.34616 22.8922C9.38078 22.9038 9.41539 22.9038 9.45001 22.9153C9.73847 22.9845 10.0269 23.0307 10.3269 23.0191C10.3846 23.0538 10.4308 23.0538 10.4885 23.0307C10.6039 23.0768 10.7192 23.0653 10.8462 23.0538C10.9039 23.0538 10.9615 23.0538 11.0192 23.0653C11.3308 23.0768 11.6423 23.0884 11.9423 23.0307C12 23.0307 12.0577 23.0191 12.1154 23.0191C12.2539 23.0307 12.3923 23.0191 12.5192 22.973C12.8539 22.9615 13.1885 22.8922 13.5 22.7884C13.9154 22.7076 14.3192 22.5922 14.7115 22.4191C14.8385 22.3961 14.9654 22.3615 15.0692 22.2807C15.3346 22.1999 15.5885 22.073 15.8192 21.923C15.8423 21.9115 15.8654 21.8999 15.8885 21.8884C16.8808 21.4038 17.7346 20.7115 18.5077 19.9268C18.5539 19.8691 18.5885 19.7999 18.6231 19.7307C18.9577 19.5115 19.1654 19.1768 19.3846 18.8538C19.3962 18.8307 19.4192 18.8076 19.4308 18.7961C19.8923 18.1961 20.2615 17.5384 20.5385 16.823C20.6077 16.7422 20.6423 16.6384 20.6539 16.5345C20.9423 15.8653 21.1154 15.1615 21.2192 14.4461C21.2192 14.3884 21.2308 14.3307 21.2308 14.273C21.2539 14.1345 21.2654 13.9845 21.3 13.8461C21.3692 13.523 21.2769 13.1884 21.4039 12.8653C21.4846 12.8653 21.5654 12.8653 21.6346 12.8653C21.7962 12.8653 21.9577 12.8884 22.1077 12.8768C22.2577 12.8653 22.2808 12.9345 22.2808 13.0499C22.2808 13.1307 22.2808 13.1999 22.2808 13.2807C22.2808 13.373 22.2692 13.4768 22.2692 13.5691C22.2462 13.6268 22.2346 13.673 22.2577 13.7307C22.2115 14.123 22.1539 14.5038 22.1077 14.8961C22.0962 14.9538 22.0846 14.9999 22.0731 15.0576C21.9115 15.7961 21.6808 16.5114 21.4154 17.2153C21.3577 17.2845 21.3231 17.3653 21.3115 17.4461C21.1269 17.7922 20.9539 18.1384 20.7692 18.4845C20.7462 18.5191 20.7231 18.5653 20.7 18.5999C20.5039 18.8999 20.2962 19.1884 20.1 19.4884L20.0885 19.5115C19.8462 19.8115 19.6039 20.0999 19.3615 20.3999C19.35 20.4115 19.3385 20.4345 19.3154 20.4461C19.0615 20.6999 18.8077 20.9422 18.5539 21.1961C17.9423 21.7153 17.2846 22.1653 16.6154 22.5922H16.6039C16.3269 22.7307 16.0615 22.8691 15.7846 23.0076C15.6692 23.0538 15.5539 23.0999 15.4269 23.1576C15.0692 23.2845 14.7115 23.423 14.3423 23.5499H14.3308C13.1308 23.873 11.9192 24.0461 10.6731 23.9999C9.94616 23.9653 9.24232 23.8499 8.52693 23.7115C8.49232 23.6999 8.4577 23.6884 8.42308 23.6768C8.28462 23.6422 8.14616 23.5961 8.0077 23.5615C7.89231 23.5268 7.77693 23.4922 7.67308 23.4691C6.78462 23.1461 5.93078 22.7422 5.12308 22.2461C4.75385 21.9807 4.38462 21.7038 4.02693 21.4384C3.81924 21.2422 3.60001 21.0576 3.39231 20.8615C3.34616 20.7807 3.28847 20.723 3.2077 20.6768C3.01155 20.4691 2.82693 20.2614 2.63078 20.0422C2.42308 19.7653 2.21539 19.4999 2.0077 19.223C1.98462 19.1884 1.95001 19.1538 1.92693 19.1076C1.90385 19.073 1.88078 19.0268 1.8577 18.9922C1.31539 18.1499 0.888469 17.2615 0.553853 16.3268C0.484622 16.073 0.415392 15.8191 0.334622 15.5653C-0.138455 13.5807 -0.0923007 11.6076 0.461545 9.63453C0.565392 9.33453 0.680776 9.02299 0.784622 8.72299C0.830776 8.69991 0.830776 8.65376 0.830776 8.60761C0.853853 8.54991 0.888469 8.48068 0.911545 8.42299V8.41145C1.08462 8.0653 1.2577 7.71914 1.43078 7.37299V7.36145C1.8577 6.66914 2.31924 6.01145 2.83847 5.39991C2.86155 5.39991 2.87308 5.38837 2.87308 5.3653C3.10385 5.12299 3.33462 4.89222 3.57693 4.64991C3.58847 4.63837 3.61155 4.62684 3.62308 4.60376C4.18847 4.11914 4.78847 3.66914 5.42308 3.25376C5.4577 3.23068 5.50385 3.20761 5.53847 3.18453C5.86155 3.01145 6.19616 2.83838 6.51924 2.6653C6.54231 2.65376 6.55385 2.65376 6.57693 2.64222C6.66924 2.59607 6.77308 2.56145 6.86539 2.5153C6.92308 2.49222 6.98078 2.46914 7.05001 2.43453C7.73078 2.18068 8.42308 1.99607 9.12693 1.83453C9.17308 1.83453 9.2077 1.82299 9.25385 1.82299C9.60001 1.77684 9.94616 1.73068 10.2923 1.68453C10.3615 1.70761 10.4192 1.69607 10.4769 1.67299C10.6039 1.67299 10.7308 1.66145 10.8577 1.66145C10.9385 1.66145 11.0077 1.66145 11.0885 1.66145C11.3769 1.66145 11.6654 1.66145 11.9539 1.66145C12.0115 1.66145 12.0692 1.66145 12.1269 1.66145C12.2654 1.66145 12.3923 1.66145 12.5308 1.66145C12.5885 1.66145 12.6462 1.66145 12.7039 1.66145C12.9923 1.66145 13.2808 1.66145 13.5692 1.66145C13.6269 1.66145 13.6846 1.66145 13.7423 1.66145C13.8808 1.66145 14.0077 1.66145 14.1462 1.66145C14.2039 1.66145 14.2615 1.66145 14.3192 1.66145C14.6077 1.66145 14.8962 1.66145 15.1846 1.66145C15.2423 1.66145 15.3 1.66145 15.3577 1.66145C15.4962 1.66145 15.6231 1.66145 15.7615 1.66145C15.8192 1.66145 15.8769 1.66145 15.9346 1.66145C16.0269 1.66145 16.1308 1.66145 16.2231 1.66145C16.1308 1.56914 16.0846 1.41914 15.9346 1.49991V1.48837C15.9 1.23453 15.6462 1.19991 15.5077 1.04991C15.3692 0.899913 15.1269 0.807606 15.0692 0.634529C15.0346 0.530683 15.2654 0.334529 15.3692 0.184529C15.4154 0.17299 15.4269 0.138375 15.4385 0.10376C15.5308 0.0576057 15.5654 -0.115471 15.7154 -8.65832e-05C15.7269 0.0460673 15.7615 0.0576057 15.7962 0.0691442C16.0731 0.32299 16.3731 0.55376 16.6846 0.77299C16.9731 1.00376 17.2731 1.24607 17.5615 1.47684C17.5962 1.51145 17.6423 1.53453 17.6769 1.56914C18.15 2.01914 18.1846 2.08837 17.9654 2.46914C17.6192 2.74607 17.2846 3.02299 16.9385 3.29991C16.6615 3.51914 16.3846 3.74991 16.0962 3.96914C16.0615 3.99222 16.0269 4.00376 16.0039 4.02684C15.6 4.33838 15.6 4.33838 15.2885 3.96914C15.2539 3.93453 15.2308 3.89991 15.1962 3.8653C15.0115 3.68068 15.0462 3.54222 15.2654 3.4153C15.3115 3.39222 15.3462 3.34607 15.3923 3.29991C15.6808 3.08068 15.9692 2.84991 16.3039 2.59607C15.7731 2.59607 15.3115 2.59607 14.85 2.59607C14.7923 2.59607 14.7346 2.59607 14.6769 2.59607C14.1923 2.59607 13.7077 2.59607 13.2231 2.59607C13.1654 2.59607 13.1077 2.59607 13.05 2.59607C12.5654 2.59607 12.0808 2.59607 11.5962 2.59607C11.5154 2.59607 11.4346 2.59607 11.3654 2.59607C10.8346 2.57299 10.3154 2.58453 9.79616 2.68837C9.76155 2.68837 9.71539 2.69991 9.68078 2.69991C9.31155 2.80376 8.94232 2.87299 8.58462 2.98837Z" fill="#183D6D"/>
<path d="M2.41159 11.654C2.42313 11.6309 2.43467 11.6078 2.43467 11.5847C2.56159 11.4117 2.76928 11.377 2.9539 11.3078C3.15005 11.2847 3.34621 11.2386 3.53082 11.1578C3.73851 11.1001 3.94621 11.0309 4.1539 10.9847C4.39621 10.927 4.53467 10.7886 4.54621 10.5463C4.61544 10.4424 4.53467 10.3617 4.47698 10.2924C4.17698 9.84242 3.8539 9.4155 3.48467 9.02319C3.33467 8.79242 3.35774 8.58473 3.49621 8.35396C3.75005 7.9155 4.05005 7.50011 4.36159 7.09627C4.63851 6.72704 4.95005 6.46165 5.43467 6.75011C5.52698 6.79627 5.61928 6.85396 5.73467 6.85396C6.06928 7.03857 6.43851 7.15396 6.80774 7.24627C7.21159 7.36165 7.23467 6.94627 7.21159 6.6578C7.24621 6.25396 7.20005 5.83857 7.16544 5.43473C7.05005 4.66165 7.62698 4.66165 8.16928 4.38473C8.21544 4.39627 8.26159 4.38473 8.28467 4.33857C8.63082 4.24627 8.97698 4.14242 9.32313 4.05011C9.38082 4.05011 9.43851 4.03857 9.49621 4.03857C9.88851 4.09627 10.0039 4.53473 10.2231 4.81165C10.3154 4.99627 10.4193 5.16934 10.5577 5.33088C10.6501 5.5155 10.7885 5.67704 10.927 5.82704C11.0424 5.9655 11.1924 5.95396 11.3077 5.80396C11.8385 5.3078 12.0693 4.56934 12.5654 4.06165C12.6462 4.06165 12.7154 4.06165 12.7962 4.06165C12.9693 4.09627 13.1424 4.13088 13.3039 4.15396C13.327 4.15396 13.3616 4.1655 13.3847 4.1655C13.7885 4.3155 14.1924 4.4655 14.5962 4.60396H14.6077C15.0116 4.74242 15.1501 5.03088 15.0693 5.43473C15.0577 5.46934 15.0693 5.5155 15.0693 5.55011C15.0693 5.6078 15.0693 5.6655 15.0577 5.72319C15.0001 6.10396 15.0001 6.49627 15.0116 6.87704C15.0231 6.99242 15.0001 7.14242 15.1616 7.18857C15.2539 7.35011 15.3808 7.2578 15.4847 7.22319C15.6347 7.18857 15.7962 7.15396 15.9347 7.06165C16.2924 6.96934 16.6385 6.8078 16.9731 6.6578C17.227 6.55396 17.4347 6.58857 17.6193 6.8078C17.7808 7.00396 17.9539 7.20011 18.127 7.39627C18.1385 7.45396 18.1731 7.50011 18.2308 7.53473C18.4154 7.83473 18.6116 8.13473 18.7962 8.42319C18.8193 8.50396 18.8424 8.58473 18.8654 8.6655C18.7962 9.0578 18.4501 9.25396 18.277 9.57704C18.0577 9.79627 17.8962 10.0501 17.7231 10.304C17.6424 10.4193 17.6193 10.5232 17.7116 10.6386C17.7116 10.8347 17.8154 10.9155 18.0001 10.927C18.4501 11.1232 18.9347 11.2155 19.4077 11.3424C19.8462 11.4463 19.8347 11.7232 19.8924 12.0924C19.8693 12.1501 19.8808 12.2078 19.9154 12.254C19.9154 12.4501 19.927 12.6347 19.927 12.8309C19.927 12.8886 19.927 12.9463 19.927 13.004C19.9039 13.3155 19.8808 13.627 19.8577 13.927C19.8231 14.0078 19.777 14.0886 19.7424 14.1578C19.6962 14.1924 19.6616 14.227 19.6154 14.2617C19.5577 14.2847 19.4885 14.3078 19.4308 14.3309C19.4193 14.3424 19.3962 14.354 19.3847 14.3655C19.0616 14.354 18.7731 14.4809 18.4847 14.5847H18.4731C18.3231 14.6309 18.1616 14.6886 18.0116 14.7232C17.7462 14.7693 17.677 14.9886 17.677 15.1847C17.677 15.404 17.8616 15.5655 18.0116 15.727C18.0231 15.7501 18.0347 15.7732 18.0577 15.7847C18.0808 15.8886 18.1501 15.9578 18.2424 16.0155C18.4154 16.2924 18.6347 16.5232 18.8308 16.7655C18.9001 16.9732 18.8424 17.1578 18.7385 17.3424C18.4616 17.827 18.1154 18.2655 17.7808 18.7155C17.7231 18.7386 17.6885 18.7847 17.6654 18.8424C17.4462 19.0732 17.2039 19.1193 16.9154 18.9693C16.8462 18.9347 16.777 18.9232 16.6962 18.9001C16.477 18.7732 16.2347 18.6809 15.9808 18.6232C15.727 18.5078 15.0693 18.2078 15.0347 18.6693C15.0116 19.2232 14.9308 19.777 15.0577 20.3193C15.2193 20.8963 14.6424 21.0347 14.2385 21.2309C14.077 21.2655 13.927 21.3232 13.777 21.3924C13.6616 21.427 13.5347 21.4501 13.4193 21.4847C13.1308 21.5424 12.8654 21.6924 12.5539 21.6001C12.4731 21.5193 12.3808 21.427 12.3001 21.3463C12.127 21.0347 11.9424 20.7347 11.7231 20.4463L11.7116 20.4347C11.4808 20.1347 11.1116 19.3847 10.777 20.0309L10.7654 20.0424C10.4424 20.4232 10.1885 20.8617 9.93467 21.2886C9.78467 21.5424 9.60005 21.6693 9.30005 21.6347C9.23082 21.577 9.15005 21.577 9.06928 21.5886C9.03467 21.577 8.98851 21.5655 8.9539 21.554L8.94236 21.5655C8.56159 21.4386 8.19236 21.3117 7.81159 21.1847C7.77698 21.1386 7.73082 21.127 7.68467 21.127C7.28082 20.977 7.06159 20.7117 7.14236 20.2617C7.1539 20.0655 7.1539 19.8693 7.16544 19.6847C7.16544 19.6501 7.16544 19.6155 7.17698 19.5809C7.20005 19.2463 7.29236 18.9001 7.10774 18.577C6.87698 18.2655 6.47313 18.6001 6.18467 18.6578H6.17313C5.82698 18.7963 5.46928 18.9347 5.12313 19.0732C5.03082 19.0732 4.93851 19.0732 4.85774 19.0847C4.52313 18.9001 4.36159 18.5655 4.10774 18.3117C4.09621 18.254 4.07313 18.2078 4.0039 18.2193H3.99236C3.8539 17.8616 3.60005 17.5732 3.4039 17.2501C3.2539 16.8809 3.54236 16.6616 3.7039 16.4078C3.73851 16.3617 3.77313 16.327 3.80774 16.2809C4.05005 16.0155 4.28082 15.727 4.4539 15.4155C4.65005 15.127 4.52313 14.8617 4.1539 14.7463C4.07313 14.7232 3.99236 14.6886 3.91159 14.6655C3.87698 14.654 3.84236 14.6424 3.79621 14.6424C3.46159 14.5155 3.11544 14.4463 2.78082 14.354C2.5039 14.2847 2.3539 14.1232 2.34236 13.8347C2.33082 13.627 2.29621 13.4193 2.28467 13.2117C2.28467 13.154 2.28467 13.0963 2.28467 13.0386C2.29621 12.727 2.30775 12.4155 2.31928 12.104C2.3539 12.0347 2.3539 11.954 2.34236 11.8732C2.37698 11.804 2.40005 11.7232 2.41159 11.654ZM3.27698 12.6463C3.21928 12.727 3.24236 12.8078 3.2539 12.8886C3.28851 13.6501 3.13851 13.477 3.88851 13.6617C4.28082 13.8001 4.66159 13.9386 5.0539 14.0886C5.18082 14.1924 5.28467 14.2963 5.34236 14.4693C5.42313 14.7347 5.51544 14.9886 5.59621 15.254C5.58467 15.4732 5.45775 15.6578 5.3539 15.8309C5.12313 16.2463 4.80005 16.5924 4.52313 16.9732C4.39621 17.0424 4.44236 17.1232 4.50005 17.204C4.63851 17.4001 4.76544 17.5963 4.91544 17.7924C5.15774 18.127 5.15774 18.1155 5.53851 17.9193C5.86159 17.804 6.18467 17.6886 6.51928 17.5847C6.57698 17.5732 6.63467 17.5617 6.69236 17.5501C6.91159 17.5386 7.13082 17.4347 7.33851 17.5501C7.78851 17.8155 8.22698 18.104 8.18082 18.727C8.16928 18.8193 8.19236 18.9117 8.2039 19.0155C8.2039 19.0963 8.2039 19.1655 8.2039 19.2463C8.19236 19.3617 8.19236 19.477 8.18082 19.5924C8.14621 20.3424 8.13467 20.354 8.86159 20.5732C9.41544 20.7347 9.24236 20.7693 9.51928 20.3078C9.72698 20.0193 9.93467 19.7309 10.1308 19.4424C10.1654 19.4078 10.2001 19.3617 10.2347 19.327C10.477 19.1078 10.7077 18.8424 11.0885 18.9001C11.2847 18.9232 11.5039 18.877 11.6885 18.9809C11.977 19.2232 12.2077 19.5117 12.4385 19.8117L12.4501 19.8232C12.6116 20.077 12.7847 20.3193 12.9347 20.5732C12.9924 20.677 13.0731 20.7117 13.1654 20.654C13.2462 20.6078 13.4424 20.6886 13.3962 20.4693L13.3847 20.4924L13.4077 20.504C13.5116 20.6424 13.5808 20.504 13.6731 20.4809C13.8924 20.4001 14.3077 20.4001 14.1001 20.0655C14.1001 19.9732 14.1001 19.8693 14.1001 19.777C14.1116 19.3501 14.1347 18.9232 14.1462 18.5078C14.1924 18.1963 14.3308 17.954 14.6193 17.804C14.7577 17.7347 14.8616 17.6193 14.9885 17.5386C15.4039 17.4809 15.7847 17.6424 16.177 17.7347C16.4077 17.8155 16.6501 17.9078 16.8808 17.9886C17.0424 18.1386 17.1693 18.0924 17.2847 17.9193C17.4231 17.7117 17.5962 17.5386 17.7001 17.3078C17.8731 17.1693 17.8616 17.0424 17.7001 16.8924C17.5847 16.777 17.4924 16.6501 17.3885 16.5347C16.9501 15.9117 16.4654 15.3924 16.9039 14.5732C17.0308 14.3424 17.1231 14.1463 17.377 14.0424C17.4808 13.9963 17.5847 13.9501 17.6885 13.904C18.0462 13.7886 18.4154 13.6847 18.7731 13.5693C18.8193 13.5578 18.8539 13.5578 18.9001 13.5463C19.0154 13.5232 18.9924 13.4193 19.0039 13.3386C19.0154 13.1193 19.0154 12.9001 19.0154 12.6809C19.0039 12.1847 19.0039 12.1847 18.4962 12.1155H18.4847C18.1039 11.9886 17.7231 11.8501 17.3424 11.7232C16.9039 11.5386 16.9154 11.054 16.7308 10.6732C16.627 10.3963 16.8001 10.1886 16.8924 9.95781C16.9154 9.92319 16.927 9.88857 16.9501 9.8655C17.1577 9.57704 17.3654 9.30011 17.5731 9.01165C17.6193 9.00011 17.6308 8.97704 17.6424 8.93088C18.0116 8.70011 17.7001 8.44627 17.527 8.2155C17.527 8.16934 17.5039 8.14627 17.4693 8.12319C17.1577 7.62704 17.1577 7.62704 16.6616 7.86934C16.4193 7.95011 16.1885 8.04242 15.9462 8.12319C15.7501 8.16934 15.5654 8.2155 15.3693 8.26165C14.7116 8.27319 14.1001 7.7078 14.1001 7.03857C14.1001 6.94627 14.0885 6.84242 14.0885 6.75011C14.1116 6.38088 14.1231 6.02319 14.1462 5.65396C14.1577 5.5155 14.1231 5.43473 13.9847 5.40011C13.7193 5.31934 13.4539 5.22704 13.1885 5.12319C13.027 5.0655 12.9577 5.11165 12.8654 5.25011C12.6001 5.71165 12.2885 6.13857 11.9424 6.54242C11.7231 6.73857 11.5039 6.92319 11.1693 6.8655C11.0654 6.84242 10.9385 6.87704 10.8347 6.87704C10.777 6.8655 10.7308 6.85396 10.6731 6.84242C10.3962 6.6578 10.1885 6.40396 9.96928 6.16165C9.78467 5.88473 9.58851 5.61934 9.43851 5.31934C9.30005 5.0655 9.15005 5.03088 8.93082 5.16934C8.79236 5.20396 8.6539 5.23857 8.51544 5.29627C8.07698 5.42319 8.07698 5.42319 8.15774 5.89627C8.13467 5.97704 8.14621 6.04627 8.16928 6.12704C8.15775 6.58857 8.16928 7.05011 8.07698 7.51165C7.85775 7.86934 7.51159 8.07704 7.13082 8.22704C6.50774 8.18088 5.94236 7.93857 5.37698 7.71934C5.29621 7.68473 5.2039 7.5578 5.11159 7.69627C5.08851 7.71934 5.06544 7.75396 5.04236 7.77704C4.98467 7.84627 4.91544 7.9155 4.85774 7.99627C4.37313 8.64242 4.37313 8.64242 4.91544 9.24242C5.16928 9.72704 5.78082 10.2001 5.46928 10.8001C5.38851 10.9732 5.36544 11.1693 5.30774 11.354C5.15774 11.6193 4.88082 11.6886 4.62698 11.804C4.32698 11.9424 3.98082 11.9655 3.69236 12.127L3.68082 12.1386C3.65774 12.127 3.64621 12.127 3.62313 12.1155C3.58851 12.127 3.56544 12.1386 3.53082 12.1501C3.28851 12.1386 3.20774 12.2655 3.27698 12.4963C3.28851 12.5424 3.27698 12.6001 3.27698 12.6463Z" fill="#183D6D"/>
<path d="M10.1537 7.36153C10.4768 7.33845 10.8114 7.30384 11.1345 7.28076C11.7114 7.2923 12.2652 7.39615 12.8191 7.53461C12.946 7.54615 13.0614 7.75384 13.2114 7.56922C13.2114 7.5923 13.2114 7.60384 13.1999 7.61538C13.1999 7.68461 13.2575 7.70768 13.3152 7.73076C13.996 8.00768 14.5845 8.43461 15.1152 8.9423C15.3575 9.23076 15.5883 9.53076 15.8306 9.81922C15.8306 9.86538 15.8422 9.89999 15.8883 9.91153C16.0383 10.2115 16.1883 10.5231 16.3499 10.8231C16.3729 10.9385 16.4075 11.0654 16.4652 11.1577C16.6037 11.7115 16.7075 12.2654 16.7191 12.8423C16.7191 12.9 16.7191 12.9577 16.7191 13.0154C16.6729 13.8346 16.4652 14.6192 16.1191 15.3692C16.0614 15.4269 16.0268 15.4961 16.0152 15.5654C15.8191 15.8538 15.6114 16.1423 15.4152 16.4308C15.4037 16.4538 15.3806 16.4654 15.3691 16.4885C14.8499 17.0423 14.2614 17.5038 13.5922 17.8615H13.5806C13.1883 18 12.796 18.1385 12.4152 18.2769C11.8845 18.3692 11.3422 18.4154 10.7999 18.4154C10.2691 18.3577 9.74986 18.2538 9.24216 18.0808C9.04601 18 8.84986 17.9192 8.6537 17.8269C8.14601 17.5385 7.6614 17.2038 7.23447 16.8C7.01524 16.5461 6.79601 16.2808 6.57678 16.0269C6.5537 15.9577 6.51909 15.9 6.4614 15.8538C6.35755 15.6808 6.26524 15.5077 6.1614 15.3346C5.88447 14.7577 5.72293 14.1577 5.61909 13.5231C5.60755 13.4077 5.59601 13.2923 5.58447 13.1885C5.58447 13.1077 5.58447 13.0385 5.58447 12.9577C5.60755 12.6461 5.61909 12.3346 5.64216 12.0346C5.64216 11.9769 5.6537 11.9192 5.6537 11.8615C5.7114 11.8154 5.7114 11.7461 5.69986 11.6885C5.81524 11.25 5.96524 10.8231 6.13832 10.3961C6.32293 10.0961 6.50755 9.79615 6.69216 9.48461C7.23447 8.81538 7.86909 8.27307 8.63063 7.85768C9.1037 7.64999 9.62293 7.48845 10.1537 7.36153ZM7.18832 15.2538C7.32678 15.5308 7.52293 15.7615 7.7537 16.0038C7.8114 15.8654 7.85755 15.7615 7.9037 15.6577C7.9614 15.6115 7.99601 15.5423 8.01909 15.4731C8.23832 15.2192 8.44601 14.9769 8.66524 14.7231C8.67678 14.7115 8.69986 14.7 8.7114 14.6769C8.96524 14.5038 9.20755 14.3308 9.47293 14.1577C9.24216 13.9846 9.06909 13.7769 8.88447 13.5808C8.8614 13.5461 8.83832 13.5231 8.81524 13.4885C8.69986 13.2577 8.58447 13.0269 8.46909 12.7961C8.43447 12.6577 8.39986 12.5192 8.37678 12.3808C8.33063 11.9769 8.3537 11.5731 8.44601 11.1808C8.54986 10.8808 8.68832 10.5923 8.8614 10.3154C8.91909 10.2461 8.97678 10.1769 9.02293 10.1077L9.03447 10.0961C9.20755 9.94615 9.33447 9.76153 9.53063 9.64615C9.68063 9.55384 9.83063 9.47307 9.98063 9.38076C10.3729 9.2423 10.7768 9.13845 11.2037 9.13845C11.2614 9.13845 11.3191 9.13845 11.3768 9.13845C11.4691 9.14999 11.5729 9.17307 11.6652 9.18461L11.6768 9.17307C12.0345 9.27692 12.3806 9.41538 12.7037 9.61153C12.7383 9.63461 12.7614 9.65769 12.796 9.68076C13.4075 10.1769 13.7768 10.8115 13.9152 11.5846C13.9152 11.6769 13.9268 11.7808 13.9268 11.8731C13.9268 12.3 13.8229 12.6923 13.6845 13.0846C13.4537 13.4885 13.1883 13.8692 12.7729 14.1692C13.5922 14.5846 14.1575 15.1961 14.5152 15.9923C14.6191 15.9115 14.6883 15.8423 14.7229 15.75C14.9883 15.4615 15.1845 15.1269 15.346 14.7692C15.5652 14.3769 15.6806 13.95 15.7152 13.5C15.7383 13.4423 15.7614 13.3961 15.7383 13.3385C15.8191 12.8423 15.7845 12.3577 15.6575 11.8846C15.6691 11.7808 15.6229 11.6885 15.5883 11.5961C15.5075 11.2731 15.3922 10.95 15.196 10.6731C15.1845 10.5923 15.1499 10.5346 15.0922 10.4885C14.9306 10.1769 14.7114 9.89999 14.4575 9.65768C14.4575 9.63461 14.446 9.62307 14.4229 9.62307C14.1691 9.33461 13.8691 9.0923 13.5229 8.91922C13.4999 8.90769 13.4768 8.89615 13.4537 8.88461C13.1537 8.67692 12.8306 8.53845 12.4729 8.45769C12.3806 8.39999 12.2768 8.37692 12.1729 8.37692C11.7575 8.26153 11.3306 8.22692 10.9037 8.26153C10.7652 8.23845 10.6268 8.24999 10.4999 8.30768C9.66909 8.39999 8.94216 8.71153 8.29601 9.2423C7.91524 9.50768 7.6037 9.83076 7.3614 10.2231C6.86524 10.8808 6.58832 11.6192 6.53063 12.4269C6.48447 12.5192 6.49601 12.6115 6.50755 12.7038C6.47293 13.1423 6.51909 13.5808 6.63447 14.0077C6.64601 14.0654 6.66909 14.1231 6.68063 14.1808C6.71524 14.2731 6.74986 14.3654 6.78447 14.4577C6.79601 14.5846 6.8537 14.7 6.92293 14.8038C6.99216 14.9423 7.0614 15.1154 7.18832 15.2538ZM12.9229 12.3346C13.0383 12.1269 12.9691 11.9885 12.7614 11.9077C12.5883 11.8385 12.4499 11.7 12.2537 11.6769C11.7691 11.4692 11.2614 11.4 10.7306 11.5038C10.6499 11.5154 10.5691 11.5269 10.4999 11.5385C10.0845 11.6192 9.7037 11.7692 9.36909 12.0231C9.26524 12.3346 9.41524 12.5885 9.57678 12.8423C9.77293 13.2231 10.0614 13.4769 10.4652 13.6154C10.6614 13.7192 10.8806 13.7769 11.0999 13.7538C11.5152 13.7538 11.9191 13.7192 12.2075 13.3731C12.2537 13.3615 12.2999 13.3961 12.3229 13.3269C12.6345 13.0846 12.8652 12.7615 12.9229 12.3346ZM10.1537 17.3769C10.5575 17.4923 10.9614 17.5154 11.3652 17.4808C11.4806 17.4923 11.6075 17.4923 11.7114 17.4461C12.3345 17.4 12.8999 17.1808 13.4422 16.8692C13.8114 16.6615 13.8114 16.65 13.6037 16.2692C13.4075 15.7961 13.0614 15.4615 12.6575 15.1731C12.4729 15.0461 12.4152 15.1154 12.3922 15.2885C12.1383 15.75 11.7575 16.0269 11.2383 16.1077C11.1806 16.1077 11.1229 16.1077 11.0652 16.1077C10.6499 16.0731 10.3152 15.8885 10.0383 15.5885C9.94601 15.4269 9.89986 15.1615 9.76139 15.1154C9.62293 15.0577 9.44986 15.2654 9.32293 15.4038C9.04601 15.6231 8.82678 15.8885 8.68832 16.2115C8.61909 16.3846 8.3537 16.5461 8.61909 16.7423C8.90755 16.95 9.21909 17.1231 9.56524 17.2038C9.7037 17.2846 9.86524 17.3308 10.0268 17.3423C10.0729 17.3654 10.1075 17.3654 10.1537 17.3769ZM12.5768 10.7885C11.8152 9.8423 10.2114 9.85384 9.76139 10.7769C10.6845 10.4654 11.596 10.4654 12.5768 10.7885ZM11.146 14.7115C11.1114 14.7115 11.0652 14.7 11.0306 14.7115C10.9152 14.7346 10.7191 14.6654 10.7075 14.8038C10.6845 14.9654 10.8345 15.0923 11.0075 15.15C11.0883 15.1846 11.1806 15.1846 11.2614 15.15C11.4345 15.0923 11.5845 14.9769 11.5729 14.8154C11.5614 14.6423 11.3537 14.7346 11.2383 14.7C11.2037 14.7115 11.1691 14.7115 11.146 14.7115Z" fill="#183D6D"/>
</g>
<defs>
<clipPath id="clip0_2689_1338">
<rect width="22.2808" height="24" fill="white"/>
</clipPath>
</defs>
</svg>
