<svg width="448" height="92" viewBox="0 0 448 92" fill="none" xmlns="http://www.w3.org/2000/svg">
<g clip-path="url(#clip0_2034_4369)">
<path d="M448.001 47.9536C447.471 48.1312 447.382 48.6641 447.294 49.1081C445.175 54.9691 440.142 58.6988 433.874 58.9652C431.49 59.054 429.106 58.9652 426.81 57.9884C422.484 56.2123 420.1 51.861 420.63 47.2432C421.071 43.9575 422.131 41.027 424.338 38.4517C426.81 35.61 429.989 34.1892 433.609 33.5675C435.463 33.3011 437.405 33.2123 439.26 33.5675C442.791 34.1892 445.705 35.8764 447.206 39.3397C447.382 39.695 447.471 40.139 447.912 40.2278C448.001 42.8031 448.001 45.3784 448.001 47.9536ZM441.379 43.9575C441.379 40.9382 440.319 39.0733 438.112 38.3629C435.286 37.3861 431.666 38.6293 429.9 41.027C428.046 43.6023 427.34 46.444 427.517 49.5521C427.693 51.5946 429.282 53.5482 431.225 54.0811C434.492 54.9691 437.847 53.5482 439.524 50.5289C440.76 48.4865 441.467 46.3552 441.379 43.9575Z" fill="#444A50"/>
<path d="M242.543 50.7065C243.072 45.1119 244.485 40.0501 245.545 34.8108C245.721 34.1003 246.163 33.7451 246.869 33.7451C248.105 33.7451 249.253 33.7451 250.489 33.7451C251.46 33.7451 251.725 34.1003 251.549 35.0772C250.577 39.3397 249.694 43.5135 248.723 47.776C248.017 50.7953 247.399 53.8146 246.781 56.9227C246.604 57.9884 246.163 58.5212 244.927 58.4324C243.602 58.3436 242.278 58.3436 240.953 58.4324C240.07 58.4324 239.541 58.0772 239.276 57.2779C237.245 52.2162 234.949 47.2432 233.449 42.0038C233.36 41.8262 233.272 41.5598 233.007 41.027C232.566 43.0694 232.212 44.8455 231.859 46.5328C231.153 50.0849 230.358 53.5482 229.652 57.1003C229.475 58.0772 228.946 58.5212 227.974 58.5212C226.827 58.4324 225.767 58.4324 224.619 58.5212C223.56 58.61 223.383 58.0772 223.56 57.1891C224.354 53.4594 225.237 49.8185 226.032 46.0887C226.827 42.4478 227.709 38.8957 228.416 35.2548C228.681 34.1891 229.122 33.8339 230.182 33.8339C231.683 33.9227 233.184 33.9227 234.685 33.8339C235.832 33.7451 236.362 34.1891 236.715 35.2548C238.57 40.1389 240.689 44.9343 242.101 49.9961C242.278 50.0849 242.366 50.2625 242.543 50.7065Z" fill="#444A50"/>
<path d="M280.244 58.4324C279.449 58.4324 278.654 58.4324 277.86 58.4324C277.153 58.4324 276.447 58.3436 276.005 57.8108C275.387 57.0116 274.681 57.278 273.886 57.6332C269.913 59.4093 265.763 59.6757 261.79 57.722C258.082 55.8572 257.464 51.0618 260.289 48.1313C261.437 46.9768 262.673 46 264.174 45.3784C265.057 45.0232 265.234 44.668 264.792 43.6911C262.938 40.139 264.262 36.4981 267.883 34.722C270.708 33.3012 273.71 33.1236 276.712 34.1892C278.566 34.8108 279.979 36.0541 280.332 38.0965C280.773 40.3166 279.89 42.1815 278.036 43.5135C276.888 44.3128 275.652 45.0232 274.416 45.556C273.622 45.9112 273.622 46.3552 274.151 46.888C274.858 47.7761 275.652 48.6641 276.359 49.5521C276.888 50.1738 277.33 50.085 277.86 49.5521C279.007 48.3977 279.714 46.9768 280.332 45.4672C280.773 44.4904 281.391 44.0463 282.451 44.1351C283.599 44.224 284.747 44.1351 285.894 44.1351C286.512 44.1351 286.777 44.4016 286.512 45.0232C285.188 48.1313 283.422 50.8842 280.95 53.1931C280.244 53.8147 280.332 54.1699 280.862 54.7915C281.656 55.7684 282.539 56.6564 283.422 57.6332C283.599 57.8108 283.952 57.9884 283.775 58.3436C283.687 58.61 283.334 58.5213 283.157 58.5213C282.186 58.4324 281.215 58.4324 280.244 58.4324ZM269.295 54.8803C270.178 54.7027 271.061 54.6139 271.856 54.1699C272.297 53.9035 272.385 53.6371 272.032 53.1931C270.708 51.6834 269.472 50.085 268.147 48.4865C267.883 48.2201 267.618 47.8649 267.264 48.1313C266.205 48.9305 265.234 49.8185 265.145 51.2394C265.057 52.5714 265.763 53.4595 266.735 54.0811C267.529 54.6139 268.412 54.7027 269.295 54.8803ZM274.681 39.251C274.769 37.6525 273.445 36.6757 271.944 37.1197C269.737 37.7413 269.03 40.7606 270.62 42.3591C270.796 42.5367 270.973 42.6255 271.238 42.6255C272.474 42.5367 274.593 40.4942 274.681 39.251Z" fill="#444A50"/>
<path d="M328.452 58.9653C325.361 58.9653 322.713 58.4324 320.417 56.834C318.121 55.2355 316.797 53.0155 316.532 50.2626C315.649 41.4711 321.3 34.6332 330.041 33.5676C332.336 33.3012 334.544 33.39 336.751 34.1004C341.078 35.3436 343.55 38.2741 343.903 42.8031C344.256 46.7104 343.197 50.4402 340.724 53.5483C338.34 56.5676 335.25 58.166 331.542 58.7877C330.394 58.8765 329.246 59.0541 328.452 58.9653ZM323.154 47.8649C323.154 50.8842 324.037 52.8379 326.421 53.9035C329.246 55.1467 332.955 53.9923 334.897 51.2394C336.398 49.0193 337.016 46.5328 337.193 43.9575C337.369 41.2046 335.957 39.0734 333.749 38.3629C331.718 37.7413 329.688 37.9189 327.834 39.0734C324.39 41.2935 323.419 44.668 323.154 47.8649Z" fill="#444A50"/>
<path d="M389.815 45.3783C390.433 45.8223 390.962 46.0887 391.492 46.5327C394.582 49.2856 394.229 53.5482 390.786 56.1235C388.755 57.6331 386.371 58.2547 383.899 58.5212C380.191 58.9652 376.482 58.7876 372.686 58.5212C371.538 58.4324 371.538 57.8107 371.714 56.9227C372.774 52.1273 373.833 47.2432 374.893 42.4478C375.423 40.2277 375.952 37.9188 376.394 35.6988C376.571 34.6331 377.012 34.1003 378.248 34.0115C381.868 33.6563 385.488 33.3011 389.196 34.1003C390.433 34.3667 391.58 34.8107 392.552 35.5212C395.642 37.5636 395.73 41.6486 392.728 43.8686C391.845 44.4015 390.874 44.7567 389.815 45.3783ZM380.632 54.3474C382.398 54.3474 384.075 54.081 385.488 53.1042C386.459 52.3937 386.989 51.5057 386.813 50.2625C386.636 49.0192 385.753 48.3088 384.694 47.9536C383.457 47.5096 382.133 47.6872 380.809 47.6872C380.191 47.6872 379.926 48.1312 379.837 48.664C379.484 50.0849 379.219 51.5057 378.866 52.9266C378.601 53.9922 378.954 54.4362 380.014 54.3474C380.191 54.3474 380.367 54.3474 380.632 54.3474ZM384.252 37.83C383.281 37.83 382.31 37.83 382.045 38.9845C381.78 40.2277 381.515 41.3822 381.25 42.6254C381.162 42.9806 381.162 43.3358 381.603 43.5134C382.928 44.0463 386.989 42.8918 387.872 41.7374C388.755 40.5829 388.402 39.0733 387.077 38.4517C386.106 38.0076 385.135 37.9188 384.252 37.83Z" fill="#444A50"/>
<path d="M175.262 58.4325C174.997 58.4325 174.732 58.4325 174.467 58.4325C171.907 58.4325 171.907 58.4325 171.553 55.8572C171.377 54.4364 171.288 53.1043 171.024 51.6835C170.582 49.4634 168.287 48.2202 166.167 48.9306C165.461 49.197 165.461 49.7298 165.373 50.2626C164.843 52.4827 164.402 54.614 163.96 56.8341C163.784 57.9885 163.254 58.6101 161.929 58.4325C160.782 58.3437 159.634 58.3437 158.486 58.4325C157.338 58.5213 157.25 57.8997 157.515 57.0117C158.398 53.0155 159.281 49.0194 160.252 45.0233C160.958 42.0039 161.665 39.0734 162.194 36.0541C162.459 34.7221 162.989 34.1005 164.402 33.9229C168.022 33.5677 171.553 33.3012 175.173 34.0117C176.498 34.2781 177.734 34.8109 178.793 35.4325C181.531 37.1198 182.06 41.3823 179.765 43.9576C178.705 45.1121 177.469 45.9113 176.056 46.4441C175.615 46.6217 174.997 46.7993 175.615 47.3321C177.292 48.753 177.292 50.8843 177.557 52.8379C177.734 54.3476 177.822 55.8572 178.175 57.3669C178.352 58.2549 178.087 58.4325 177.292 58.4325C176.763 58.4325 175.968 58.4325 175.262 58.4325ZM168.022 44.8456C168.993 44.7568 169.964 44.668 170.935 44.4016C171.995 44.1352 172.966 43.6912 173.672 42.892C175.173 41.2047 174.644 39.0734 172.525 38.363C171.377 38.0078 170.317 38.0078 169.081 38.0966C168.375 38.1854 168.022 38.4518 167.845 39.1622C167.492 40.6719 167.227 42.0928 166.874 43.6024C166.697 44.5792 167.139 44.8456 168.022 44.8456Z" fill="#444A50"/>
<path d="M413.389 58.4324C413.212 58.4324 413.036 58.4324 412.947 58.4324C409.945 58.4324 409.945 58.4324 409.681 55.4131C409.592 54.3475 409.504 53.3706 409.416 52.305C409.151 49.6409 407.208 48.3089 404.648 48.8417C404.03 49.0193 403.853 49.3745 403.765 49.9073C403.235 52.2162 402.705 54.5251 402.264 56.834C401.999 57.9884 401.558 58.5212 400.321 58.4324C399.174 58.3436 398.026 58.4324 396.878 58.4324C395.995 58.4324 395.554 58.0772 395.819 57.1004C397.496 49.8185 399.085 42.5367 400.763 35.3436C400.94 34.6332 401.204 34.1892 401.999 34.1004C405.884 33.5675 409.769 33.3011 413.654 34.1004C414.713 34.3668 415.773 34.6332 416.744 35.2548C420.806 37.6525 420.541 43.0695 416.303 45.7336C415.596 46.1776 414.448 46.3552 414.095 46.9768C413.742 47.6872 414.89 48.2201 415.243 48.9305C416.038 50.7953 415.949 52.749 416.303 54.7027C416.479 55.5907 416.479 56.4787 416.744 57.278C417.009 58.3436 416.656 58.5212 415.685 58.5212C414.713 58.4324 414.007 58.4324 413.389 58.4324ZM406.502 44.8455C407.562 44.6679 408.886 44.6679 410.122 44.1351C411.182 43.6911 412.065 42.9807 412.506 41.915C413.124 40.4942 412.683 39.3397 411.27 38.6293C410.122 38.0077 408.974 38.0965 407.826 38.0965C406.59 38.0965 406.149 38.6293 405.972 39.7838C405.796 41.027 405.443 42.2702 405.178 43.5135C404.824 44.6679 405.001 44.8455 406.502 44.8455Z" fill="#444A50"/>
<path d="M352.908 33.8339C353.526 33.8339 354.144 33.8339 354.85 33.8339C355.91 33.7451 356.086 34.1891 355.821 35.1659C354.85 39.5173 353.879 43.7798 352.908 48.1312C352.819 48.4864 352.819 48.9304 352.731 49.2856C352.29 51.0617 352.555 52.5713 354.144 53.6369C355.91 54.7026 357.676 54.6138 359.441 53.6369C361.031 52.7489 361.825 51.2393 362.355 49.552C363.415 45.9111 364.033 42.1813 364.916 38.5404C365.18 37.2972 365.445 36.1427 365.71 34.8995C365.887 34.1891 366.328 33.8339 367.035 33.8339C368.271 33.8339 369.419 33.8339 370.655 33.8339C372.244 33.8339 372.332 33.9227 371.979 35.6099C371.273 38.8956 370.478 42.1813 369.772 45.5559C369.242 48.0423 368.712 50.44 367.564 52.7489C365.887 56.2122 363.061 58.1659 359.353 58.7875C357.146 59.1427 354.85 59.2315 352.554 58.7875C348.846 58.1659 346.109 55.3242 346.197 51.4169C346.286 47.7759 347.433 44.4014 348.052 40.8493C348.405 38.9844 348.934 37.2084 349.288 35.3435C349.464 34.2779 349.994 33.8339 351.054 33.9227C351.672 33.8339 352.29 33.8339 352.908 33.8339Z" fill="#444A50"/>
<path d="M147.715 33.834C148.686 33.834 149.746 33.834 150.717 33.834C151.512 33.834 151.865 34.1004 151.953 34.8996C152.571 39.4286 153.189 43.8687 153.807 48.3977C154.161 51.2394 154.602 53.9923 154.955 56.834C155.132 58.3436 155.043 58.5212 153.542 58.5212C152.306 58.5212 150.982 58.5212 149.746 58.5212C148.775 58.5212 148.333 58.166 148.333 57.1892C148.333 56.0348 148.157 54.8803 148.068 53.7259C147.98 52.6602 147.539 52.2162 146.479 52.305C144.713 52.3938 142.859 52.305 141.093 52.305C140.21 52.305 139.68 52.5714 139.327 53.3707C138.621 54.7915 137.738 56.2124 137.032 57.722C136.678 58.3436 136.237 58.61 135.531 58.61C134.03 58.61 132.617 58.61 131.116 58.61C129.968 58.61 129.88 58.4324 130.41 57.3668C132.087 54.3475 133.765 51.417 135.531 48.4865C138.003 44.2239 140.475 39.9614 142.859 35.61C143.477 34.4556 144.183 33.834 145.419 34.0116C146.126 33.834 146.92 33.834 147.715 33.834ZM146.479 38.807C145.243 41.7375 143.742 44.4016 142.329 47.0656C142.064 47.5985 142.153 47.9537 142.771 47.9537C144.095 47.9537 145.419 47.9537 146.656 47.9537C147.274 47.9537 147.539 47.5985 147.45 46.9768C147.274 45.556 147.274 44.0463 147.009 42.6255C146.832 41.3822 147.185 40.139 146.479 38.807Z" fill="#444A50"/>
<path d="M211.109 58.4324C208.637 58.4324 206.165 58.4324 203.693 58.4324C202.368 58.4324 202.192 58.2548 202.456 56.9227C204.046 49.8185 205.547 42.803 207.136 35.6988C207.577 33.7451 207.577 33.7451 209.52 33.7451C214.023 33.7451 218.614 33.7451 223.117 33.7451C224.618 33.7451 224.795 33.9227 224.441 35.3436C223.47 38.8957 224.441 38.5405 220.468 38.5405C218.437 38.5405 216.495 38.6293 214.464 38.5405C213.316 38.5405 212.698 38.8069 212.522 40.0501C212.434 40.8494 212.169 41.5598 211.992 42.359C211.815 43.247 212.08 43.6023 213.052 43.6023C215.524 43.6023 217.996 43.6023 220.468 43.6023C221.881 43.6023 221.969 43.7799 221.616 45.1119C220.821 48.4864 221.616 48.1312 217.908 48.1312C215.877 48.1312 213.935 48.1312 211.904 48.1312C211.109 48.1312 210.579 48.3976 210.403 49.2857C210.226 50.3513 209.961 51.4169 209.696 52.3938C209.432 53.5482 209.608 53.8146 210.844 53.8146C213.581 53.8146 216.318 53.8146 219.056 53.8146C220.645 53.8146 220.733 53.9034 220.38 55.4131C219.585 58.61 220.203 58.3436 216.672 58.3436C214.994 58.4324 213.052 58.4324 211.109 58.4324Z" fill="#444A50"/>
<path d="M188.772 58.9654C186.388 58.9654 184.004 58.6101 181.709 57.8109C180.737 57.4557 180.384 57.0117 180.914 56.0349C180.914 55.9461 181.002 55.8573 181.002 55.7684C182.15 52.7491 182.15 52.7491 185.24 53.5484C187.271 54.0812 189.302 54.4364 191.333 53.9036C191.951 53.726 192.569 53.4596 193.01 53.0156C193.893 52.1275 193.893 50.9731 193.01 49.9962C192.392 49.2858 191.598 48.9306 190.891 48.4866C189.125 47.5098 187.271 46.7993 185.77 45.2897C183.21 42.892 183.651 39.1623 185.682 36.8534C187.271 34.9885 189.478 34.1005 191.774 33.5677C194.953 32.8573 198.131 33.1237 201.221 34.0117C202.193 34.2781 202.458 34.8109 201.928 35.699C201.575 36.3206 201.221 37.031 201.045 37.7414C200.692 38.8071 200.162 39.0735 199.102 38.6295C197.69 38.0966 196.189 37.8302 194.688 37.919C193.628 38.0078 192.569 38.2742 191.686 38.9847C190.626 39.8727 190.626 40.8495 191.598 41.8264C192.216 42.3592 193.01 42.8032 193.717 43.1584C195.041 43.8688 196.542 44.4905 197.778 45.3785C202.104 48.2202 201.045 53.9036 197.601 56.3013C194.953 58.4325 191.951 58.9654 188.772 58.9654Z" fill="#444A50"/>
<path d="M308.055 33.834C311.145 33.834 314.147 33.834 317.238 33.834C318.739 33.834 318.827 33.9228 318.562 35.4325C317.767 38.6294 317.767 38.6294 314.412 38.6294C313.441 38.6294 312.47 38.7182 311.587 38.6294C310.527 38.5406 310.086 38.9846 309.909 39.9614C308.761 45.556 307.525 51.0618 306.289 56.6564C305.936 58.4325 305.848 58.4325 304.082 58.4325C303.022 58.4325 301.963 58.4325 300.903 58.4325C299.667 58.4325 299.491 58.166 299.755 56.9228C300.992 51.2394 302.228 45.556 303.464 39.8726C303.729 38.8958 303.464 38.4518 302.404 38.5406C300.727 38.6294 299.049 38.5406 297.372 38.5406C296.489 38.5406 296.224 38.1854 296.489 37.3861C297.548 33.0348 296.754 33.834 300.815 33.7452C303.199 33.7452 305.583 33.834 308.055 33.834Z" fill="#444A50"/>
<path d="M119.815 58.4323C117.431 58.4323 114.959 58.4323 112.575 58.4323C111.515 58.4323 111.251 57.9883 111.515 57.0115C113.105 49.8184 114.782 42.5366 116.283 35.3435C116.548 34.1003 117.078 33.6563 118.314 33.7451C119.462 33.8339 120.61 33.8339 121.757 33.7451C122.905 33.6563 122.994 34.2779 122.817 35.1659C122.111 38.274 121.404 41.2933 120.786 44.4015C120.168 47.0655 119.638 49.7296 119.02 52.3049C118.756 53.2818 119.109 53.637 120.08 53.637C122.729 53.637 125.378 53.637 128.115 53.637C129.527 53.637 129.704 53.8146 129.439 55.1466C128.644 59.054 128.998 58.3435 125.554 58.4323C123.523 58.5211 121.669 58.4323 119.815 58.4323Z" fill="#444A50"/>
<mask id="mask0_2034_4369" style="mask-type:luminance" maskUnits="userSpaceOnUse" x="0" y="0" width="93" height="92">
<path d="M46.5308 92C71.7901 92 92.2667 71.4051 92.2667 46C92.2667 20.5949 71.7901 0 46.5308 0C21.2716 0 0.794922 20.5949 0.794922 46C0.794922 71.4051 21.2716 92 46.5308 92Z" fill="white"/>
</mask>
<g mask="url(#mask0_2034_4369)">
<path d="M51.7397 0.355212C51.2982 0.355212 50.8567 0.355212 50.327 0.355212C56.7724 0.976834 62.7763 3.01931 68.4271 6.12741C71.2525 7.63707 73.7247 9.59073 76.1969 11.6332C80.7882 15.5405 84.2316 20.2471 86.9687 25.5753C89.176 29.9266 90.5887 34.4556 91.295 39.3398C91.8248 42.7143 91.9131 46.1776 91.6482 49.5521C91.3833 54.6139 90.1472 59.4981 88.1165 64.2934C85.4677 70.5985 81.5828 76.0154 76.4618 80.5444C71.2525 85.1622 65.3368 88.5367 58.5382 90.4015C56.6841 90.9344 54.9182 91.3784 53.0641 91.6448C52.7992 91.6448 52.6226 91.8224 52.7109 92.0888C48.2079 92.0888 43.6167 92.0888 39.1137 92.0888C39.2903 91.6448 38.9371 91.6448 38.6723 91.6448C36.4649 91.3784 34.3459 90.8456 32.3151 90.2239C26.4878 88.1815 21.1019 85.251 16.4224 81.2548C12.0077 77.5251 8.38767 73.0849 5.65058 68.0232C2.7369 62.695 1.05933 57.0116 0.352987 51.0618C0.352987 51.5058 0.352987 51.861 0.352987 52.305C0.352987 65.0039 0.352987 77.7915 0.352987 90.4903C0.352987 91.0232 0.352987 91.556 0.264693 92C-0.265066 91.8224 -0.000186298 91.3784 -0.000186298 91.0232C-0.000186298 75.8378 -0.000186298 60.6525 -0.000186298 45.556C-0.000186298 30.7259 -0.000186298 15.8958 -0.000186298 0.976834C-0.000186298 0.266409 0.1764 0 0.97104 0M57.4787 52.9266C53.8587 52.9266 50.5036 52.9266 47.1484 52.9266C45.7357 52.9266 45.7357 52.9266 46.3538 51.6834C48.2962 48.2201 50.2387 44.668 52.1811 41.2046C52.5343 40.583 52.8875 40.4942 53.5055 40.4942C63.4827 40.4942 73.3715 40.4942 83.3487 40.4942C84.3199 40.4942 84.4082 40.7606 83.9667 41.5598C81.936 45.2008 79.9052 48.8417 77.9628 52.4826C77.6979 53.0154 77.2564 53.0154 76.7267 53.0154C73.1949 53.0154 69.7515 53.0154 66.2198 53.0154C65.3368 53.0154 64.8954 53.3707 64.5422 54.0811C63.9241 55.3243 63.3061 56.4788 62.5997 57.722C59.8626 62.7838 57.0373 67.7568 54.3002 72.8185C52.446 76.1931 50.5919 79.4788 48.7377 82.7645C48.1196 83.8301 47.5899 84.8958 46.9718 86.139C49.444 86.0502 51.6514 85.7838 53.8587 85.3398C58.45 84.4517 62.7763 82.8533 66.6612 80.278C70.193 78.0579 73.3715 75.4826 76.1086 72.2857C78.3159 69.6216 80.3467 66.7799 81.8477 63.6718C84.055 59.1429 85.2911 54.3475 85.7326 49.3745C86.0857 45.6448 85.8209 41.9151 85.1145 38.2741C83.9667 32.5907 81.6711 27.4402 78.2276 22.7336C74.6959 17.9382 70.3695 14.0309 65.0719 11.1892C58.8031 7.81467 52.1811 6.21622 45.206 6.21622C43.4401 6.21622 42.1157 6.66023 41.5859 8.5251C41.4976 8.7027 41.4094 8.88031 41.3211 9.05791C38.1425 14.7413 35.0522 20.4247 31.8737 26.0193C30.1078 29.2162 28.2537 32.4131 26.4878 35.6988C25.6932 37.2085 24.6336 38.7181 24.1039 40.4942C32.2269 40.4942 40.1732 40.4942 48.2079 40.4942C46.0889 44.4015 43.9699 48.1313 41.9391 51.861C41.4976 52.5714 41.0562 52.8378 40.1733 52.8378C30.461 52.8378 20.6604 52.8378 10.9482 52.8378C10.595 52.8378 10.1535 52.8378 9.53549 52.8378C17.6585 38.0077 25.8697 23.1776 34.081 8.34749C33.7278 8.34749 33.5513 8.34749 33.3747 8.43629C32.4917 8.79151 31.5205 9.14672 30.6376 9.50193C23.3975 12.5212 17.6585 17.4054 13.2438 23.888C9.80037 28.9498 7.68133 34.5444 6.79839 40.6718C6.26864 44.2239 6.18034 47.6873 6.7101 51.2394C7.23986 56.3012 8.82914 61.1853 11.3896 65.7143C14.4799 71.2201 18.6297 75.749 23.839 79.2124C28.4302 82.3205 33.463 84.3629 38.9371 85.4286C39.4669 85.5174 39.6435 85.3398 39.8201 84.9846C42.822 79.4788 45.824 74.0618 48.826 68.556C50.1504 66.0695 51.5631 63.6718 52.9758 61.2741C54.4768 58.61 55.8894 55.8571 57.4787 52.9266ZM0.352987 1.59846C0.352987 14.4749 0.352987 27.3514 0.352987 40.2278C0.352987 40.583 0.352987 40.9382 0.352987 41.2046C2.7369 19.8031 19.6009 2.57529 41.6742 0.355212C41.3211 0.355212 40.9679 0.355212 40.6147 0.355212" fill="#444A50"/>
</g>
</g>
<defs>
<clipPath id="clip0_2034_4369">
<rect width="448" height="92" fill="white"/>
</clipPath>
</defs>
</svg>
