<svg width="40" height="40" viewBox="0 0 40 40" fill="none" xmlns="http://www.w3.org/2000/svg">
<path d="M26.6665 13.3333C29.3187 13.3333 31.8622 14.3868 33.7376 16.2622C35.6129 18.1375 36.6665 20.6811 36.6665 23.3333V34.9999H29.9998V23.3333C29.9998 22.4492 29.6486 21.6014 29.0235 20.9762C28.3984 20.3511 27.5506 19.9999 26.6665 19.9999C25.7824 19.9999 24.9346 20.3511 24.3095 20.9762C23.6844 21.6014 23.3332 22.4492 23.3332 23.3333V34.9999H16.6665V23.3333C16.6665 20.6811 17.7201 18.1375 19.5954 16.2622C21.4708 14.3868 24.0143 13.3333 26.6665 13.3333Z" stroke="
#183D6D" stroke-width="2" stroke-linecap="round" stroke-linejoin="round"/>
<path d="M10.0002 15H3.3335V35H10.0002V15Z" stroke="
#183D6D" stroke-width="2" stroke-linecap="round" stroke-linejoin="round"/>
<path d="M6.66683 9.99992C8.50778 9.99992 10.0002 8.50753 10.0002 6.66659C10.0002 4.82564 8.50778 3.33325 6.66683 3.33325C4.82588 3.33325 3.3335 4.82564 3.3335 6.66659C3.3335 8.50753 4.82588 9.99992 6.66683 9.99992Z" stroke="
#183D6D" stroke-width="2" stroke-linecap="round" stroke-linejoin="round"/>
</svg>
