<svg width="200" height="81" viewBox="0 0 200 81" fill="none" xmlns="http://www.w3.org/2000/svg">
<path d="M7.42216 52.7454C7.42216 52.0164 7.21388 51.4437 6.74527 51.0271C6.27665 50.6106 5.8601 50.4023 5.44356 50.4023C4.19391 50.4023 3.56909 50.0378 3.56909 49.2568C3.56909 48.3716 4.03771 47.903 4.92287 47.903C5.18321 47.903 5.65183 47.9551 6.38079 48.1113C7.10975 48.2675 7.63043 48.3196 7.99491 48.3196C8.51559 48.3196 8.98421 48.2675 9.55696 48.1113C10.0776 48.0071 10.4421 47.903 10.6504 47.903C11.2232 47.903 11.5876 48.0592 11.7959 48.3196C12.0042 48.5799 12.1083 49.7254 12.2125 51.704C12.3166 53.6826 12.3166 55.9736 12.3166 58.6291L12.2645 64.0442C12.2645 64.9815 12.3166 65.6063 12.4207 65.8146C12.5249 66.0749 12.7852 66.2832 13.1497 66.4914C13.5142 66.6997 13.9828 66.8559 14.5035 66.908C15.0242 66.9601 15.3886 67.0642 15.649 67.2204C15.9093 67.3766 16.0135 67.637 16.0135 68.1056C16.0135 68.8345 15.4928 69.199 14.4514 69.199C13.6704 69.199 12.8893 69.1469 12.1083 68.9907C11.3273 68.8345 10.5463 68.7825 9.76524 68.7825C9.14042 68.7825 8.35939 68.8345 7.47423 68.9907C6.58906 69.1469 5.91217 69.199 5.44356 69.199C4.29805 69.199 3.7253 68.8866 3.7253 68.2097C3.7253 67.689 3.82943 67.3766 4.03771 67.2204C4.24598 67.0642 4.66253 66.9601 5.23528 66.8559C5.80804 66.8039 6.27665 66.5956 6.64113 66.3352C7.00561 66.0749 7.21388 65.7625 7.31802 65.3459C7.42216 64.9294 7.47423 64.0963 7.47423 62.7946V52.7454H7.42216ZM21.5327 52.6412C21.5327 52.1726 21.3244 51.8081 20.9079 51.4957C20.4913 51.1833 20.0748 51.0271 19.6062 51.0271C18.5648 51.0271 17.3672 51.5999 15.9614 52.7974C15.1283 53.5264 14.5555 53.8909 14.1911 53.8909C13.6704 53.8909 13.41 53.6305 13.41 53.1619C13.41 52.1206 14.3993 50.8709 16.3259 49.4651C18.2524 48.0592 20.0227 47.3823 21.5327 47.3823C22.8344 47.3823 24.032 47.8509 25.0213 48.7882C26.0106 49.7254 26.5313 50.8188 26.5313 52.1206L26.4792 64.6691C26.4792 65.2939 26.6875 65.8666 27.1561 66.2832C27.5726 66.6997 28.0933 66.908 28.7182 66.908C29.7595 66.908 30.2802 67.3245 30.2802 68.1576C30.2802 68.8866 29.7075 69.2511 28.614 69.2511C28.5099 69.2511 27.8851 69.199 26.7396 69.0428C25.6461 68.8866 24.7089 68.8345 23.9799 68.8345C22.7303 68.8345 21.6889 68.8866 20.8558 69.0428C20.0227 69.199 19.45 69.2511 19.1896 69.2511C18.8251 69.2511 18.5127 69.1469 18.2003 68.8866C17.94 68.6263 17.7838 68.3138 17.7838 67.9494C17.7838 67.3766 18.1483 67.0642 18.8772 67.0642C19.5541 67.0642 20.1789 66.8559 20.7517 66.4394C21.3244 66.0228 21.6368 65.398 21.6368 64.5128V52.6412H21.5327ZM35.6953 52.6412C35.6953 52.1726 35.4871 51.8081 35.0705 51.4957C34.654 51.1833 34.2374 51.0271 33.7688 51.0271C32.9357 51.0271 31.9464 51.4957 30.7488 52.433C29.5512 53.3702 28.7702 53.8388 28.3537 53.8388C28.0933 53.8388 27.8851 53.7867 27.6768 53.6305C27.4685 53.4743 27.3644 53.3181 27.3644 53.1099C27.3644 52.1726 28.2495 51.0271 30.0719 49.5692C31.8943 48.1634 33.7688 47.4344 35.6433 47.4344C37.8301 47.4344 39.3401 48.3716 40.1211 50.194C40.4336 50.7668 40.5377 53.8388 40.5377 59.3581L40.4856 64.617C40.4856 65.2939 40.6418 65.7625 41.0063 66.127C41.3708 66.4394 41.8915 66.6997 42.6204 66.8559C43.3494 67.0121 43.7659 67.1683 43.9221 67.3766C44.0783 67.5849 44.1304 67.7932 44.1304 68.1056C44.1304 68.8866 43.6097 69.2511 42.6204 69.2511C42.4642 69.2511 41.8394 69.199 40.746 69.0428C39.6525 68.8866 38.7153 68.8345 37.9343 68.8345C37.1532 68.8345 36.3201 68.8866 35.435 69.0428C34.5498 69.199 33.7688 69.2511 33.196 69.2511C32.8316 69.2511 32.5191 69.1469 32.2067 68.8866C31.9464 68.6263 31.7902 68.3138 31.7902 67.9494C31.7902 67.3245 32.2588 66.908 33.2481 66.8559C34.1853 66.7518 34.8622 66.4914 35.1746 66.0749C35.4871 65.6583 35.6433 65.1377 35.6433 64.5128V52.6412H35.6953Z" fill="#FE9601"/>
<path d="M69.4879 63.6277C69.4879 65.1377 70.4772 66.127 72.4558 66.6997C72.9765 66.8559 73.3409 67.0121 73.5492 67.2204C73.8095 67.4287 73.9137 67.7411 73.9137 68.3138C73.9137 68.5742 73.7575 68.8345 73.4451 69.0428C73.1327 69.2511 72.7682 69.3552 72.4037 69.3552C71.9871 69.3552 71.4665 69.2511 70.7896 69.0949C70.1127 68.8866 69.592 68.8345 69.1755 68.8345C68.7068 68.8345 68.082 68.9387 67.3531 69.0949C66.6241 69.3031 66.1555 69.3552 65.8951 69.3552C65.5827 69.3552 65.3224 69.2511 65.062 69.0428C64.8017 68.8345 64.6455 68.6262 64.6455 68.418C64.6455 68.1056 64.5414 67.8973 64.3331 67.8973C64.1769 67.8973 64.0207 67.9494 63.7603 68.1056C61.4173 69.5635 58.918 70.2924 56.2104 70.2924C54.9087 70.2924 53.5029 69.98 51.8887 69.3031C50.3267 68.6262 49.025 67.6369 48.0877 66.2311C47.1505 64.8773 46.6819 63.1591 46.6819 61.1284C46.6819 58.9936 47.7233 57.067 49.7539 55.4009C51.7846 53.7347 54.4401 52.9016 57.7204 52.9016C58.8138 52.9016 60.0114 53.214 61.3131 53.8388C62.6148 54.4636 63.2917 55.0884 63.2917 55.7133C63.2917 56.0257 63.1355 56.286 62.8752 56.4422C62.6148 56.6505 62.2503 56.7026 61.8859 56.7026C61.6255 56.7026 61.1048 56.4943 60.3238 56.1298C59.5428 55.7653 58.7097 55.5571 57.9287 55.5571C56.2104 55.5571 54.8046 56.0777 53.7111 57.067C52.6177 58.0563 52.0449 59.4101 52.0449 61.0763C52.0449 63.0028 52.6698 64.5128 53.9715 65.5542C55.2732 66.5956 56.7311 67.1163 58.3973 67.1163C59.9073 67.1163 61.3131 66.5956 62.5628 65.6063C63.8124 64.617 64.4893 63.3153 64.4893 61.6491V53.266C64.4893 52.0164 64.0727 50.975 63.2396 50.194C62.4066 49.413 61.261 48.9964 59.9073 48.9964C58.1369 48.9964 56.3666 49.5692 54.7004 50.7147C54.1277 51.1312 53.7111 51.2874 53.5029 51.2874C52.9822 51.2874 52.5656 51.1833 52.2532 50.923C51.8887 50.6626 51.7325 50.3502 51.7325 49.9337C51.7325 48.9444 52.6698 48.0592 54.4922 47.3823C56.3666 46.7054 58.3452 46.3409 60.5321 46.3409C63.2397 46.3409 65.4265 47.0178 67.0927 48.3716C68.7589 49.7254 69.592 51.3395 69.592 53.214V63.6277H69.4879Z" fill="#FE9601"/>
<path d="M80.5784 52.7453C80.5784 51.9643 80.4222 51.3915 80.1098 51.0271C79.7974 50.6626 79.1726 50.3502 78.2353 50.194C77.2981 50.0378 76.8295 49.6212 76.8295 48.8923C76.8295 48.5799 76.9857 48.3195 77.3502 48.0071C77.6626 47.7468 78.1312 47.5906 78.6519 47.5906C78.8601 47.5906 79.2767 47.6426 79.8494 47.7988C80.4222 47.955 80.8908 48.0071 81.2553 48.0071C81.4636 48.0071 81.9843 47.955 82.8173 47.7988C83.6504 47.6947 84.1711 47.5906 84.3794 47.5906C84.7959 47.5906 85.1084 47.7468 85.2646 48.1112C85.4208 48.4757 85.5249 49.1526 85.5249 50.194C85.577 51.9122 85.577 53.7346 85.577 55.6612L85.3687 64.5128C85.3687 65.1376 85.4208 65.5542 85.5249 65.7104C85.629 65.8666 85.8894 66.0228 86.2539 66.2831C86.6183 66.4914 87.139 66.6997 87.7118 66.8038C88.3366 66.9079 88.7011 67.1162 88.8573 67.3245C89.0135 67.5328 89.1176 67.7931 89.1176 68.1055C89.1176 68.7824 88.5969 69.1469 87.5035 69.1469C86.7746 69.1469 85.9935 69.0948 85.2125 68.9386C84.4315 68.7824 83.6504 68.7303 82.8694 68.7303C82.2446 68.7303 81.4636 68.7824 80.4743 68.8865C79.485 68.9907 78.756 69.0428 78.2874 69.0428C77.246 69.0428 76.7253 68.6783 76.7253 67.8973C76.7253 67.5848 76.8295 67.2724 76.9857 67.0642C77.194 66.8559 77.5584 66.7517 78.1833 66.6997C78.8601 66.6476 79.3288 66.5435 79.485 66.3873C79.9536 65.8666 80.266 65.45 80.3701 65.0856C80.4743 64.7211 80.5784 63.94 80.5784 62.7945V52.7453ZM99.5834 64.6169C99.5834 65.5021 99.7396 66.0749 100.052 66.3873C100.364 66.6476 100.885 66.9079 101.666 67.0642C102.447 67.2204 102.812 67.5848 102.812 68.0534C102.812 68.7303 102.447 69.0428 101.666 69.0428C101.51 69.0428 100.885 68.9907 99.7917 68.9386C98.6982 68.8866 97.761 68.8345 97.032 68.8345C95.7824 68.8345 94.741 68.8865 93.9079 69.0428C93.0748 69.199 92.5021 69.251 92.2417 69.251C91.8773 69.251 91.5128 69.1469 91.2004 68.8865C90.888 68.6262 90.7318 68.3138 90.7318 67.9493C90.7318 67.689 90.888 67.4286 91.1483 67.1683C91.4086 66.9079 91.7211 66.8038 92.0855 66.8038C92.7624 66.8038 93.3352 66.5955 93.8559 66.2311C94.3765 65.8666 94.6369 65.2938 94.6369 64.5128C94.6369 59.5142 94.689 56.4422 94.741 55.2446C94.7931 54.047 94.8452 53.3702 94.8452 53.266C94.8452 51.6519 94.1162 50.8709 92.6062 50.8709C91.9814 50.8709 91.0442 51.3395 89.8987 52.3288C88.7011 53.3181 87.868 53.7867 87.3994 53.7867C87.2432 53.7867 87.0349 53.6826 86.8266 53.4743C86.6183 53.266 86.5142 53.0577 86.5142 52.7974C86.5142 52.0684 87.4514 50.975 89.378 49.465C91.2524 47.955 93.1269 47.2261 94.9493 47.2261C96.0427 47.2261 96.9279 47.4864 97.7089 48.0592C98.49 48.6319 99.0106 49.3088 99.271 50.1419C99.5313 50.975 99.6355 52.1205 99.6355 53.6305L99.5834 55.6091V64.6169Z" fill="#FE9601"/>
<path d="M110.309 38.8431C110.309 36.5521 110.57 34.6255 111.038 33.1676C111.507 31.7097 112.34 30.3038 113.434 29.0542C114.579 27.8046 115.881 26.7111 117.339 25.7739C118.797 24.8367 119.786 24.368 120.202 24.368C120.515 24.368 120.619 24.7846 120.619 25.6177C120.619 25.7218 120.411 25.9301 120.046 26.2425C118.224 27.6484 116.922 29.3145 116.245 31.3452C115.568 33.3238 115.204 35.5628 115.204 37.9579V48.0071C115.204 48.2675 115.36 48.3716 115.725 48.3716C115.881 48.3716 116.245 48.3195 116.766 48.2675C117.339 48.2154 117.859 48.1633 118.38 48.1633C119.578 48.1633 120.202 48.5799 120.202 49.413C120.202 49.8295 119.994 50.1419 119.63 50.3502C119.213 50.5585 118.797 50.7147 118.224 50.7147C116.245 50.7147 115.256 51.4957 115.256 53.1098V63.8359C115.256 64.8773 115.36 65.5021 115.516 65.7104C115.725 65.9707 115.933 66.179 116.245 66.4914C116.558 66.7518 117.183 66.96 118.172 67.1162C119.161 67.2204 119.734 67.4286 119.994 67.6369C120.202 67.8452 120.359 68.1055 120.359 68.47C120.359 69.3031 119.734 69.7197 118.536 69.7197C117.807 69.7197 116.922 69.6155 115.881 69.4072C114.787 69.199 113.746 69.0948 112.705 69.0948C112.028 69.0948 111.09 69.199 109.893 69.4072C108.695 69.6155 107.914 69.7197 107.602 69.7197C106.3 69.7197 105.623 69.251 105.623 68.3659C105.623 68.0535 105.727 67.8452 105.884 67.6369C106.092 67.4286 106.613 67.2724 107.498 67.1683C108.383 67.0642 109.06 66.8559 109.476 66.5956C109.893 66.3352 110.153 65.9707 110.205 65.5542C110.257 65.1376 110.309 64.2525 110.309 62.8987V53.0057C110.309 51.5478 109.372 50.7667 107.55 50.7667C106.144 50.7667 105.415 50.2981 105.415 49.413C105.415 48.5799 106.144 48.1633 107.602 48.1633C108.123 48.1633 108.591 48.2154 109.112 48.2675C109.581 48.3195 109.893 48.3716 109.997 48.3716C110.257 48.3716 110.362 48.2675 110.362 48.0071V38.8431H110.309Z" fill="white"/>
<path d="M132.335 53.8908L132.439 54.776C132.543 54.776 133.011 53.7867 133.897 51.8081C134.782 49.8295 135.615 48.4236 136.5 47.6426C137.333 46.8095 138.218 46.3929 139.155 46.3929C139.884 46.3929 140.405 46.4971 140.77 46.7574C141.134 47.0178 141.29 47.2781 141.29 47.5905C141.29 48.1112 141.186 48.5798 140.926 48.8922C140.665 49.2046 140.249 49.6212 139.624 50.0898C136.969 52.0684 135.094 54.5156 133.897 57.3794C132.699 60.2432 132.126 62.6383 132.126 64.5128C132.126 65.3979 132.23 66.0227 132.491 66.3352C132.751 66.6476 133.324 66.9079 134.209 67.1162C135.094 67.3245 135.719 67.5848 135.979 67.7931C136.24 68.0534 136.396 68.3138 136.396 68.6782C136.396 69.3031 136.031 69.6155 135.302 69.6155C134.73 69.6155 133.897 69.5113 132.907 69.3551C131.918 69.1989 130.772 69.0948 129.575 69.0948C128.794 69.0948 128.013 69.1989 127.18 69.3551C126.347 69.5634 125.878 69.6155 125.618 69.6155C125.045 69.6155 124.576 69.5113 124.212 69.3031C123.847 69.0948 123.691 68.7824 123.691 68.47C123.691 68.2096 123.795 68.0013 124.004 67.7931C124.212 67.5848 124.733 67.3245 125.67 67.012C126.555 66.6996 127.128 66.3872 127.336 66.0748C127.544 65.7624 127.648 64.8252 127.648 63.159V53.7346C127.648 53.1618 127.492 52.5891 127.232 52.1205C126.971 51.6519 126.399 51.2874 125.566 51.027C124.733 50.7667 124.212 50.5584 124.056 50.3501C123.899 50.1419 123.847 49.9336 123.847 49.7253C123.847 49.0484 124.316 48.684 125.305 48.684C125.566 48.684 126.034 48.736 126.659 48.8402C127.284 48.9443 127.753 48.9964 127.961 48.9964C128.169 48.9964 128.481 48.9443 128.95 48.8922C129.419 48.7881 129.991 48.7881 130.616 48.7881C131.762 48.7881 132.282 49.9857 132.282 52.3808V53.8908H132.335Z" fill="white"/>
<path d="M162.326 56.8067C162.795 56.8067 163.107 56.7025 163.263 56.5463C163.419 56.3901 163.524 56.0777 163.524 55.6612C163.524 54.0991 162.899 52.5891 161.701 51.2354C160.452 49.8816 158.629 49.1526 156.13 49.1526C154.412 49.1526 152.641 49.9857 150.819 51.5998C148.996 53.214 148.059 55.557 148.059 58.5249C148.059 60.7118 149.049 62.6904 150.975 64.4087C152.902 66.179 155.088 67.0121 157.484 67.0121C159.306 67.0121 161.285 66.4393 163.367 65.2938C164.148 64.8773 164.721 64.617 164.929 64.617C165.294 64.617 165.606 64.7211 165.815 64.9294C166.023 65.1376 166.127 65.398 166.127 65.7104C166.127 66.4914 164.981 67.3766 162.69 68.47C160.399 69.5634 158.056 70.0841 155.609 70.0841C152.016 70.0841 148.996 68.8866 146.601 66.4393C144.154 63.9921 142.957 61.0763 142.957 57.7439C142.957 54.6719 144.31 52.0164 146.966 49.8295C149.621 47.6426 152.641 46.5492 155.974 46.5492C160.295 46.5492 163.524 47.6426 165.71 49.8816C167.845 52.1205 168.939 54.7239 168.939 57.8481C168.939 58.5249 168.782 58.9415 168.418 59.0977C168.106 59.2539 167.481 59.306 166.596 59.306H152.381C151.235 59.306 150.663 58.8894 150.663 58.0043C150.663 57.1712 151.287 56.7546 152.485 56.7546H162.326V56.8067Z" fill="white"/>
<path d="M190.078 56.8067C190.547 56.8067 190.859 56.7025 191.016 56.5463C191.172 56.3901 191.276 56.0777 191.276 55.6612C191.276 54.0991 190.651 52.5891 189.454 51.2354C188.204 49.8816 186.382 49.1526 183.882 49.1526C182.164 49.1526 180.394 49.9857 178.571 51.5998C176.749 53.214 175.812 55.557 175.812 58.5249C175.812 60.7118 176.801 62.6904 178.728 64.4087C180.654 66.179 182.841 67.0121 185.236 67.0121C187.058 67.0121 189.037 66.4393 191.12 65.2938C191.901 64.8773 192.474 64.617 192.682 64.617C193.046 64.617 193.359 64.7211 193.567 64.9294C193.775 65.1376 193.879 65.398 193.879 65.7104C193.879 66.4914 192.734 67.3766 190.443 68.47C188.152 69.5634 185.809 70.0841 183.362 70.0841C179.769 70.0841 176.749 68.8866 174.354 66.4393C171.907 63.9921 170.709 61.0763 170.709 57.7439C170.709 54.6719 172.063 52.0164 174.718 49.8295C177.374 47.6426 180.394 46.5492 183.726 46.5492C188.048 46.5492 191.276 47.6426 193.463 49.8816C195.598 52.1205 196.691 54.7239 196.691 57.8481C196.691 58.5249 196.535 58.9415 196.17 59.0977C195.858 59.2539 195.233 59.306 194.348 59.306H180.133C178.988 59.306 178.415 58.8894 178.415 58.0043C178.415 57.1712 179.04 56.7546 180.238 56.7546H190.078V56.8067Z" fill="white"/>
<path d="M102.76 76.9572H3.30884V77.2175H102.76V76.9572Z" fill="#FE9601"/>
<path d="M9.29663 40.9258C10.1297 33.8445 11.2752 26.8153 12.6811 19.8381C13.41 16.2974 14.2431 12.7047 15.4407 9.32025C16.1176 7.49786 16.8466 5.72753 18.1483 4.26961C18.3045 4.16548 18.4086 4.06134 18.5127 4.00927C18.669 3.9572 18.8252 4.00927 18.9814 4.11341C19.3979 4.42582 19.7103 4.89443 20.0227 5.25891C20.3872 5.67546 20.6996 6.09201 21.0641 6.56062C21.741 7.44579 22.3137 8.33095 22.8865 9.26818C24.032 11.0906 25.0213 13.0692 25.9585 14.9957C26.8958 16.9743 27.7809 18.9529 28.6661 20.9836C29.3951 22.6498 30.1761 24.2639 31.0092 25.878C32.2588 28.3773 33.7167 30.6683 35.4871 32.8552C36.4243 34.0007 37.4136 35.0421 38.5591 35.9272C38.9756 36.2396 39.4443 36.5521 39.9649 36.7083C41.8394 37.3331 44.0263 35.6669 45.4321 34.6255C47.3066 33.2717 49.0249 31.7618 50.5869 30.0956C52.2531 28.3252 53.7631 26.4508 55.221 24.5242C56.3144 23.0663 57.2517 21.5563 58.3451 20.1505C59.4385 18.7446 60.5841 17.3909 61.9378 16.1933C63.1354 15.1519 65.0619 13.5378 66.7281 13.8502C67.2488 13.9543 67.7695 14.2668 68.186 14.6312C69.9043 16.1933 71.0498 18.3802 72.0912 20.3588C73.2367 22.4415 74.226 24.6284 75.2153 26.8153C77.1418 31.1369 79.589 35.3024 82.609 38.9993C84.7959 41.7068 87.5555 44.154 91.2524 43.6854C95.0534 43.2168 97.4485 39.8324 99.0106 36.6562C100.156 34.4693 101.302 32.0742 101.51 29.6269C100.677 29.6269 99.8437 29.6269 99.0626 29.6269C99.0626 29.6269 96.1989 39.9365 91.2003 40.4572C91.2003 40.4572 88.5969 41.6548 84.1711 33.6883C83.338 32.1783 82.6611 30.6162 81.88 29.1063C79.8494 25.0449 78.4435 20.6191 76.1525 16.6619C75.2153 14.9957 74.1218 13.3295 72.8722 11.8716C71.8829 10.674 70.7895 9.47646 69.3836 8.79957C67.8736 8.01854 66.1554 8.33095 64.6454 8.85164C61.313 9.94507 58.3451 11.9757 55.7938 14.3709C52.8259 17.1826 50.691 20.6191 48.1397 23.8473C46.9942 25.3053 45.8487 26.8153 44.547 28.169C43.4535 29.3145 42.2039 30.8766 40.4856 30.0956C39.6525 29.7311 39.0277 28.9501 38.507 28.2211C35.4871 24.0556 33.6126 19.2133 31.4778 14.5271C30.2802 11.8716 28.8744 9.26818 27.2082 6.87303C26.0106 5.10271 24.6568 3.33238 22.9906 1.92653C21.8451 0.937232 20.3872 0.0520684 18.8252 0C17.3152 0 15.8573 1.14551 14.92 2.23894C13.5142 3.9572 12.629 6.19615 11.9521 8.22682C8.61974 18.6405 9.97352 29.9394 9.29663 40.9258Z" fill="white"/>
<path d="M192.474 44.0499C190.183 44.0499 188.308 42.1755 188.308 39.8845C188.308 37.5935 190.183 35.719 192.474 35.719C194.765 35.719 196.639 37.5935 196.639 39.8845C196.639 42.1755 194.765 44.0499 192.474 44.0499ZM192.474 36.1876C190.443 36.1876 188.829 37.8538 188.829 39.8324C188.829 41.8631 190.495 43.4772 192.474 43.4772C194.504 43.4772 196.118 41.811 196.118 39.8324C196.118 37.8538 194.504 36.1876 192.474 36.1876Z" fill="#3F3B3B"/>
<path d="M190.807 41.7069V41.4465L191.172 41.3945C191.276 41.3945 191.276 41.3424 191.276 41.2383V38.4786C191.276 38.3745 191.224 38.3745 191.172 38.3224L190.807 38.2704V38.01H191.536C191.693 38.01 191.797 38.01 191.901 38.01C192.005 38.01 192.161 38.01 192.317 38.01C192.786 38.01 193.098 38.1141 193.307 38.2704C193.515 38.4266 193.619 38.6869 193.619 38.9993C193.619 39.2076 193.567 39.3638 193.515 39.52C193.463 39.6762 193.359 39.7283 193.307 39.8324C193.203 39.8845 193.098 39.9886 192.994 39.9886C192.89 40.0407 192.786 40.0407 192.734 40.0407L192.526 40.0927C192.369 40.0927 192.213 40.0927 192.057 40.0927C191.901 40.0927 191.797 40.0927 191.693 40.0927V39.8324C191.745 39.8324 191.849 39.8324 191.953 39.8324C192.057 39.8324 192.161 39.8324 192.213 39.8324C192.317 39.8324 192.369 39.8324 192.421 39.8324C192.63 39.8324 192.786 39.7803 192.89 39.6241C192.994 39.52 193.098 39.3117 193.098 38.9993C193.098 38.8431 193.098 38.6869 193.046 38.5828C192.994 38.4786 192.89 38.3745 192.786 38.3224C192.682 38.2704 192.526 38.2183 192.317 38.2183C192.213 38.2183 192.109 38.2183 192.057 38.2183C191.953 38.2183 191.901 38.2183 191.849 38.2183V41.1862C191.849 41.2383 191.901 41.2903 192.005 41.3424L192.421 41.3945V41.6548H190.807V41.7069ZM193.411 41.7069C193.359 41.7069 193.255 41.6548 193.203 41.5507C193.15 41.4465 193.046 41.2903 192.994 41.1341L192.786 40.6134C192.734 40.4572 192.63 40.301 192.578 40.1969C192.526 40.0928 192.421 39.9886 192.369 39.9886L192.786 39.9365C192.942 39.9886 193.046 40.0928 193.15 40.1448C193.255 40.249 193.307 40.3531 193.411 40.5614L193.775 41.2383C193.827 41.2903 193.827 41.3424 193.879 41.3424C193.931 41.3424 193.931 41.3945 193.984 41.3945L194.244 41.4465V41.7069H193.411Z" fill="#3F3B3B"/>
<path d="M110.622 73.7289H106.456C106.3 73.7289 106.144 73.8851 106.144 74.0413C106.144 74.1975 106.3 74.3537 106.456 74.3537H108.227V79.873C108.227 80.0292 108.383 80.1854 108.539 80.1854C108.695 80.1854 108.852 80.0292 108.852 79.873V74.3537H110.622C110.778 74.3537 110.934 74.1975 110.934 74.0413C110.934 73.8851 110.83 73.7289 110.622 73.7289Z" fill="white"/>
<path d="M118.328 74.3537C118.484 74.3537 118.641 74.1975 118.641 74.0413C118.641 73.8851 118.484 73.7289 118.328 73.7289H114.475V74.0413V74.3537V76.6447V77.2695V79.5605V79.873V80.1854H118.328C118.484 80.1854 118.641 80.0292 118.641 79.873C118.641 79.7168 118.484 79.5605 118.328 79.5605H115.1V77.2695H117.547C117.703 77.2695 117.86 77.1133 117.86 76.9571C117.86 76.8009 117.703 76.6447 117.547 76.6447H115.1V74.3537H118.328Z" fill="white"/>
<path d="M186.486 74.3537C186.642 74.3537 186.798 74.1975 186.798 74.0413C186.798 73.8851 186.642 73.7289 186.486 73.7289H182.633V74.0413V74.3537V76.6447V77.2695V79.5605V79.873V80.1854H186.486C186.642 80.1854 186.798 80.0292 186.798 79.873C186.798 79.7168 186.642 79.5605 186.486 79.5605H183.257V77.2695H185.705C185.861 77.2695 186.017 77.1133 186.017 76.9571C186.017 76.8009 185.861 76.6447 185.705 76.6447H183.257V74.3537H186.486Z" fill="white"/>
<path d="M158.317 79.5605H155.088V74.0413C155.088 73.8851 154.932 73.7289 154.776 73.7289C154.62 73.7289 154.464 73.8851 154.464 74.0413V79.5605V79.873V80.1854H158.317C158.473 80.1854 158.629 80.0292 158.629 79.873C158.629 79.7168 158.473 79.5605 158.317 79.5605Z" fill="white"/>
<path d="M178.832 73.7289C178.675 73.7289 178.519 73.8851 178.519 74.0413V79.873C178.519 80.0292 178.675 80.1854 178.832 80.1854C178.988 80.1854 179.144 80.0292 179.144 79.873V74.0413C179.092 73.8851 178.988 73.7289 178.832 73.7289Z" fill="white"/>
<path d="M134.365 73.7289C134.209 73.7289 134.053 73.8851 134.053 74.0413V76.8009H130.773V74.0413C130.773 73.8851 130.616 73.7289 130.46 73.7289C130.304 73.7289 130.148 73.8851 130.148 74.0413V79.873C130.148 80.0292 130.304 80.1854 130.46 80.1854C130.616 80.1854 130.773 80.0292 130.773 79.873V77.4257H134.053V79.873C134.053 80.0292 134.209 80.1854 134.365 80.1854C134.521 80.1854 134.678 80.0292 134.678 79.873V74.0413C134.626 73.8851 134.521 73.7289 134.365 73.7289Z" fill="white"/>
<path d="M124.108 73.6769C123.17 73.781 122.598 74.6141 122.389 75.4472C121.921 77.0613 122.129 79.5606 124.16 79.9251C125.045 80.0813 125.878 79.7168 126.347 78.9879C126.555 78.6755 126.086 78.4151 125.878 78.7275C125.201 79.7689 123.639 79.6127 123.066 78.5713C122.65 77.8944 122.65 76.9051 122.806 76.1241C122.91 75.4472 123.17 74.6662 123.847 74.3538C124.68 73.9893 125.67 74.51 126.086 75.2389C126.243 75.5514 126.711 75.291 126.555 74.9786C126.086 74.0934 125.097 73.5207 124.108 73.6769Z" fill="white"/>
<path d="M141.759 74.1455C141.082 73.6248 140.145 73.5207 139.364 73.9372C138.531 74.3538 138.218 75.2389 138.218 76.1241C138.166 77.3737 138.27 78.6234 138.27 79.873C138.27 80.2375 138.843 80.2375 138.791 79.873C138.791 78.6754 138.739 77.5299 138.739 76.3324C138.739 75.8117 138.791 75.1868 139.155 74.7703C139.468 74.4579 139.884 74.2496 140.353 74.2496C140.874 74.2496 141.342 74.51 141.655 74.8744C142.019 75.3431 142.071 75.9158 142.123 76.4365C142.227 77.582 142.175 78.7275 142.123 79.9251C142.123 80.2896 142.644 80.2896 142.644 79.9251C142.696 78.8316 142.748 77.7382 142.644 76.6968C142.644 75.7075 142.488 74.7182 141.759 74.1455Z" fill="white"/>
<path d="M174.77 76.853C174.718 76.853 174.718 76.853 174.718 76.853H173.521C173.364 76.853 173.208 77.0092 173.208 77.1654C173.208 77.3216 173.364 77.4778 173.521 77.4778H174.406C174.406 77.8944 174.354 78.2588 174.198 78.6233C174.041 78.9878 173.729 79.3002 173.364 79.5085C172.74 79.8209 171.907 79.7167 171.438 79.144C171.126 78.8316 171.021 78.363 170.969 77.9464C170.865 77.4257 170.865 76.905 170.865 76.3844C170.865 75.5513 171.178 74.7182 172.011 74.3537C172.844 74.0413 173.729 74.4578 174.093 75.2909C174.25 75.6033 174.77 75.4471 174.614 75.1347C174.25 74.1975 173.364 73.5727 172.323 73.7289C171.282 73.8851 170.553 74.6661 170.397 75.6554C170.292 76.2802 170.292 76.9571 170.345 77.5819C170.397 78.1547 170.501 78.7274 170.813 79.2481C171.334 80.0812 172.323 80.3936 173.208 80.1333C173.729 79.9771 174.198 79.6126 174.51 79.144C174.874 78.5712 174.874 77.8944 174.927 77.2175C174.979 76.9571 174.874 76.853 174.77 76.853Z" fill="white"/>
<path d="M194.296 77.634C193.879 76.9571 193.098 76.7488 192.369 76.6447C191.953 76.5926 191.432 76.5926 191.12 76.2282C190.859 75.8637 190.807 75.2909 191.016 74.8744C191.276 74.3537 191.849 74.2496 192.317 74.2496C192.942 74.1975 193.515 74.2496 194.14 74.2496C194.504 74.2496 194.504 73.7289 194.14 73.7289C193.619 73.7289 193.098 73.7289 192.578 73.7289C192.109 73.7289 191.64 73.781 191.224 73.9892C190.443 74.3537 190.183 75.343 190.443 76.1761C190.599 76.5926 190.859 76.9051 191.276 77.1133C191.692 77.2695 192.109 77.2695 192.526 77.3216C193.307 77.4257 194.192 77.8944 193.984 78.8316C193.879 79.4043 193.307 79.5606 192.786 79.6126C192.109 79.7168 191.432 79.6647 190.807 79.6647C190.443 79.6647 190.443 80.1854 190.807 80.1854C191.38 80.1854 191.953 80.2374 192.526 80.1854C192.994 80.1333 193.515 80.0812 193.879 79.873C194.608 79.3523 194.712 78.363 194.296 77.634Z" fill="white"/>
<path d="M148.528 73.6248C147.226 73.6248 146.133 74.7182 146.133 76.124V77.7382C146.133 79.0919 147.226 80.2374 148.528 80.2374C149.829 80.2374 150.923 79.144 150.923 77.7382V76.124C150.923 74.7182 149.829 73.6248 148.528 73.6248ZM150.35 77.6861C150.35 78.7275 149.517 79.6126 148.528 79.6126C147.538 79.6126 146.705 78.7275 146.705 77.6861V76.072C146.705 75.0306 147.538 74.1454 148.528 74.1454C149.517 74.1454 150.35 75.0306 150.35 76.072V77.6861Z" fill="white"/>
<path d="M163.836 73.6248C162.534 73.6248 161.441 74.7182 161.441 76.124V77.7382C161.441 79.0919 162.534 80.2374 163.836 80.2374C165.138 80.2374 166.231 79.144 166.231 77.7382V76.124C166.231 74.7182 165.138 73.6248 163.836 73.6248ZM165.658 77.6861C165.658 78.7275 164.825 79.6126 163.836 79.6126C162.847 79.6126 162.013 78.7275 162.013 77.6861V76.072C162.013 75.0306 162.847 74.1454 163.836 74.1454C164.825 74.1454 165.658 75.0306 165.658 76.072V77.6861Z" fill="white"/>
</svg>
