<svg width="415" height="101" viewBox="0 0 415 101" fill="none" xmlns="http://www.w3.org/2000/svg">
<g clip-path="url(#clip0_2034_4346)">
<path d="M0 91.2C0.3 90.6 0.3 90 0.5 89.4C1.3 86.2 2.9 83.4 4.7 80.8C8.2 75.7 12.3 71.2 16.7 66.9C21.1 62.6 25.8 58.6 30.6 54.7C37.6 49.1 44.9 43.9 52.4 39C63.5 31.7 75 25.1 86.9 19.2C97.6 13.9 108.5 9.1 119.9 5.4C125.6 3.5 131.4 1.9 137.3 0.9C139.4 0.5 141.6 0.4 143.8 0.2C144.1 0.2 144.4 0.2 144.6 0C146 0 147.4 0 148.8 0C149.5 0.3 150.4 0.3 151.1 0.4C153.5 0.8 155.8 1.5 157.5 3.3C159 4.8 159.5 6.7 159.3 8.8C158.9 13.1 156.8 16.7 154.4 20.2C152.5 23 150.3 25.6 148.1 28.2C146.2 30.3 144.3 32.3 142.3 34.2C139.4 36.9 136.4 39.6 133.4 42.2C129.1 45.9 124.6 49.3 120 52.7C115.4 56.1 110.7 59.3 105.9 62.4C101.5 65.2 97 68 92.5 70.6C88.6 72.9 84.7 75.1 80.7 77.2C78.6 78.3 76.6 79.4 74.5 80.4C71.4 82 68.2 83.5 65 85C60.9 86.9 56.8 88.7 52.7 90.3C47.9 92.2 43.1 94 38.1 95.6C33.2 97.1 28.2 98.5 23.2 99.4C21.3 99.7 19.5 100 17.6 100.2C15.1 100.5 12.5 100.6 10 100.4C7.4 100.2 4.9 99.7 2.8 98.1C1.6 97.2 0.8 96 0.4 94.5C0.3 94.2 0.3 93.8 0 93.5C0 92.7 0 91.9 0 91.2ZM32.2 84.3C32.2 84.4 32.2 84.6 32.2 84.7C32.3 87 33.3 88.7 35.7 89.3C36.9 89.6 38.2 89.7 39.5 89.7C40.9 89.7 42.2 89.5 43.6 89.1C48.1 88.1 52.2 86.2 56.3 84.3C59 83 61.6 81.6 64.2 80.1C66.6 78.7 69 77.2 71.4 75.7C74.6 73.6 77.8 71.4 80.9 69.2C83.6 67.2 86.3 65.2 89 63.1C91.5 61.2 93.8 59.2 96.2 57.2C97.9 55.7 99.6 54.3 101.2 52.7C103 51.1 104.7 49.4 106.5 47.7C108.1 46.1 109.6 44.5 111.2 42.8C112.3 41.7 113.4 40.5 114.4 39.3C115.8 37.7 117.2 36.1 118.5 34.5C119.7 33 120.8 31.6 121.9 30C123.9 27.1 125.8 24 127.2 20.7C128 18.8 128.5 16.9 128.4 14.8C128.3 13 127.6 11.5 125.8 10.7C124.8 10.3 123.8 10.1 122.7 10C121.3 9.8 119.9 10 118.6 10.2C114.7 10.9 111.1 12.3 107.5 13.8C104.4 15.1 101.3 16.7 98.3 18.4C93.7 21 89.2 23.7 84.9 26.7C79.3 30.5 73.9 34.6 68.7 38.9C65.7 41.3 62.8 43.8 60 46.4C57.3 48.8 54.7 51.3 52.2 53.9C50.3 55.8 48.5 57.8 46.7 59.8C44.7 62 42.8 64.3 41 66.7C38.1 70.5 35.4 74.4 33.5 78.8C32.7 80.5 32.2 82.3 32.2 84.3Z" fill="#444A50"/>
<path d="M267.9 53.4C266.5 54.7 265.3 56.1 264 57.4C262.2 59.3 260.5 61.1999 258.7 63.0999C258.3 63.5999 257.7 63.7 257.1 63.7C253.9 63.7 250.7 63.7 247.6 63.7C246.1 63.7 244.6 63.7 243 63.7C242.2 63.7 242 63.5 242 62.7C242.2 57.5 242.3 52.3 242.5 47.2C242.5 46.1 242.6 44.9999 242.6 43.7999C242.6 43.0999 242.8 42.9 243.5 42.9C247.9 42.9 252.2 42.9 256.6 42.9C257.3 42.9 257.4 43 257.4 43.7C257.4 46.7 257.3 49.6999 257.3 52.7999C257.3 52.8999 257.3 53.1 257.3 53.2C257.3 53.4 257.2 53.6 257.4 53.7C257.6 53.8 257.7 53.5 257.8 53.4C260.5 50.2 263.2 46.9999 265.9 43.7999C266.4 43.1999 267 42.9 267.8 42.9C270.7 42.9 273.6 42.9 276.5 42.9C277.5 42.9 277.6 43 277.6 44C277.6 46.8 277.6 49.6 277.6 52.4C277.6 52.9 277.6 53.2999 277.7 53.7999C278.1 53.5999 278.3 53.3 278.5 53C281 49.9 283.4 46.7 285.8 43.5C286.2 43 286.6 42.7 287.3 42.7C291.5 42.7 295.7 42.7 300 42.7C300.2 42.7 300.3 42.7 300.5 42.7C300.7 42.7 300.9 42.6999 300.9 42.7999C301 42.9999 300.8 43.1 300.7 43.2C298.7 45.7 296.7 48.2999 294.7 50.7999C291.6 54.5999 288.6 58.5 285.5 62.4C284.9 63.2 284.2 63.5 283.2 63.5C278.5 63.5 273.9 63.5 269.2 63.5C268.1 63.5 268 63.2999 268 62.2999C268 59.2999 268 56.4 268 53.4C268 53.6 267.9 53.5 267.9 53.4Z" fill="#444A50"/>
<path d="M184.9 38.3C186.2 38.3 188.7 38.3 191.3 38.6C192.8 38.8 194.2 39.2 195.5 40C198.5 41.7 199.6 44.2 198.9 47.6C198.3 50 197.1 52.1 195.8 54.1C192.3 59.4 187.4 62.8 181.1 64C179 64.4 176.8 64.5 174.6 64.7C172 64.9 169.4 65.0001 166.8 64.8001C164.8 64.6001 162.8 64.4 160.9 63.8C156.7 62.4 154.6 59.1 155.4 54.8C156.6 48.2 160.2 43.3 166.4 40.5C168.7 39.5 171.1 39.1001 173.5 38.9001C177 38.5001 180.3 38.3 184.9 38.3ZM175.9 57.5C177.4 57.6 178.9 57.1 180.1 56.1C181.9 54.6 182.8 52.5001 183.1 50.2001C183.3 48.5001 182.4 47.4 180.7 47.1C179.3 46.9 177.9 47 176.4 47.1C172.5 47.4 169.6 51.3 170.5 55.1C170.8 56.4 171.5 57.1 172.8 57.3C173.8 57.5 174.8 57.6 175.9 57.5Z" fill="#444A50"/>
<path d="M388.7 60.6C387.9 60.8 387.1 61.3 386.4 61.6C382.4 63.3 378.2 64.2 373.8 64.1C372 64 370.2 63.7 368.7 62.5C366.4 60.8 365.7 58.2001 366.7 55.2001C367.7 52.4001 369.4 50 371.4 47.8C374.5 44.5 378.3 42.4 382.8 41.5C386.7 40.7 390.2 41.8 393.4 44.1C393.9 44.5 394.4 44.9 394.9 45.3C395.2 45.6 395.3 45.5001 395.5 45.2001C396.6 43.0001 397.7 40.8 398.8 38.6C399.1 38.1 399.4 37.8 400 37.8C404.8 37.8 409.5 37.8 414.3 37.8C414.4 37.8 414.4 37.8 414.5 37.8C414.3 38.2 414.2 38.5 414 38.8C410.5 46.7 407 54.6001 403.5 62.4001C403.1 63.2001 402.6 63.6 401.7 63.6C397.1 63.6 392.6 63.6 387.9 63.6C388.2 62.7 388.5 61.7 388.7 60.6C388.8 60.7 388.8 60.6 388.7 60.6ZM385.8 57.6C386.2 57.6 386.6 57.5001 387.1 57.4001C389.8 57.2001 391.7 55.6 392.4 53C392.7 51.9 392.1 50.9001 390.9 50.7001C389.9 50.5001 388.9 50.5 387.9 50.5C385.4 50.6 383.5 51.6001 382.4 53.9001C381.8 55.3001 382.4 56.8001 383.9 57.2001C384.5 57.5001 385.2 57.6 385.8 57.6Z" fill="#444A50"/>
<path d="M317.699 60.5001C316.899 60.9001 316.199 61.2001 315.499 61.5001C311.399 63.3001 307.099 64.2001 302.699 64.1001C301.599 64.1001 300.499 63.9001 299.499 63.5001C295.999 62.3001 294.399 59.1001 295.499 55.6001C296.899 51.3001 299.599 48.0001 303.199 45.4001C305.499 43.7001 307.999 42.3001 310.799 41.7001C315.299 40.7001 319.299 41.9001 322.899 44.7001C323.299 45.0001 323.699 45.6001 324.099 45.5001C324.399 45.4001 324.599 44.8001 324.799 44.3001C324.999 43.9001 325.299 43.5001 325.499 43.0001C325.699 42.5001 326.099 42.3001 326.699 42.3001C326.799 42.3001 326.899 42.3001 326.899 42.3001C331.399 42.3001 335.999 42.3001 340.499 42.3001C341.199 42.3001 341.299 42.3001 340.999 43.0001C338.599 48.6001 336.099 54.1001 333.699 59.7001C333.199 60.7001 332.799 61.8001 332.299 62.8001C331.999 63.4001 331.599 63.7001 330.899 63.7001C326.499 63.7001 322.199 63.7001 317.799 63.7001C316.799 63.7001 316.799 63.7001 317.099 62.8001C317.199 62.1001 317.399 61.4001 317.699 60.5001ZM314.599 57.6001C315.099 57.5001 315.499 57.5001 315.999 57.4001C318.699 57.2001 320.599 55.6001 321.199 53.0001C321.499 51.8001 320.899 50.9001 319.699 50.7001C318.399 50.5001 317.099 50.4001 315.799 50.6001C313.599 50.9001 312.099 52.0001 311.199 54.0001C310.599 55.4001 311.199 56.7001 312.599 57.2001C313.199 57.5001 313.899 57.5001 314.599 57.6001Z" fill="#444A50"/>
<path d="M217.2 43.2C217 43.9 216.8 44.6 216.6 45.3C217 45.3 217.3 45.4 217.5 45.1C218.5 44 219.8 43.5 221.2 43.2C225.4 42.2 229.7 41.7 234 42.1C235.4 42.2 236.7 42.6 237.9 43.3C239.8 44.4 240.4 46.4 239.7 48.8C239.2 50.4 238.5 52 237.8 53.5C236.4 56.6 235.1 59.6 233.7 62.7C233.4 63.4 233 63.7 232.1 63.7C228 63.7 223.8 63.7 219.7 63.7C219.5 63.7 219.4 63.7 219.2 63.7C218.5 63.7 218.5 63.7 218.8 63C220 60.2 221.3 57.5 222.5 54.7C222.8 54.1 223 53.5 223 52.9C223.2 51.2 222.4 50.1 220.7 49.9C220 49.8 219.3 49.8 218.6 50.1C217.3 50.5 216.2 51.2 215.2 52.1C214.8 52.5 214.5 52.9 214.3 53.4C212.8 56.7 211.2 59.9 209.6 63.1C209.3 63.7 208.9 63.9 208.3 63.9C204 63.9 199.7 63.9 195.3 63.9C194.5 63.9 194.5 63.9 194.8 63.2C197.3 56.8 199.9 50.4 202.4 44C202.7 43.2 202.9 43 203.8 43.1C208.1 43.2 212.4 43.2 216.7 43.5C217 43.2 217.1 43.2 217.2 43.2Z" fill="#444A50"/>
<path d="M369.4 42.9999C368.4 45.6999 367.4 48.1999 366.3 50.7999C366.1 51.3999 365.6 51.5999 365 51.6999C363.7 51.6999 362.3 51.6999 361 51.7999C359.2 51.8999 357.5 52.1999 355.8 52.8999C354.2 53.5999 353.2 54.6999 352.6 56.2999C351.8 58.4999 351.1 60.6999 350.3 62.8999C350.1 63.4999 349.8 63.6999 349.2 63.6999C344.7 63.6999 340.2 63.6999 335.7 63.6999C335.6 63.6999 335.5 63.6999 335.4 63.6999C335 63.6999 334.9 63.5999 335.1 63.1999C335.8 61.6999 336.4 60.1999 337 58.5999C339 53.7999 341.1 48.8999 343.1 44.0999C343.5 43.0999 343.7 42.8999 344.8 42.8999C348.2 42.8999 351.6 42.8999 355 42.8999C355.8 42.8999 355.8 42.8999 355.6 43.5999C355.4 44.5999 355.3 45.4999 355.1 46.4999C355.1 46.5999 355 46.7999 355.1 46.8999C355.2 46.9999 355.3 46.7999 355.4 46.6999C356.5 45.7999 357.6 44.9999 358.7 44.0999C359.7 43.2999 360.8 42.9999 362.1 42.9999C364.6 42.9999 366.9 42.9999 369.4 42.9999Z" fill="#444A50"/>
<path d="M245.101 79.1C245.101 79.7 245.101 80.2 245.101 80.7C245.101 82.6 245.101 84.4 245.101 86.3C245.101 86.7 245.001 86.8 244.601 86.8C243.301 86.8 243.301 86.8 243.301 85.5C243.301 82.5 243.301 79.5 243.301 76.4C243.301 75.9 243.401 75.7 243.901 75.7C244.401 75.7 244.801 75.9 245.101 76.3C247.001 78.7 248.901 81 250.701 83.4C250.901 83.2 250.801 83.1 250.801 82.9C250.801 80.7 250.801 78.5 250.801 76.2C250.801 75.8 250.901 75.7 251.301 75.7C252.501 75.7 252.501 75.7 252.501 77C252.501 80.1 252.501 83.1 252.501 86.2C252.501 86.7 252.301 86.8 251.901 86.8C251.401 86.8 251.001 86.6 250.701 86.2C248.901 84 247.101 81.7 245.401 79.5C245.401 79.4 245.201 79.3 245.101 79.1Z" fill="#444A50"/>
<path d="M372.801 81.2C372.801 79.6 372.801 77.9 372.801 76.3C372.801 75.9 372.901 75.7 373.301 75.7C375.701 75.7 378.101 75.7 380.401 75.7C380.801 75.7 380.901 75.8 380.901 76.2C380.901 77.5 380.901 77.5 379.601 77.5C378.101 77.5 376.701 77.5 375.201 77.5C374.601 77.5 374.501 77.7 374.501 78.2C374.501 78.8 374.501 79.4 374.501 80C374.501 80.4 374.601 80.5 375.001 80.5C376.701 80.5 378.301 80.5 380.001 80.5C380.501 80.5 380.601 80.6 380.601 81.1C380.601 82.2 380.601 82.2 379.501 82.2C378.001 82.2 376.601 82.2 375.101 82.2C374.601 82.2 374.501 82.3 374.501 82.8C374.501 83.4 374.501 84 374.501 84.6C374.501 85 374.601 85.1 375.001 85.1C376.801 85.1 378.501 85.1 380.301 85.1C380.701 85.1 380.901 85.2 380.901 85.7C380.901 86.9 380.901 86.9 379.701 86.9C377.601 86.9 375.401 86.9 373.301 86.9C372.901 86.9 372.801 86.8 372.801 86.4C372.801 84.6 372.801 82.9 372.801 81.2Z" fill="#444A50"/>
<path d="M176.399 81.2C176.399 79.5 176.399 77.9 176.399 76.2C176.399 75.8 176.499 75.7 176.899 75.7C179.299 75.7 181.599 75.7 183.999 75.7C184.399 75.7 184.499 75.8 184.499 76.2C184.499 77.5 184.499 77.5 183.299 77.5C181.799 77.5 180.299 77.5 178.699 77.5C178.299 77.5 178.099 77.6 178.199 78C178.199 78.6 178.199 79.3 178.199 79.9C178.199 80.3 178.299 80.4 178.599 80.3C180.299 80.3 181.999 80.3 183.699 80.3C184.099 80.3 184.199 80.4 184.199 80.8C184.199 81.9 184.199 81.9 182.999 81.9C181.499 81.9 180.099 81.9 178.599 81.9C178.199 81.9 178.099 82 178.099 82.4C178.099 83 178.099 83.7 178.099 84.3C178.099 84.7 178.199 84.8 178.599 84.8C180.299 84.8 182.099 84.8 183.799 84.8C184.299 84.8 184.499 84.9 184.399 85.4C184.399 86.6 184.399 86.6 183.199 86.6C181.099 86.6 178.999 86.6 176.899 86.6C176.399 86.6 176.199 86.5 176.199 86C176.399 84.5 176.399 82.9 176.399 81.2Z" fill="#444A50"/>
<path d="M277.101 81.2999C277.101 84.1999 275.601 86.2999 273.001 86.7999C269.901 87.4999 266.701 86.2999 266.001 82.4999C265.301 78.9999 267.401 76.2999 270.201 75.6999C274.001 74.8999 277.101 77.2999 277.101 81.2999ZM271.501 77.1999C269.201 77.1999 267.701 78.7999 267.701 81.2999C267.701 83.6999 269.301 85.3999 271.601 85.3999C273.901 85.3999 275.401 83.7999 275.401 81.3999C275.301 78.7999 273.801 77.1999 271.501 77.1999Z" fill="#444A50"/>
<path d="M321.1 81.3C321.1 84.2 319.6 86.3 317 86.8C314.7 87.3 312.6 87 311 85C308.9 82.3 309.6 78.1 312.4 76.4C314.3 75.2 316.4 75.2 318.4 76.3C320.1 77.1 321.1 79.1 321.1 81.3ZM315.5 85.3C317.8 85.3 319.3 83.7 319.3 81.2C319.3 78.7 317.6 77 315.3 77.1C313 77.1 311.5 78.8 311.5 81.3C311.6 83.8 313.2 85.4 315.5 85.3Z" fill="#444A50"/>
<path d="M341.4 80.5C342 80.5 342.7 80.5 343.3 80.5C343.6 80.5 343.7 80.6 343.7 80.9C343.7 82.2 343.7 83.5 343.7 84.8C343.7 85 343.6 85.2 343.4 85.3C341.7 87.1 338.7 87.5 336.4 86.3C334.4 85.3 333.3 83 333.6 80.5C333.9 78.3 334.9 76.6 337 75.8C339.2 75 341.2 75.2 343.1 76.7C343.4 77 343.4 77.1 343.1 77.4C342.8 77.6 342.6 78 342.4 78.1C342.1 78.2 341.8 77.8 341.6 77.6C339.8 76.6 337.4 76.9 336.2 78.5C334.9 80.2 335.1 82.8 336.5 84.2C337.8 85.4 340.4 85.5 341.8 84.4C342 84.3 342.1 84.1 342 83.9C342 83.9 342 83.9 342 83.8C342 83.2 342.3 82.4 341.9 82C341.6 81.7 340.8 81.9 340.2 81.9C340 81.9 339.9 81.9 339.7 81.9C338.9 81.9 338.9 81.9 338.9 81.1C338.9 80.2 338.8 80.4 339.7 80.3C340.3 80.5 340.9 80.5 341.4 80.5Z" fill="#444A50"/>
<path d="M220 81.2C220 79.5 220 77.9 220 76.2C220 75.8 220.1 75.7 220.5 75.7C221.8 75.7 221.8 75.7 221.8 77C221.8 78 221.8 79 221.8 80C221.8 80.4 221.9 80.5 222.3 80.5C223.9 80.5 225.5 80.5 227.1 80.5C227.4 80.5 227.6 80.4 227.5 80.1C227.5 78.8 227.5 77.5 227.5 76.2C227.5 75.8 227.6 75.7 228 75.7C229.3 75.7 229.3 75.7 229.3 77C229.3 80.1 229.3 83.2 229.3 86.2C229.3 86.6 229.2 86.7 228.8 86.7C227.5 86.7 227.5 86.7 227.5 85.5C227.5 84.5 227.5 83.6 227.5 82.6C227.5 82.2 227.4 82.2 227 82.2C225.4 82.2 223.8 82.2 222.2 82.2C221.8 82.2 221.7 82.4 221.7 82.7C221.7 83.9 221.7 85.1 221.7 86.3C221.7 86.6 221.6 86.8 221.3 86.8C220 86.8 220 86.8 220 85.5C220 84 220 82.6 220 81.2Z" fill="#444A50"/>
<path d="M398.3 86.9999C396.4 86.9999 394.9 86.4999 393.8 84.9999C393.5 84.5999 393.5 84.3999 393.9 84.1999C394.2 84.0999 394.4 83.6999 394.7 83.6999C395 83.6999 395.1 84.0999 395.3 84.2999C396.4 85.3999 398.6 85.6999 399.9 84.9999C400.5 84.6999 400.9 84.1999 400.9 83.4999C400.9 82.7999 400.4 82.3999 399.8 82.1999C398.9 81.8999 398 81.7999 397.1 81.5999C396.6 81.4999 396.1 81.2999 395.6 81.1999C394.4 80.6999 393.9 79.8999 393.8 78.6999C393.8 77.4999 394.3 76.5999 395.4 76.0999C397.1 75.2999 398.9 75.2999 400.6 75.9999C400.8 76.0999 401 76.1999 401.2 76.2999C401.6 76.5999 402.1 76.8999 402.1 77.2999C402.1 77.6999 401.4 77.8999 401 78.0999C400.8 78.2999 400.7 78.0999 400.6 77.8999C399.5 76.8999 398.2 76.7999 396.8 77.1999C396.5 77.2999 396.2 77.3999 396 77.5999C395.3 78.1999 395.4 79.2999 396.3 79.6999C397.1 80.0999 397.9 80.0999 398.8 80.2999C399.5 80.3999 400.2 80.5999 400.9 80.8999C403.2 81.7999 403.2 84.8999 401.4 86.1999C400.5 86.7999 399.3 86.9999 398.3 86.9999Z" fill="#444A50"/>
<path d="M202.899 75.6C204.299 75.5 205.599 76 206.699 76.9C206.999 77.1 206.999 77.3 206.699 77.5C206.399 77.7 206.199 78.1 205.799 78.2C205.399 78.3 205.199 77.8 204.899 77.7C203.099 76.7 200.699 77.2 199.599 78.8C198.399 80.6 198.799 83.2 200.299 84.4C201.599 85.5 203.899 85.4 205.399 84.3C205.799 84 205.999 84 206.199 84.4C206.299 84.5 206.399 84.6 206.399 84.6C206.999 85.2 206.999 85.2 206.299 85.8C202.899 88.3 197.899 86.5 197.099 82.5C196.599 79.3 198.499 75.5 202.899 75.6Z" fill="#444A50"/>
<path d="M158.2 82.1001C158.2 80.7001 158.2 79.3001 158.2 77.8001C158.2 77.5001 158.1 77.3001 157.8 77.3001C156.9 77.3001 156 77.3001 155.1 77.3001C154.7 77.3001 154.7 77.2001 154.6 76.8001C154.6 75.6001 154.6 75.6001 155.7 75.6001C158.1 75.6001 160.6 75.6001 163 75.6001C163.5 75.6001 163.6 75.7001 163.6 76.2001C163.6 77.3001 163.6 77.3001 162.5 77.3001C161.8 77.3001 161.2 77.3001 160.5 77.3001C160.1 77.3001 160 77.4001 160 77.8001C160 80.5001 160 83.3001 160 86.0001C160 86.5001 159.9 86.7001 159.4 86.7001C158.2 86.7001 158.2 86.7001 158.2 85.5001C158.2 84.4001 158.2 83.3001 158.2 82.1001Z" fill="#444A50"/>
<path d="M290.4 81.2C290.4 79.5 290.4 77.9 290.4 76.2C290.4 75.8 290.5 75.7 290.9 75.7C292.2 75.7 292.2 75.7 292.2 77C292.2 79.5 292.2 82 292.2 84.6C292.2 85 292.3 85.1 292.7 85.1C294.3 85.1 295.9 85.1 297.5 85.1C297.9 85.1 298 85.2 298 85.6C298 86.8 298 86.8 296.8 86.8C294.8 86.8 292.8 86.8 290.9 86.8C290.5 86.8 290.4 86.7 290.4 86.3C290.4 84.6 290.4 82.9 290.4 81.2Z" fill="#444A50"/>
<path d="M357.1 81.2C357.1 79.5 357.1 77.9 357.1 76.2C357.1 75.8 357.2 75.7 357.6 75.7C358.9 75.7 358.9 75.7 358.9 77C358.9 80.1 358.9 83.1 358.9 86.2C358.9 86.6 358.8 86.8 358.3 86.8C357.1 86.8 357.1 86.8 357.1 85.5C357.1 84.1 357.1 82.7 357.1 81.2Z" fill="#444A50"/>
<path d="M388.699 60.6001C388.799 60.7001 388.799 60.6001 388.699 60.6001C388.799 60.7001 388.699 60.7001 388.699 60.6001Z" fill="#444A50"/>
<path d="M62.3 66.8999C60.9 66.8999 60.4 66.0999 60.9 64.8999C62.1 62.1999 63.9 59.8999 65.9 57.6999C72.2 50.8999 79.3 44.9999 86.9 39.6999C90 37.4999 93.3 35.4999 96.7 33.7999C98.1 33.0999 99.5 32.5999 101 32.3999C101.1 32.3999 101.1 32.3999 101.2 32.3999C101.8 32.3999 102.4 32.3999 102.8 32.8999C103.2 33.3999 102.9 33.8999 102.7 34.4999C101.5 37.2999 99.6 39.6999 97.5 41.8999C88.9 50.9999 79.2 58.6999 68.2 64.7999C66.5 65.7999 64.6 66.4999 62.6 66.8999C62.5 66.8999 62.3 66.8999 62.3 66.8999Z" fill="#444A50"/>
</g>
<defs>
<clipPath id="clip0_2034_4346">
<rect width="414.4" height="100.4" fill="white"/>
</clipPath>
</defs>
</svg>
