<svg width="24" height="23" viewBox="0 0 24 23" fill="none" xmlns="http://www.w3.org/2000/svg">
<path fill-rule="evenodd" clip-rule="evenodd" d="M12.3782 5.61912C13.5713 5.81087 14.4768 6.27957 15.1798 7.11047C15.819 7.86679 16.1492 8.75095 16.1705 9.74163C16.1776 10.146 16.1753 10.5457 16.1729 10.9469C16.1717 11.1481 16.1705 11.3498 16.1705 11.5525C16.1812 11.9467 16.0214 12.1491 15.6059 12.1491H8.31965C8.01072 12.1491 7.76572 12.0426 7.76572 11.7123C7.76331 11.5292 7.75818 11.345 7.75303 11.1604C7.73542 10.5285 7.71765 9.89116 7.80833 9.27292C8.1066 7.34482 9.25706 6.14109 11.1745 5.70434C11.2597 5.68304 11.3449 5.66173 11.5154 5.60847C10.6738 5.38477 10.0347 5.00128 9.59794 4.31952C9.17184 3.64842 9.04401 2.9134 9.23576 2.13577C9.53403 0.868122 10.823 -0.0799473 12.1119 0.00527246C13.5074 0.0904922 14.5939 1.14509 14.775 2.55121C14.9455 3.89342 14.04 5.1078 12.3782 5.61912ZM12.5811 11.2566L12.5814 11.2566H12.5815C13.0064 11.259 13.4297 11.2614 13.8483 11.2543C13.9879 11.251 14.1423 11.2686 14.2965 11.2861C14.6483 11.326 14.9988 11.3658 15.1692 11.1584C15.3446 10.951 15.3111 10.5645 15.2787 10.1911L15.2787 10.1911C15.2678 10.0658 15.2571 9.94193 15.2544 9.82685C15.2118 7.98397 13.7737 6.54589 11.9841 6.53523C10.2051 6.52458 8.7564 7.97332 8.70313 9.81619C8.69857 9.96679 8.69987 10.1193 8.70118 10.2722C8.70292 10.4761 8.70466 10.6805 8.69248 10.8814C8.67118 11.1797 8.76705 11.2756 9.07597 11.2756C9.84269 11.25 10.6026 11.2517 11.3666 11.2534H11.3671C11.5583 11.2538 11.7497 11.2543 11.9415 11.2543C12.1548 11.2543 12.3681 11.2555 12.5811 11.2566ZM13.8376 2.79622C13.8376 1.76293 13.028 0.942689 11.9947 0.932037C10.9402 0.921384 10.1093 1.75228 10.1093 2.80687C10.1093 3.86146 10.9615 4.6817 12.0161 4.67105C13.0387 4.67105 13.8483 3.82951 13.8376 2.79622ZM23.6606 14.6734C23.7389 14.3902 23.8172 14.1072 23.9469 13.8428C23.9469 11.2862 23.9469 8.72958 24.0002 6.18364C23.9886 6.17205 23.9756 6.16327 23.9638 6.15525C23.9429 6.14116 23.9256 6.12944 23.9256 6.10907C23.7339 5.10774 22.6473 4.55381 21.8377 4.70295C20.847 4.88404 20.2612 5.64036 20.2612 6.72691C20.2558 7.25954 20.2558 7.79216 20.2558 8.32478C20.2558 8.8574 20.2558 9.39003 20.2505 9.92265C20.2505 9.95521 20.257 9.99366 20.2637 10.0336L20.2637 10.0336C20.2856 10.1634 20.3101 10.3086 20.1227 10.3168C19.3024 10.3594 18.8124 10.9133 18.3437 11.4566C17.4702 12.4792 16.3837 12.9586 15.0734 13.1184C13.4968 13.3101 12.4849 14.5245 12.4849 16.1117V21.7469C12.4849 22.3328 12.6127 22.4606 13.1986 22.4606C13.624 22.4606 14.0494 22.4594 14.4748 22.4582L14.4769 22.4582C15.3291 22.4559 16.1813 22.4535 17.0335 22.4606L17.1008 22.4611C17.7903 22.4663 18.1246 22.4689 18.2735 22.304C18.4135 22.1489 18.3893 21.8455 18.3424 21.2566L18.3331 21.1397C18.2372 19.9466 18.4502 19.0731 19.7392 18.7748C19.7458 18.7748 19.7524 18.7708 19.7615 18.7652L19.7669 18.7618C19.7713 18.7592 19.7762 18.7564 19.7818 18.7535C20.0801 18.6257 20.2718 18.4127 20.1014 18.0931C19.9416 17.7842 19.654 17.7948 19.3664 17.944C19.2129 18.0207 19.0604 18.0984 18.9083 18.1758L18.9074 18.1763L18.9073 18.1764L18.9072 18.1764C18.5529 18.3569 18.2006 18.5364 17.8431 18.7003C17.5341 18.8388 17.4383 19.0518 17.4489 19.3714C17.4611 19.7182 17.4593 20.0616 17.4576 20.4054V20.4055V20.4056V20.4057V20.4058C17.4563 20.6638 17.455 20.9221 17.4596 21.1823C17.4596 21.4167 17.4383 21.5445 17.1506 21.5445C16.3762 21.5374 15.6064 21.5398 14.8383 21.5421C14.4548 21.5433 14.0717 21.5445 13.6886 21.5445C13.5075 21.5445 13.3903 21.5232 13.3903 21.2888C13.3936 20.7284 13.3928 20.167 13.3921 19.6052V19.6051V19.6051C13.3904 18.3408 13.3887 17.0746 13.4329 15.8135C13.4649 14.8441 14.168 14.1836 15.1267 14.0665C16.6606 13.8747 18.0028 13.3421 18.9935 12.0958C19.0787 11.9963 19.1734 11.9064 19.2681 11.8164C19.3155 11.7714 19.3628 11.7265 19.409 11.6803C19.9416 11.1583 20.4636 11.0944 20.8897 11.5205C21.3264 11.9573 21.2838 12.4579 20.7405 13.0012C20.2718 13.477 19.8032 13.9433 19.3345 14.4096C19.1001 14.6428 18.8657 14.876 18.6313 15.1104C18.3863 15.3448 18.2265 15.6111 18.5035 15.888C18.7805 16.165 19.0468 16.0159 19.2811 15.7709C19.5794 15.4683 19.8811 15.1692 20.1828 14.8701C20.6353 14.4214 21.0878 13.9727 21.5288 13.5125C22.3384 12.6816 22.2745 11.5099 21.3903 10.7535C21.1773 10.5725 21.1347 10.402 21.1347 10.157C21.1347 9.78477 21.1335 9.41253 21.1323 9.0403L21.1323 9.0385C21.1299 8.29283 21.1276 7.54715 21.1347 6.80148C21.1453 6.06646 21.5075 5.62971 22.0827 5.62971C22.6686 5.62971 23.0202 6.05581 23.0202 6.79083V12.8521C23.0202 13.683 22.8497 14.4713 22.4769 15.2063C22.3277 15.4939 22.2212 15.7922 22.5834 15.9839C22.9775 16.197 23.148 15.9093 23.3184 15.6111C23.4827 15.3166 23.5716 14.9949 23.6606 14.6734ZM1.26764 4.78824C0.575233 5.01194 0.245007 5.55522 0 6.17306V13.8428C0.111581 13.8907 0.115826 13.9862 0.119811 14.0759C0.121153 14.1061 0.122465 14.1356 0.12783 14.1624C0.596538 16.1225 1.7257 17.5499 3.56858 18.4447C3.85619 18.5779 4.14115 18.7217 4.4261 18.8655C4.71105 19.0093 4.99601 19.1531 5.28362 19.2862C5.54993 19.4034 5.66711 19.5632 5.65646 19.8828C5.64581 20.2024 5.64847 20.5219 5.65113 20.8415C5.6538 21.1611 5.65646 21.4806 5.64581 21.8002C5.6245 22.2689 5.81625 22.4713 6.29561 22.4713C7.81891 22.4607 9.34221 22.4607 10.8655 22.4713C11.3023 22.4713 11.5153 22.3009 11.5153 21.8428C11.5107 20.9982 11.5121 20.1555 11.5134 19.3131V19.3129C11.5151 18.1899 11.5168 17.0674 11.5047 15.9414C11.494 14.5992 10.5353 13.4593 9.22503 13.1824C8.96357 13.1236 8.69809 13.0768 8.43107 13.0297L8.43099 13.0297L8.43091 13.0297C8.26282 13 8.09413 12.9703 7.92543 12.9374C6.89148 12.7344 6.21691 12.0319 5.53597 11.3227L5.53595 11.3226L5.53593 11.3226C5.46623 11.25 5.39646 11.1774 5.32623 11.1052C4.9747 10.743 4.60186 10.3914 4.07989 10.3488C3.74967 10.3169 3.72836 10.1784 3.72836 9.91207C3.73901 8.77226 3.74967 7.63245 3.72836 6.50329C3.70706 5.23564 2.47137 4.3941 1.26764 4.78824ZM10.5792 17.971L10.5792 17.9715C10.5786 18.1791 10.5779 18.3864 10.5779 18.5938C10.5779 19.024 10.5752 19.4542 10.5725 19.8802V19.8803V19.8804C10.5699 20.2983 10.5672 20.7123 10.5672 21.1185C10.5779 21.4167 10.482 21.502 10.1838 21.502C9.0759 21.4806 7.9787 21.4806 6.88149 21.502C6.58322 21.5126 6.48735 21.4167 6.498 21.1185C6.50784 20.8481 6.50405 20.5776 6.50027 20.3072C6.49586 19.9918 6.49145 19.6763 6.50866 19.3608C6.51931 18.988 6.37017 18.7856 6.03995 18.6258L6.03993 18.6258L6.03991 18.6258C5.29425 18.2636 4.54859 17.9014 3.81358 17.5179C1.9494 16.5379 0.937417 14.9933 0.916112 12.8735C0.901909 11.5028 0.906643 10.1322 0.911378 8.76161C0.913745 8.0763 0.916112 7.39099 0.916112 6.70568C0.916112 6.01327 1.2783 5.59783 1.85353 5.59783C2.41811 5.59783 2.79095 6.02393 2.8016 6.70568C2.80692 7.28622 2.80692 7.86409 2.80692 8.44064V8.44071C2.80692 9.01727 2.80692 9.5925 2.81225 10.1677C2.81225 10.4021 2.74834 10.5512 2.56724 10.711C1.66178 11.4993 1.61917 12.6498 2.46072 13.5126C2.88077 13.9448 3.30429 14.3666 3.72732 14.7879L3.72735 14.7879L3.72738 14.788C4.04457 15.1038 4.36148 15.4195 4.67643 15.739C4.91079 15.984 5.1771 16.1331 5.45406 15.8668C5.73103 15.5898 5.57124 15.3235 5.33688 15.0892C5.09899 14.8513 4.8611 14.6146 4.6232 14.3779C4.14738 13.9044 3.67156 13.4309 3.19574 12.948C2.68442 12.4261 2.64181 11.936 3.06791 11.5099C3.48336 11.0945 4.01598 11.1371 4.51664 11.6165C4.56279 11.6626 4.6113 11.7076 4.65982 11.7525L4.65984 11.7526L4.65986 11.7526C4.75692 11.8425 4.85397 11.9325 4.93209 12.0319C5.92277 13.2569 7.24368 13.8428 8.76698 14.0346C9.9281 14.1837 10.5353 14.9187 10.5672 16.0905C10.5832 16.7218 10.5812 17.3472 10.5792 17.971ZM21.9335 17.2092C21.9229 16.9109 21.7311 16.7831 21.4968 16.7724C21.1346 16.7937 20.9961 16.9855 21.0387 17.2624C21.06 17.5181 21.2091 17.6885 21.4861 17.6779C21.7737 17.6672 21.9442 17.4968 21.9335 17.2092Z" fill="#183D6D"/>
</svg>
