<svg width="26" height="24" viewBox="0 0 26 24" fill="none" xmlns="http://www.w3.org/2000/svg">
<path d="M0.85 6.90886L0.860563 6.88222C1.11047 6.25203 1.46364 5.65482 2.22153 5.40996L2.26764 5.55269M0.85 6.90886L5.07989 11.1133M0.85 6.90886V6.93751V6.95249V6.96747V6.98245V6.99743V7.01241V7.02739V7.04237V7.05735V7.07233V7.08731V7.10229V7.11727V7.13225V7.14723V7.16221V7.17719V7.19217V7.20715V7.22213V7.23711V7.25209V7.26707V7.28205V7.29703V7.31201V7.327V7.34197V7.35696V7.37194V7.38692V7.4019V7.41688V7.43186V7.44684V7.46182V7.4768V7.49178V7.50676V7.52174V7.53672V7.5517V7.56668V7.58166V7.59664V7.61162V7.6266V7.64158V7.65656V7.67154V7.68652V7.7015V7.71648V7.73146V7.74644V7.76142V7.7764V7.79138V7.80636V7.82134V7.83632V7.8513V7.86628V7.88126V7.89624V7.91122V7.9262V7.94118V7.95616V7.97114V7.98612V8.0011V8.01608V8.03106V8.04604V8.06102V8.076V8.09098V8.10596V8.12094V8.13592V8.1509V8.16588V8.18086V8.19584V8.21082V8.2258V8.24078V8.25576V8.27074V8.28572V8.3007V8.31568V8.33066V8.34564V8.36062V8.3756V8.39058V8.40556V8.42054V8.43552V8.4505V8.46548V8.48046V8.49544V8.51042V8.5254V8.54038V8.55536V8.57034V8.58532V8.6003V8.61528V8.63026V8.64524V8.66022V8.6752V8.69018V8.70516V8.72014V8.73512V8.7501V8.76508V8.78006V8.79504V8.81002V8.825V8.83998V8.85496V8.86994V8.88492V8.8999V8.91488V8.92986V8.94484V8.95982V8.9748V8.98978V9.00476V9.01974V9.03472V9.0497V9.06468V9.07966V9.09464V9.10962V9.1246V9.13958V9.15456V9.16954V9.18452V9.1995V9.21448V9.22946V9.24444V9.25942V9.2744V9.28938V9.30436V9.31934V9.33432V9.3493V9.36428V9.37926V9.39424V9.40922V9.4242V9.43918V9.45416V9.46914V9.48412V9.4991V9.51408V9.52906V9.54404V9.55902V9.574V9.58898V9.60396V9.61894V9.63392V9.6489V9.66388V9.67886V9.69384V9.70882V9.7238V9.73878V9.75376V9.76874V9.78372V9.7987V9.81368V9.82866V9.84364V9.85862V9.8736V9.88858V9.90356V9.91854V9.93352V9.9485V9.96348V9.97846V9.99344V10.0084V10.0234V10.0384V10.0534V10.0683V10.0833V10.0983V10.1133V10.1283V10.1432V10.1582V10.1732V10.1882V10.2032V10.2181V10.2331V10.2481V10.2631V10.2781V10.293V10.308V10.323V10.338V10.353V10.3679V10.3829V10.3979V10.4129V10.4279V10.4428V10.4578V10.4728V10.4878V10.5028V10.5177V10.5327V10.5477V10.5627V10.5777V10.5926V10.6076V10.6226V10.6376V10.6526V10.6675V10.6825V10.6975V10.7125V10.7275V10.7424V10.7574V10.7724V10.7874V10.8024V10.8173V10.8323V10.8473V10.8623V10.8773V10.8922V10.9072V10.9222V10.9372V10.9522V10.9671V10.9821V10.9971V11.0121V11.0271V11.042V11.057V11.072V11.087V11.102V11.1169V11.1319V11.1469V11.1619V11.1769V11.1918V11.2068V11.2218V11.2368V11.2518V11.2667V11.2817V11.2967V11.3117V11.3267V11.3416V11.3566V11.3716V11.3866V11.4016V11.4165V11.4315V11.4465V11.4615V11.4765V11.4914V11.5064V11.5214V11.5364V11.5514V11.5663V11.5813V11.5963V11.6113V11.6263V11.6412V11.6562V11.6712V11.6862V11.7012V11.7161V11.7311V11.7461V11.7611V11.7761V11.791V11.806V11.821V11.836V11.851V11.8659V11.8809V11.8959V11.9109V11.9259V11.9408V11.9558V11.9708V11.9858V12.0008V12.0157V12.0307V12.0457V12.0607V12.0757V12.0906V12.1056V12.1206V12.1356V12.1506V12.1655V12.1805V12.1955V12.2105V12.2255V12.2404V12.2554V12.2704V12.2854V12.3004V12.3153V12.3303V12.3453V12.3603V12.3753V12.3902V12.4052V12.4202V12.4352V12.4502V12.4651V12.4801V12.4951V12.5101V12.5251V12.54V12.555V12.57V12.585V12.6V12.6149V12.6299V12.6449V12.6599V12.6749V12.6898V12.7048V12.7198V12.7348V12.7498V12.7647V12.7797V12.7947V12.8097V12.8247V12.8396V12.8546V12.8696V12.8846V12.8996V12.9145V12.9295V12.9445V12.9595V12.9745V12.9894V13.0044V13.0194V13.0344V13.0494V13.0643V13.0793V13.0943V13.1093V13.1243V13.1392V13.1542V13.1692V13.1842V13.1992V13.2141V13.2291V13.2441V13.2591V13.2741V13.289V13.304V13.319V13.334V13.349V13.3639V13.3789V13.3939V13.4089V13.4239V13.4388V13.4538V13.4688V13.4838V13.4988V13.5137V13.5287V13.5437V13.5587V13.5737V13.5886V13.6036V13.6186V13.6336V13.6486V13.6635V13.6785V13.6935V13.7085V13.7235V13.7384V13.7534V13.7684V13.7834V13.7984V13.8133V13.8283V13.8433V13.8583V13.8733V13.8882V13.9032V13.9182V13.9332V13.9482V13.9631V13.9781V13.9931V14.0081V14.0231V14.038V14.053V14.068V14.083V14.098V14.1129V14.1279V14.1429V14.1579V14.1729V14.1878V14.2028V14.2178V14.2328V14.2478V14.2627V14.2777V14.2927V14.3077V14.3227V14.3376V14.3526V14.3676V14.3826V14.3976V14.4125V14.4275V14.4425V14.4575V14.4725V14.4874V14.5024V14.5174V14.5324V14.5474V14.5623V14.5773V14.5923V14.6073V14.7062L0.940912 14.7452C0.94857 14.7484 0.952569 14.7512 0.95437 14.7526C0.956065 14.754 0.956754 14.7549 0.957165 14.7554C0.958023 14.7567 0.96137 14.762 0.96427 14.7779C0.967455 14.7954 0.968566 14.8156 0.969988 14.8476L0.970144 14.8512C0.971349 14.8785 0.973085 14.918 0.980742 14.9563L0.98064 14.9563L0.981943 14.9617C1.46101 16.9651 2.6194 18.4295 4.50306 19.3441L4.50305 19.3441L4.50556 19.3453C4.79049 19.4772 5.07317 19.6198 5.35852 19.7638L5.35967 19.7644C5.64386 19.9078 5.93069 20.0526 6.2206 20.1868L6.22059 20.1868L6.22321 20.188C6.34181 20.2402 6.40866 20.2939 6.44801 20.3546C6.48705 20.4149 6.51125 20.501 6.50654 20.6422C6.49578 20.9649 6.49847 21.2871 6.50112 21.6057L6.50114 21.6072C6.5038 21.927 6.50642 22.2432 6.49592 22.5588M0.85 6.90886L6.28362 20.0507M2.26764 5.55269L2.22097 5.41014C3.51622 4.98603 4.85516 5.89195 4.87834 7.26507M2.26764 5.55269C1.57523 5.7764 1.24501 6.31967 1 6.93751L4.72836 7.26774M2.26764 5.55269C3.47137 5.15855 4.70706 6.0001 4.72836 7.26774M4.87834 7.26507C4.87834 7.26512 4.87834 7.26517 4.87834 7.26522L4.72836 7.26774M4.87834 7.26507C4.87834 7.26501 4.87834 7.26496 4.87834 7.26491L4.72836 7.26774M4.87834 7.26507C4.89968 8.3963 4.88901 9.53783 4.87837 10.6769L4.87836 10.6779L4.72836 10.6765H4.87836C4.87836 10.8192 4.88784 10.8729 4.90617 10.9012C4.91469 10.9144 4.94324 10.9492 5.09346 10.9639M5.09346 10.9639C5.093 10.9639 5.09255 10.9638 5.0921 10.9638L5.07989 11.1133M5.09346 10.9639C5.09375 10.9639 5.09405 10.9639 5.09434 10.964L5.07989 11.1133M5.09346 10.9639C5.67744 11.0121 6.08581 11.4065 6.43376 11.765M5.07989 11.1133C5.60186 11.1559 5.9747 11.5074 6.32623 11.8696M6.43376 11.765L6.32623 11.8696M6.43376 11.765C6.4338 11.7651 6.43383 11.7651 6.43387 11.7651L6.32623 11.8696M6.43376 11.765C6.50374 11.837 6.57288 11.9089 6.64156 11.9803C7.32795 12.6942 7.96936 13.3613 8.95432 13.5546C9.11699 13.5864 9.28342 13.6157 9.45081 13.6453C9.72093 13.6929 9.99358 13.741 10.257 13.8003C11.6336 14.0917 12.6433 15.2902 12.6547 16.7044M6.32623 11.8696C6.39647 11.9418 6.46625 12.0145 6.53597 12.0871C7.21691 12.7963 7.89148 13.4989 8.92543 13.7018L12.5047 16.7058M12.6547 16.7044C12.6547 16.7045 12.6547 16.7046 12.6547 16.7046L12.5047 16.7058M12.6547 16.7044C12.6547 16.7043 12.6547 16.7043 12.6547 16.7042L12.5047 16.7058M12.6547 16.7044C12.6668 17.8303 12.6651 18.9554 12.6634 20.0798C12.6621 20.9223 12.6608 21.7645 12.6653 22.6065L12.6653 22.6073C12.6653 22.8564 12.6076 23.0631 12.4561 23.2034C12.3072 23.3412 12.0984 23.3858 11.8655 23.3858H11.8645C10.3419 23.3751 8.81926 23.3751 7.29666 23.3858L7.29561 23.3858C7.04 23.3858 6.82193 23.3326 6.67493 23.1801C6.52781 23.0274 6.48467 22.8092 6.49592 22.5588M12.5047 16.7058C12.5168 17.8319 12.5151 18.9545 12.5134 20.0775C12.5121 20.9199 12.5107 21.7626 12.5153 22.6073C12.5153 23.0653 12.3023 23.2358 11.8655 23.2358C10.3422 23.2251 8.81891 23.2251 7.29561 23.2358C6.81625 23.2358 6.6245 23.0334 6.64581 22.5647M6.49592 22.5588C6.49591 22.5591 6.4959 22.5594 6.49589 22.5597L6.64581 22.5647M6.49592 22.5588C6.49593 22.5585 6.49595 22.5582 6.49596 22.5579L6.64581 22.5647M6.64581 22.5647C6.65646 22.2451 6.6538 21.9255 6.65113 21.606C6.64847 21.2864 6.64581 20.9668 6.65646 20.6472C6.66711 20.3277 6.54993 20.1679 6.28362 20.0507M6.28362 20.0507C5.99601 19.9175 5.71106 19.7737 5.42611 19.6299C5.14115 19.4861 4.85619 19.3423 4.56858 19.2092C2.7257 18.3143 1.59654 16.8869 1.12783 14.9269L6.28362 20.0507ZM5.81413 12.8891L5.81414 12.889C5.76259 12.8234 5.69988 12.7603 5.62936 12.6937C5.60758 12.6731 5.58448 12.6517 5.56079 12.6298C5.51144 12.584 5.45955 12.5359 5.41176 12.4882C5.1781 12.2648 4.95121 12.1569 4.74906 12.1417C4.5511 12.1268 4.35542 12.199 4.17398 12.3805C3.9842 12.5702 3.91322 12.7578 3.92971 12.9443C3.94677 13.1372 4.05992 13.3595 4.30282 13.6074C4.77804 14.0898 5.25282 14.5622 5.72822 15.0352C5.96627 15.2721 6.20446 15.5091 6.44295 15.7476C6.56372 15.8683 6.68687 16.0171 6.7322 16.188C6.7558 16.277 6.75837 16.372 6.72921 16.469C6.70032 16.5652 6.64296 16.6545 6.56013 16.7373L6.55805 16.7394L6.55803 16.7394C6.3868 16.904 6.19835 16.9538 6.0108 16.9041C5.83958 16.8586 5.69093 16.7355 5.56882 16.6079C5.25664 16.2912 4.94049 15.9764 4.62349 15.6607C4.19907 15.238 3.77313 14.8138 3.35315 14.3816C2.90783 13.9249 2.68857 13.3831 2.70896 12.8426C2.72936 12.3022 2.98881 11.7803 3.46834 11.3627C3.54771 11.2926 3.59327 11.2321 3.62067 11.1707C3.64809 11.1092 3.66219 11.0359 3.66225 10.9329C3.65692 10.3572 3.65692 9.78162 3.65692 9.20554V9.20516C3.65692 8.62865 3.65692 8.05161 3.65161 7.47202C3.64661 7.15715 3.55832 6.91718 3.42162 6.75843C3.28697 6.60205 3.09525 6.51228 2.85353 6.51228C2.60455 6.51228 2.41392 6.60071 2.28322 6.75391C2.15014 6.9099 2.06611 7.14873 2.06611 7.47014C2.06611 8.15657 2.06374 8.84244 2.06137 9.528C2.05664 10.898 2.05191 12.2667 2.0661 13.6364L2.0661 13.6364C2.08682 15.6975 3.06482 17.1935 4.8831 18.1495C5.61578 18.5317 6.3594 18.8929 7.10528 19.2552L5.81413 12.8891ZM5.81413 12.8891L5.81546 12.8907M5.81413 12.8891L5.81546 12.8907M5.81546 12.8907C6.83593 14.1526 8.19597 14.7524 9.74802 14.9478C10.3002 15.0188 10.7052 15.2264 10.977 15.5415C11.2495 15.8575 11.402 16.2977 11.4173 16.8589M5.81546 12.8907L7.87614 22.1165M7.65848 20.1334L7.65843 20.1334C7.64277 20.4207 7.64532 20.7089 7.64932 21.002C7.64963 21.0247 7.64995 21.0474 7.65027 21.0702L7.65848 20.1334ZM7.65848 20.1334L7.65859 20.1295M7.65848 20.1334L7.65859 20.1295M7.65859 20.1295C7.66453 19.9219 7.62615 19.7452 7.52737 19.5953M7.65859 20.1295L7.52737 19.5953M7.87614 22.1165L7.87858 22.1164C8.97726 22.0951 10.0759 22.0951 11.1852 22.1164C11.3301 22.1163 11.3728 22.0927 11.3865 22.0793C11.3977 22.0683 11.4224 22.031 11.4173 21.8883L11.4171 21.8829H11.4172C11.4172 21.4762 11.4199 21.0617 11.4225 20.6438L11.4226 20.6316C11.4252 20.2095 11.4279 19.7838 11.4279 19.3583C11.4279 19.1497 11.4286 18.9415 11.4292 18.7334C11.4312 18.1101 11.4332 17.4879 11.4173 16.8589M7.87614 22.1165C7.73332 22.1216 7.69239 22.0969 7.67997 22.0844C7.66754 22.072 7.64282 22.0311 7.6479 21.8884L7.87614 22.1165ZM11.4173 16.8589C11.4173 16.8589 11.4173 16.8588 11.4173 16.8588L11.5672 16.855L11.4173 16.859C11.4173 16.859 11.4173 16.859 11.4173 16.8589ZM7.52737 19.5953C7.42974 19.4472 7.28374 19.3416 7.10548 19.2553L7.52737 19.5953Z" fill="#183D6D" stroke="#183D6D" stroke-width="0.3"/>
<path d="M25.0969 14.642L25.0816 14.6733C24.9583 14.9246 24.8835 15.1949 24.8042 15.4813C24.7992 15.4993 24.7942 15.5174 24.7892 15.5355C24.7056 15.8368 24.6137 16.154 24.4494 16.4486L24.4487 16.4499L24.4487 16.4499L24.4445 16.4572C24.3646 16.5971 24.265 16.7714 24.1232 16.8749C24.0457 16.9314 23.953 16.9694 23.8439 16.9719C23.737 16.9743 23.6269 16.9423 23.5126 16.8806C23.4057 16.8239 23.3228 16.7537 23.2672 16.6681C23.2108 16.5813 23.1884 16.4878 23.1884 16.3955C23.1884 16.2207 23.2694 16.045 23.3434 15.9023C23.7043 15.1905 23.8702 14.426 23.8702 13.6165V13.6047V13.5928V13.581V13.5691V13.5572V13.5454V13.5335V13.5217V13.5098V13.4979V13.4861V13.4742V13.4624V13.4505V13.4386V13.4268V13.4149V13.4031V13.3912V13.3793V13.3675V13.3556V13.3438V13.3319V13.3201V13.3082V13.2963V13.2845V13.2726V13.2608V13.2489V13.237V13.2252V13.2133V13.2015V13.1896V13.1777V13.1659V13.154V13.1422V13.1303V13.1185V13.1066V13.0947V13.0829V13.071V13.0592V13.0473V13.0354V13.0236V13.0117V12.9999V12.988V12.9761V12.9643V12.9524V12.9406V12.9287V12.9169V12.905V12.8931V12.8813V12.8694V12.8576V12.8457V12.8338V12.822V12.8101V12.7983V12.7864V12.7746V12.7627V12.7508V12.739V12.7271V12.7153V12.7034V12.6916V12.6797V12.6678V12.656V12.6441V12.6323V12.6204V12.6086V12.5967V12.5848V12.573V12.5611V12.5493V12.5374V12.5255V12.5137V12.5018V12.49V12.4781V12.4663V12.4544V12.4426V12.4307V12.4188V12.407V12.3951V12.3833V12.3714V12.3596V12.3477V12.3358V12.324V12.3121V12.3003V12.2884V12.2766V12.2647V12.2528V12.241V12.2291V12.2173V12.2054V12.1936V12.1817V12.1699V12.158V12.1461V12.1343V12.1224V12.1106V12.0987V12.0869V12.075V12.0632V12.0513V12.0394V12.0276V12.0157V12.0039V11.992V11.9802V11.9683V11.9565V11.9446V11.9328V11.9209V11.909V11.8972V11.8853V11.8735V11.8616V11.8498V11.8379V11.8261V11.8142V11.8024V11.7905V11.7787V11.7668V11.7549V11.7431V11.7312V11.7194V11.7075V11.6957V11.6838V11.672V11.6601V11.6483V11.6364V11.6246V11.6127V11.6009V11.589V11.5772V11.5653V11.5535V11.5416V11.5297V11.5179V11.506V11.4942V11.4823V11.4705V11.4586V11.4468V11.4349V11.4231V11.4112V11.3994V11.3875V11.3757V11.3638V11.352V11.3401V11.3283V11.3164V11.3046V11.2927V11.2809V11.269V11.2572V11.2453V11.2335V11.2216V11.2098V11.1979V11.1861V11.1742V11.1624V11.1505V11.1387V11.1268V11.115V11.1031V11.0913V11.0794V11.0676V11.0557V11.0439V11.0321V11.0202V11.0084V10.9965V10.9847V10.9728V10.961V10.9491V10.9373V10.9254V10.9136V10.9017V10.8899V10.878V10.8662V10.8543V10.8425V10.8307V10.8188V10.807V10.7951V10.7833V10.7714V10.7596V10.7477V10.7359V10.724V10.7122V10.7004V10.6885V10.6767V10.6648V10.653V10.6411V10.6293V10.6174V10.6056V10.5938V10.5819V10.5701V10.5582V10.5464V10.5345V10.5227V10.5109V10.499V10.4872V10.4753V10.4635V10.4516V10.4398V10.428V10.4161V10.4043V10.3924V10.3806V10.3687V10.3569V10.3451V10.3332V10.3214V10.3095V10.2977V10.2859V10.274V10.2622V10.2503V10.2385V10.2267V10.2148V10.203V10.1911V10.1793V10.1675V10.1556V10.1438V10.1319V10.1201V10.1083V10.0964V10.0846V10.0728V10.0609V10.0491V10.0372V10.0254V10.0136V10.0017V9.9899V9.97806V9.96622V9.95439V9.94255V9.93071V9.91888V9.90704V9.89521V9.88337V9.87153V9.8597V9.84786V9.83603V9.82419V9.81236V9.80052V9.78869V9.77686V9.76502V9.75319V9.74135V9.72952V9.71769V9.70585V9.69402V9.68219V9.67035V9.65852V9.64669V9.63486V9.62302V9.61119V9.59936V9.58753V9.5757V9.56387V9.55203V9.5402V9.52837V9.51654V9.50471V9.49288V9.48105V9.46922V9.45739V9.44556V9.43373V9.4219V9.41007V9.39824V9.38641V9.37459V9.36276V9.35093V9.3391V9.32727V9.31544V9.30362V9.29179V9.27996V9.26813V9.25631V9.24448V9.23265V9.22083V9.209V9.19718V9.18535V9.17352V9.1617V9.14987V9.13805V9.12622V9.1144V9.10257V9.09075V9.07892V9.0671V9.05528V9.04345V9.03163V9.0198V9.00798V8.99616V8.98434V8.97251V8.96069V8.94887V8.93705V8.92522V8.9134V8.90158V8.88976V8.87794V8.86612V8.8543V8.84248V8.83066V8.81883V8.80701V8.79519V8.78338V8.77156V8.75974V8.74792V8.7361V8.72428V8.71246V8.70064V8.68883V8.67701V8.66519V8.65337V8.64155V8.62974V8.61792V8.6061V8.59429V8.58247V8.57066V8.55884V8.54702V8.53521V8.52339V8.51158V8.49976V8.48795V8.47613V8.46432V8.45251V8.44069V8.42888V8.41706V8.40525V8.39344V8.38163V8.36981V8.358V8.34619V8.33438V8.32257V8.31075V8.29894V8.28713V8.27532V8.26351V8.2517V8.23989V8.22808V8.21627V8.20446V8.19265V8.18084V8.16903V8.15722V8.14542V8.13361V8.1218V8.10999V8.09818V8.08638V8.07457V8.06276V8.05096V8.03915V8.02734V8.01554V8.00373V7.99193V7.98012V7.96831V7.95651V7.94471V7.9329V7.9211V7.90929V7.89749V7.88569V7.87388V7.86208V7.85028V7.83847V7.82667V7.81487V7.80307V7.79127V7.77946V7.76766V7.75586V7.74406V7.73226V7.72046V7.70866V7.69686V7.68506V7.67326V7.66146V7.64966V7.63787V7.62607V7.61427V7.60247V7.59067V7.57888V7.56708V7.55528C23.8702 7.20958 23.7873 6.95693 23.6547 6.79365C23.5255 6.6345 23.3362 6.54416 23.0827 6.54416C22.8366 6.54416 22.6464 6.63574 22.5133 6.79915C22.3771 6.96633 22.2897 7.22281 22.2847 7.56781C22.2776 8.31242 22.2799 9.05624 22.2823 9.80117C22.2835 10.1742 22.2847 10.5476 22.2847 10.9215C22.2847 11.0366 22.295 11.1188 22.3224 11.1893C22.3489 11.2574 22.3958 11.3258 22.4875 11.4037L22.4878 11.404C22.9583 11.8065 23.2169 12.3257 23.2445 12.8618C23.2721 13.3979 23.068 13.9383 22.6367 14.3812C22.6365 14.3814 22.6364 14.3815 22.6362 14.3817L22.5288 14.277L25.0969 14.642ZM25.0969 14.642V14.6072M25.0969 14.642V14.6072M25.0969 14.6072C25.0969 12.0504 25.0969 9.49534 25.1501 6.95123L25.1515 6.88726L25.1062 6.84203C25.0913 6.82713 25.0766 6.81572 25.0653 6.80757M25.0969 14.6072L24.9256 6.87352M16.0734 13.8828C17.3837 13.7231 18.4702 13.2437 19.3437 12.2211C19.8124 11.6778 20.3024 11.1239 21.1227 11.0812C21.3101 11.0731 21.2856 10.9279 21.2637 10.7981C21.257 10.7581 21.2505 10.7197 21.2505 10.6871C21.2558 10.1545 21.2558 9.62186 21.2558 9.08924C21.2558 8.55661 21.2558 8.02399 21.2612 7.49137M16.0734 13.8828L16.0553 13.7339C16.0553 13.7339 16.0553 13.7339 16.0553 13.7339M16.0734 13.8828L16.0553 13.7339M16.0734 13.8828C14.4968 14.0746 13.4849 15.289 13.4849 16.8762V22.5113C13.4849 23.0972 13.6127 23.2251 14.1986 23.2251C14.6247 23.2251 15.0508 23.2239 15.4769 23.2227C16.3291 23.2203 17.1813 23.218 18.0335 23.2251L16.0553 13.7339M16.0553 13.7339C17.3362 13.5777 18.3853 13.1121 19.2297 12.1236L19.2301 12.1231C19.6936 11.5859 20.2224 10.9778 21.1149 10.9314L21.1162 10.9314L21.1162 10.9314C21.121 10.9312 21.1251 10.9308 21.1285 10.9305M16.0553 13.7339C14.3989 13.9354 13.3349 15.2178 13.3349 16.8762V16.8872V16.8982V16.9091V16.9201V16.9311V16.9421V16.9531V16.9641V16.9751V16.9861V16.997V17.008V17.019V17.03V17.041V17.052V17.063V17.074V17.085V17.0959V17.1069V17.1179V17.1289V17.1399V17.1509V17.1619V17.1729V17.1839V17.1949V17.2059V17.2168V17.2278V17.2388V17.2498V17.2608V17.2718V17.2828V17.2938V17.3048V17.3158V17.3268V17.3378V17.3488V17.3598V17.3708V17.3818V17.3928V17.4037V17.4147V17.4257V17.4367V17.4477V17.4587V17.4697V17.4807V17.4917V17.5027V17.5137V17.5247V17.5357V17.5467V17.5577V17.5687V17.5797V17.5907V17.6017V17.6127V17.6237V17.6347V17.6457V17.6567V17.6677V17.6787V17.6897V17.7007V17.7117V17.7227V17.7337V17.7447V17.7557V17.7667V17.7777V17.7887V17.7997V17.8107V17.8217V17.8327V17.8437V17.8547V17.8657V17.8767V17.8877V17.8988V17.9098V17.9208V17.9318V17.9428V17.9538V17.9648V17.9758V17.9868V17.9978V18.0088V18.0198V18.0308V18.0418V18.0528V18.0638V18.0748V18.0858V18.0968V18.1079V18.1189V18.1299V18.1409V18.1519V18.1629V18.1739V18.1849V18.1959V18.2069V18.2179V18.2289V18.2399V18.251V18.262V18.273V18.284V18.295V18.306V18.317V18.328V18.339V18.35V18.361V18.3721V18.3831V18.3941V18.4051V18.4161V18.4271V18.4381V18.4491V18.4601V18.4711V18.4822V18.4932V18.5042V18.5152V18.5262V18.5372V18.5482V18.5592V18.5702V18.5813V18.5923V18.6033V18.6143V18.6253V18.6363V18.6473V18.6583V18.6694V18.6804V18.6914V18.7024V18.7134V18.7244V18.7354V18.7464V18.7575V18.7685V18.7795V18.7905V18.8015V18.8125V18.8235V18.8345V18.8456V18.8566V18.8676V18.8786V18.8896V18.9006V18.9116V18.9227V18.9337V18.9447V18.9557V18.9667V18.9777V18.9887V18.9998V19.0108V19.0218V19.0328V19.0438V19.0548V19.0658V19.0769V19.0879V19.0989V19.1099V19.1209V19.1319V19.143V19.154V19.165V19.176V19.187V19.198V19.209V19.2201V19.2311V19.2421V19.2531V19.2641V19.2751V19.2862V19.2972V19.3082V19.3192V19.3302V19.3412V19.3523V19.3633V19.3743V19.3853V19.3963V19.4073V19.4184V19.4294V19.4404V19.4514V19.4624V19.4734V19.4844V19.4955V19.5065V19.5175V19.5285V19.5395V19.5505V19.5616V19.5726V19.5836V19.5946V19.6056V19.6166V19.6277V19.6387V19.6497V19.6607V19.6717V19.6827V19.6938V19.7048V19.7158V19.7268V19.7378V19.7488V19.7599V19.7709V19.7819V19.7929V19.8039V19.8149V19.826V19.837V19.848V19.859V19.87V19.881V19.8921V19.9031V19.9141V19.9251V19.9361V19.9471V19.9582V19.9692V19.9802V19.9912V20.0022V20.0132V20.0243V20.0353V20.0463V20.0573V20.0683V20.0793V20.0904V20.1014V20.1124V20.1234V20.1344V20.1454V20.1564V20.1675V20.1785V20.1895V20.2005V20.2115V20.2225V20.2336V20.2446V20.2556V20.2666V20.2776V20.2886V20.2996V20.3107V20.3217V20.3327V20.3437V20.3547V20.3657V20.3768V20.3878V20.3988V20.4098V20.4208V20.4318V20.4428V20.4539V20.4649V20.4759V20.4869V20.4979V20.5089V20.5199V20.531V20.542V20.553V20.564V20.575V20.586V20.597V20.608V20.6191V20.6301V20.6411V20.6521V20.6631V20.6741V20.6851V20.6962V20.7072V20.7182V20.7292V20.7402V20.7512V20.7622V20.7732V20.7842V20.7953V20.8063V20.8173V20.8283V20.8393V20.8503V20.8613V20.8723V20.8834V20.8944V20.9054V20.9164V20.9274V20.9384V20.9494V20.9604V20.9714V20.9824V20.9935V21.0045V21.0155V21.0265V21.0375V21.0485V21.0595V21.0705V21.0815V21.0925V21.1035V21.1146V21.1256V21.1366V21.1476V21.1586V21.1696V21.1806V21.1916V21.2026V21.2136V21.2246V21.2356V21.2467V21.2577V21.2687V21.2797V21.2907V21.3017V21.3127V21.3237V21.3347V21.3457V21.3567V21.3677V21.3787V21.3897V21.4007V21.4117V21.4227V21.4338V21.4448V21.4558V21.4668V21.4778V21.4888V21.4998V21.5108V21.5218V21.5328V21.5438V21.5548V21.5658V21.5768V21.5878V21.5988V21.6098V21.6208V21.6318V21.6428V21.6538V21.6648V21.6758V21.6868V21.6978V21.7088V21.7198V21.7308V21.7418V21.7528V21.7638V21.7748V21.7858V21.7968V21.8078V21.8188V21.8298V21.8408V21.8518V21.8628V21.8738V21.8848V21.8958V21.9068V21.9178V21.9288V21.9398V21.9508V21.9618V21.9728V21.9838V21.9948V22.0058V22.0168V22.0278V22.0388V22.0498V22.0607V22.0717V22.0827V22.0937V22.1047V22.1157V22.1267V22.1377V22.1487V22.1597V22.1707V22.1817V22.1927V22.2037V22.2146V22.2256V22.2366V22.2476V22.2586V22.2696V22.2806V22.2916V22.3026V22.3136V22.3246V22.3355V22.3465V22.3575V22.3685V22.3795V22.3905V22.4015V22.4125V22.4234V22.4344V22.4454V22.4564V22.4674V22.4784V22.4894V22.5004V22.5113C13.3349 22.7992 13.3618 23.0399 13.5159 23.194C13.67 23.3481 13.9107 23.3751 14.1986 23.3751C14.6256 23.3751 15.0521 23.3739 15.4785 23.3727C16.3301 23.3703 17.1808 23.368 18.0322 23.375H18.0324C18.0566 23.3752 18.0805 23.3754 18.1041 23.3756C18.4278 23.3781 18.6828 23.38 18.876 23.3628C19.079 23.3447 19.2553 23.3033 19.3743 23.1802C19.495 23.0555 19.5249 22.8804 19.5286 22.6857C19.532 22.5119 19.5141 22.2878 19.4919 22.0097C19.4889 21.9716 19.4858 21.9325 19.4826 21.8924L19.4826 21.8921C19.4352 21.302 19.4677 20.8199 19.651 20.4533C19.8282 20.0989 20.1585 19.8293 20.7652 19.6873C20.7814 19.6847 20.7947 19.6802 20.8045 19.6762C20.8181 19.6706 20.829 19.6641 20.8337 19.6613C20.8398 19.6576 20.8427 19.6558 20.8444 19.6547C20.8452 19.6542 20.8458 19.6538 20.8463 19.6535C21.0058 19.5844 21.1602 19.4834 21.2468 19.3355C21.3413 19.1739 21.339 18.9849 21.2342 18.7878C21.1345 18.5957 20.9835 18.4871 20.8019 18.4626C20.6311 18.4394 20.4551 18.4936 20.2983 18.5747C20.1426 18.6526 19.9888 18.7309 19.8361 18.8087C19.4832 18.9886 19.1355 19.1657 18.781 19.3282C18.6051 19.4071 18.4755 19.5143 18.3949 19.6597C18.3156 19.8029 18.2932 19.9664 18.299 20.1408L18.299 20.1411C18.3112 20.4883 18.3094 20.8236 18.3076 21.1628C18.3062 21.42 18.3049 21.6795 18.3096 21.948C18.3095 22.0054 18.3081 22.0476 18.3033 22.0808C18.2985 22.1138 18.2918 22.1271 18.2886 22.1319L18.2884 22.1321C18.2872 22.134 18.284 22.1388 18.2684 22.1446C18.2489 22.1517 18.2134 22.1589 18.1514 22.1589C17.3762 22.1518 16.6051 22.1542 15.8366 22.1566C15.4533 22.1578 15.0707 22.1589 14.6886 22.1589C14.6448 22.1589 14.6131 22.1575 14.5886 22.1537C14.5644 22.15 14.5562 22.1451 14.5548 22.1442C14.5547 22.1441 14.5546 22.1441 14.5545 22.144C14.5545 22.144 14.553 22.1421 14.551 22.137C14.5465 22.1256 14.5404 22.1009 14.5403 22.0537C14.5436 21.4911 14.5429 20.9285 14.5421 20.3662C14.5404 19.1033 14.5387 17.8415 14.5828 16.5832L14.5829 16.5829C14.612 15.6982 15.2483 15.0894 16.1449 14.9798L16.1453 14.9798C17.7025 14.7851 19.0864 14.2412 20.1092 12.9558C20.1891 12.8627 20.2736 12.7826 20.3639 12.6969C20.4124 12.6509 20.4625 12.6034 20.5145 12.5514C20.7674 12.3036 21.0014 12.1813 21.2059 12.1584C21.4034 12.1364 21.597 12.2045 21.7836 12.391C21.9789 12.5863 22.0519 12.7787 22.0333 12.9709C22.014 13.17 21.8937 13.4004 21.6345 13.6596L21.6337 13.6604C21.1655 14.1357 20.6977 14.6011 20.2294 15.0671C19.9953 15.3 19.761 15.5331 19.5264 15.7676C19.4002 15.8885 19.2742 16.0369 19.2271 16.2078C19.2025 16.2972 19.1994 16.3925 19.2284 16.4899C19.2572 16.5863 19.3146 16.6757 19.3974 16.7585C19.5674 16.9285 19.7559 16.9833 19.9454 16.935C20.1177 16.891 20.2668 16.7671 20.3887 16.6398L16.0553 13.7339ZM21.1285 10.9305C21.1282 10.9418 21.1269 10.9461 21.1269 10.946C21.1269 10.9459 21.1282 10.9414 21.1335 10.9355C21.1391 10.9291 21.1436 10.9272 21.1437 10.9273C21.1437 10.9273 21.1397 10.9292 21.1285 10.9305ZM21.1285 10.9305C21.1285 10.9302 21.1285 10.9299 21.1285 10.9296C21.1289 10.9056 21.1245 10.875 21.1171 10.8305C21.1165 10.8273 21.116 10.824 21.1154 10.8206C21.1091 10.7838 21.1005 10.733 21.1005 10.6871V10.6856H21.1005C21.1058 10.1539 21.1058 9.62198 21.1058 9.08924V9.08881C21.1058 8.5567 21.1058 8.02373 21.1112 7.49062M21.1112 7.49062C21.1112 7.49087 21.1112 7.49112 21.1112 7.49137H21.2612M21.1112 7.49062C21.1112 7.49037 21.1112 7.49012 21.1112 7.48987L21.2612 7.49137M21.1112 7.49062C21.1113 6.92074 21.2653 6.42611 21.5595 6.04775C21.8547 5.6683 22.2828 5.41635 22.8108 5.31984M21.2612 7.49137C21.2612 6.40482 21.847 5.64849 22.8377 5.4674M22.8377 5.4674L22.8106 5.31988C22.8106 5.31987 22.8107 5.31986 22.8108 5.31984M22.8377 5.4674C23.6473 5.31827 24.7339 5.87219 24.9256 6.87352M22.8377 5.4674L22.8108 5.31984M22.8108 5.31984C23.2571 5.23769 23.7684 5.34974 24.1922 5.61141C24.608 5.86819 24.9516 6.2767 25.0653 6.80757M24.9256 6.87352C24.9256 6.8939 24.9429 6.90561 24.9638 6.9197C24.9756 6.92772 24.9886 6.93651 25.0002 6.94809C24.9469 9.49403 24.9469 12.0506 24.9469 14.6072L24.9256 6.87352ZM25.0653 6.80757C25.064 6.80664 25.0627 6.80575 25.0615 6.80491L25.0466 6.79466L25.0391 6.7895C25.0379 6.78857 25.0389 6.78923 25.041 6.79113C25.0431 6.79305 25.0477 6.79737 25.0528 6.80416C25.058 6.8112 25.0641 6.82108 25.0686 6.83382C25.07 6.83766 25.0712 6.84155 25.0722 6.84546C25.0744 6.85449 25.0755 6.86365 25.0756 6.87266M25.0653 6.80757C25.068 6.82008 25.0705 6.83266 25.0729 6.84531L25.0756 6.85929V6.87266M25.0756 6.87266V6.87352C25.0756 6.87324 25.0756 6.87295 25.0756 6.87266ZM22.1347 10.9215C22.1347 11.1665 22.1773 11.3369 22.3903 11.518L22.1347 7.56593C22.1276 8.31161 22.1299 9.05728 22.1323 9.80295C22.1335 10.1758 22.1347 10.5486 22.1347 10.9215Z" fill="#183D6D" stroke="#183D6D" stroke-width="0.3"/>
<path d="M8.61572 12.4778C8.61599 12.6853 8.69651 12.8438 8.84249 12.943C8.97853 13.0355 9.15253 13.0635 9.31965 13.0635H9.33388H9.34811H9.36234H9.37657H9.3908H9.40503H9.41926H9.43349H9.44773H9.46196H9.47619H9.49042H9.50465H9.51888H9.53311H9.54734H9.56157H9.5758H9.59004H9.60427H9.6185H9.63273H9.64696H9.66119H9.67542H9.68965H9.70388H9.71811H9.73235H9.74658H9.76081H9.77504H9.78927H9.8035H9.81773H9.83196H9.84619H9.86042H9.87466H9.88889H9.90312H9.91735H9.93158H9.94581H9.96004H9.97427H9.9885H10.0027H10.017H10.0312H10.0454H10.0597H10.0739H10.0881H10.1024H10.1166H10.1308H10.145H10.1593H10.1735H10.1877H10.202H10.2162H10.2304H10.2447H10.2589H10.2731H10.2874H10.3016H10.3158H10.33H10.3443H10.3585H10.3727H10.387H10.4012H10.4154H10.4297H10.4439H10.4581H10.4724H10.4866H10.5008H10.5151H10.5293H10.5435H10.5577H10.572H10.5862H10.6004H10.6147H10.6289H10.6431H10.6574H10.6716H10.6858H10.7001H10.7143H10.7285H10.7427H10.757H10.7712H10.7854H10.7997H10.8139H10.8281H10.8424H10.8566H10.8708H10.8851H10.8993H10.9135H10.9278H10.942H10.9562H10.9704H10.9847H10.9989H11.0131H11.0274H11.0416H11.0558H11.0701H11.0843H11.0985H11.1128H11.127H11.1412H11.1554H11.1697H11.1839H11.1981H11.2124H11.2266H11.2408H11.2551H11.2693H11.2835H11.2978H11.312H11.3262H11.3405H11.3547H11.3689H11.3831H11.3974H11.4116H11.4258H11.4401H11.4543H11.4685H11.4828H11.497H11.5112H11.5255H11.5397H11.5539H11.5681H11.5824H11.5966H11.6108H11.6251H11.6393H11.6535H11.6678H11.682H11.6962H11.7105H11.7247H11.7389H11.7532H11.7674H11.7816H11.7958H11.8101H11.8243H11.8385H11.8528H11.867H11.8812H11.8955H11.9097H11.9239H11.9382H11.9524H11.9666H11.9808H11.9951H12.0093H12.0235H12.0378H12.052H12.0662H12.0805H12.0947H12.1089H12.1232H12.1374H12.1516H12.1659H12.1801H12.1943H12.2085H12.2228H12.237H12.2512H12.2655H12.2797H12.2939H12.3082H12.3224H12.3366H12.3509H12.3651H12.3793H12.3935H12.4078H12.422H12.4362H12.4505H12.4647H12.4789H12.4932H12.5074H12.5216H12.5359H12.5501H12.5643H12.5786H12.5928H12.607H12.6212H12.6355H12.6497H12.6639H12.6782H12.6924H12.7066H12.7209H12.7351H12.7493H12.7636H12.7778H12.792H12.8062H12.8205H12.8347H12.8489H12.8632H12.8774H12.8916H12.9059H12.9201H12.9343H12.9486H12.9628H12.977H12.9913H13.0055H13.0197H13.0339H13.0482H13.0624H13.0766H13.0909H13.1051H13.1193H13.1336H13.1478H13.162H13.1763H13.1905H13.2047H13.2189H13.2332H13.2474H13.2616H13.2759H13.2901H13.3043H13.3186H13.3328H13.347H13.3613H13.3755H13.3897H13.404H13.4182H13.4324H13.4466H13.4609H13.4751H13.4893H13.5036H13.5178H13.532H13.5463H13.5605H13.5747H13.589H13.6032H13.6174H13.6316H13.6459H13.6601H13.6743H13.6886H13.7028H13.717H13.7313H13.7455H13.7597H13.774H13.7882H13.8024H13.8167H13.8309H13.8451H13.8593H13.8736H13.8878H13.902H13.9163H13.9305H13.9447H13.959H13.9732H13.9874H14.0017H14.0159H14.0301H14.0443H14.0586H14.0728H14.087H14.1013H14.1155H14.1297H14.144H14.1582H14.1724H14.1867H14.2009H14.2151H14.2294H14.2436H14.2578H14.272H14.2863H14.3005H14.3147H14.329H14.3432H14.3574H14.3717H14.3859H14.4001H14.4144H14.4286H14.4428H14.457H14.4713H14.4855H14.4997H14.514H14.5282H14.5424H14.5567H14.5709H14.5851H14.5994H14.6136H14.6278H14.642H14.6563H14.6705H14.6847H14.699H14.7132H14.7274H14.7417H14.7559H14.7701H14.7844H14.7986H14.8128H14.8271H14.8413H14.8555H14.8697H14.884H14.8982H14.9124H14.9267H14.9409H14.9551H14.9694H14.9836H14.9978H15.0121H15.0263H15.0405H15.0547H15.069H15.0832H15.0974H15.1117H15.1259H15.1401H15.1544H15.1686H15.1828H15.1971H15.2113H15.2255H15.2398H15.254H15.2682H15.2824H15.2967H15.3109H15.3251H15.3394H15.3536H15.3678H15.3821H15.3963H15.4105H15.4248H15.439H15.4532H15.4674H15.4817H15.4959H15.5101H15.5244H15.5386H15.5528H15.5671H15.5813H15.5955H15.6098H15.624H15.6382H15.6525H15.6667H15.6809H15.6951H15.7094H15.7236H15.7378H15.7521H15.7663H15.7805H15.7948H15.809H15.8232H15.8375H15.8517H15.8659H15.8801H15.8944H15.9086H15.9228H15.9371H15.9513H15.9655H15.9798H15.994H16.0082H16.0225H16.0367H16.0509H16.0652H16.0794H16.0936H16.1078H16.1221H16.1363H16.1505H16.1648H16.179H16.1932H16.2075H16.2217H16.2359H16.2502H16.2644H16.2786H16.2928H16.3071H16.3213H16.3355H16.3498H16.364H16.3782H16.3925H16.4067H16.4209H16.4352H16.4494H16.4636H16.4779H16.4921H16.5063H16.5205H16.5348H16.549H16.5632H16.5775H16.5917H16.6059C16.8352 13.0635 17.0287 13.0077 17.1591 12.8638C17.287 12.7227 17.326 12.5277 17.3205 12.315C17.3205 12.1148 17.3217 11.9148 17.3229 11.7147C17.3252 11.3123 17.3276 10.9095 17.3205 10.5034L17.3205 10.5029C17.2984 9.4783 16.956 8.561 16.2944 7.7781L16.2943 7.77803C15.6724 7.04298 14.8978 6.58319 13.9259 6.34173C15.32 5.7382 16.0874 4.58439 15.9238 3.29677L15.9238 3.29651C15.734 1.82256 14.592 0.71001 13.1214 0.620029C11.7598 0.530203 10.4053 1.52649 10.0899 2.86508C9.88844 3.68308 10.0239 4.45974 10.4713 5.16438L10.4716 5.16489C10.8427 5.74409 11.3513 6.11653 11.9854 6.36011C11.0749 6.59192 10.3325 7.00193 9.77528 7.59072C9.18637 8.21297 8.81306 9.02558 8.66009 10.0144H8.66009L8.65992 10.0156C8.56715 10.6481 8.58548 11.3032 8.60322 11.9373C8.60832 12.1195 8.61337 12.3001 8.61572 12.4778ZM8.61572 12.4778C8.61572 12.4775 8.61572 12.4771 8.61572 12.4768H8.76572M8.61572 12.4778C8.61572 12.4781 8.61573 12.4784 8.61573 12.4788L8.76572 12.4768M8.76572 12.4768C8.76572 12.807 9.01072 12.9135 9.31965 12.9135H16.6059C17.0214 12.9135 17.1812 12.7111 17.1705 12.317L12.1745 6.4688C10.2571 6.90555 9.1066 8.10927 8.80833 10.0374C8.71765 10.6556 8.73542 11.293 8.75303 11.9248C8.75818 12.1095 8.76331 12.2937 8.76572 12.4768ZM16.0547 11.826L16.0547 11.826L14.8483 12.0187L14.8457 11.8688C14.8456 11.8688 14.8454 11.8688 14.8453 11.8688C14.4284 11.8758 14.0083 11.8735 13.5846 11.8711C13.3711 11.8699 13.1568 11.8687 12.9415 11.8687C12.7502 11.8687 12.5592 11.8683 12.3682 11.8679C11.6048 11.8662 10.8423 11.8645 10.0735 11.89C9.92549 11.8898 9.8814 11.864 9.86762 11.8499C9.85602 11.8381 9.83194 11.7988 9.84211 11.6566L9.84221 11.655C9.8532 11.4737 9.85313 11.2908 9.8518 11.1122C9.85161 11.0863 9.85139 11.0605 9.85117 11.0349C9.84987 10.8819 9.8486 10.7326 9.85307 10.5852L9.85307 10.585C9.90412 8.81866 11.2906 7.43955 12.9832 7.44969C14.6887 7.45984 16.0636 8.82998 16.1044 10.5948L16.1044 10.5948C16.1072 10.7146 16.1183 10.8423 16.129 10.9657L16.1291 10.9666C16.14 11.0922 16.1505 11.2138 16.1537 11.3291C16.1604 11.5702 16.1318 11.7348 16.0547 11.826ZM14.6876 3.56067L14.6876 3.56222C14.6975 4.51515 13.9522 5.28551 13.0161 5.2855L13.0145 5.28551C12.0409 5.29535 11.2593 4.54004 11.2593 3.57132C11.2593 2.59929 12.0229 1.83668 12.9932 1.84648C13.944 1.8563 14.6876 2.6094 14.6876 3.56067Z" fill="#183D6D" stroke="#183D6D" stroke-width="0.3"/>
<path d="M22.4968 17.5369C22.7311 17.5475 22.9229 17.6753 22.9335 17.9736C22.9442 18.2612 22.7737 18.4317 22.4861 18.4423C22.2091 18.453 22.06 18.2825 22.0387 18.0269C21.9961 17.7499 22.1346 17.5582 22.4968 17.5369Z" fill="#183D6D"/>
</svg>
