<svg width="40" height="33" viewBox="0 0 40 33" fill="none" xmlns="http://www.w3.org/2000/svg">
<path d="M38.3332 1.99991C36.7371 3.12571 34.97 3.98676 33.0998 4.54991C32.0961 3.39577 30.7621 2.57773 29.2782 2.20646C27.7944 1.83518 26.2323 1.92857 24.8033 2.474C23.3743 3.01943 22.1472 3.99058 21.2881 5.25611C20.429 6.52163 19.9793 8.02047 19.9998 9.54991V11.2166C17.0709 11.2925 14.1686 10.6429 11.5515 9.32566C8.93441 8.00838 6.6837 6.06431 4.99984 3.66658C4.99984 3.66658 -1.66683 18.6666 13.3332 25.3332C9.90072 27.6632 5.81177 28.8315 1.6665 28.6666C16.6665 36.9999 34.9998 28.6666 34.9998 9.49991C34.9983 9.03567 34.9537 8.57257 34.8665 8.11658C36.5675 6.43907 37.7679 4.3211 38.3332 1.99991Z" stroke="#CECECE" stroke-width="2" stroke-linecap="round" stroke-linejoin="round"/>
</svg>
