<svg width="23" height="23" viewBox="0 0 23 23" fill="none" xmlns="http://www.w3.org/2000/svg">
<path fill-rule="evenodd" clip-rule="evenodd" d="M2.65381 11.5C2.65381 6.52944 6.68325 2.5 11.6538 2.5C16.6244 2.5 20.6538 6.52944 20.6538 11.5C20.6538 16.4706 16.6244 20.5 11.6538 20.5C6.68325 20.5 2.65381 16.4706 2.65381 11.5ZM11.6538 0.5C5.57868 0.5 0.653809 5.42487 0.653809 11.5C0.653809 17.5751 5.57868 22.5 11.6538 22.5C17.7289 22.5 22.6538 17.5751 22.6538 11.5C22.6538 5.42487 17.7289 0.5 11.6538 0.5ZM16.9571 10.7426L12.1841 5.96967C11.8912 5.67678 11.4164 5.67678 11.1235 5.96967L6.35051 10.7426C6.05761 11.0355 6.05761 11.5104 6.35051 11.8033C6.6434 12.0962 7.11827 12.0962 7.41117 11.8033L10.9038 8.31066V14.75H7.65381C7.23959 14.75 6.90381 15.0858 6.90381 15.5C6.90381 15.9142 7.23959 16.25 7.65381 16.25H11.6538H12.4038V15.5V8.31066L15.8964 11.8033C16.1893 12.0962 16.6642 12.0962 16.9571 11.8033C17.25 11.5104 17.25 11.0355 16.9571 10.7426Z" fill="#183D6D"/>
</svg>
