<svg width="36" height="41" viewBox="0 0 36 41" fill="none" xmlns="http://www.w3.org/2000/svg">
<g id="Group 951">
<path id="Union" fill-rule="evenodd" clip-rule="evenodd" d="M5.48804 40.6904C3.92292 40.6904 2.49839 39.9612 1.50195 38.7966C0.513739 37.6416 0 36.1333 0 34.6137V6.07671C0 4.55711 0.513739 3.04881 1.50195 1.89381C2.49839 0.72921 3.92292 0 5.48804 0H29.9043C31.4694 0 32.894 0.72921 33.8904 1.89381C34.8786 3.04881 35.3924 4.55711 35.3924 6.07671V20.3452C35.3924 21.4498 34.4969 22.3452 33.3924 22.3452C32.2878 22.3452 31.3924 21.4498 31.3924 20.3452V6.07671C31.3924 5.43389 31.1711 4.86835 30.8511 4.49427C30.5392 4.12981 30.1894 4 29.9043 4H28.6667C28.6668 4.01283 28.6669 4.02568 28.6669 4.03855V8.11555C28.6669 10.5212 26.5837 12.154 24.4244 12.154H10.9696C8.81032 12.154 6.72714 10.5212 6.72714 8.11555V4.03855C6.72714 4.02568 6.7272 4.01283 6.72732 4H5.48804C5.20299 4 4.85313 4.12981 4.54129 4.49427C4.22124 4.86834 4 5.43389 4 6.07671V34.6137C4 35.2565 4.22124 35.8221 4.54129 36.1961C4.85313 36.5606 5.20299 36.6904 5.48804 36.6904H17.6962C18.8008 36.6904 19.6962 37.5858 19.6962 38.6904C19.6962 39.795 18.8008 40.6904 17.6962 40.6904H5.48804ZM10.7271 8.07512V4.07898L10.7293 4.07702C10.7631 4.04629 10.8427 4.00005 10.9696 4.00005H24.4244C24.5514 4.00005 24.631 4.04629 24.6648 4.07702L24.6669 4.07898V8.07512L24.6648 8.07707C24.631 8.10781 24.5514 8.15405 24.4244 8.15405H10.9696C10.8427 8.15405 10.7631 8.10781 10.7293 8.07707L10.7271 8.07512Z" fill="#183D6D"/>
<path id="Union_2" fill-rule="evenodd" clip-rule="evenodd" d="M24.5363 25.0354C25.6746 24.7782 26.8655 24.8959 27.9314 25.3708C28.6882 25.708 29.5749 25.3679 29.9121 24.6112C30.2493 23.8545 29.9092 22.9677 29.1524 22.6306C27.4956 21.8923 25.6445 21.7094 23.8752 22.1092C22.1059 22.5089 20.5132 23.4699 19.3347 24.8487C18.1562 26.2276 17.455 27.9505 17.3356 29.7605C17.2163 31.5704 17.6852 33.3705 18.6725 34.8921C19.6597 36.4138 21.1124 37.5756 22.8139 38.2042C24.5154 38.8328 26.3745 38.8946 28.1139 38.3803C29.8534 37.866 31.38 36.8032 32.466 35.3504C33.5521 33.8976 34.1395 32.1326 34.1405 30.3187C34.141 29.4903 33.4698 28.8183 32.6414 28.8179C31.8129 28.8174 31.141 29.4886 31.1405 30.317C31.1398 31.484 30.762 32.6194 30.0632 33.5541C29.3645 34.4888 28.3824 35.1725 27.2633 35.5034C26.1442 35.8343 24.9482 35.7945 23.8536 35.3901C22.7589 34.9857 21.8243 34.2383 21.1892 33.2593C20.554 32.2803 20.2523 31.1223 20.3291 29.9578C20.4059 28.7934 20.857 27.685 21.6152 26.7979C22.3734 25.9108 23.3981 25.2926 24.5363 25.0354ZM34.9996 25.8948C35.6123 25.3373 35.657 24.3886 35.0995 23.7759C34.5419 23.1631 33.5932 23.1184 32.9805 23.676L26.4035 29.6607L25.1372 28.5096C24.5242 27.9523 23.5755 27.9975 23.0183 28.6105C22.461 29.2235 22.5062 30.1722 23.1192 30.7294L25.395 32.7982C25.9674 33.3185 26.8415 33.3183 27.4135 32.7977L34.9996 25.8948Z" fill="#FF9A53"/>
</g>
</svg>
