<svg width="37" height="42" viewBox="0 0 37 42" fill="none" xmlns="http://www.w3.org/2000/svg">
<g id="Group 952">
<path id="Vector" d="M20.9984 10.7621C20.9984 11.156 21.1627 11.5338 21.4549 11.8124C21.7472 12.091 22.1436 12.2475 22.557 12.2475H31.9083L35.0254 15.2183V3.33502C35.0254 2.94106 34.8612 2.56324 34.5689 2.28468C34.2766 2.00611 33.8802 1.84961 33.4668 1.84961H22.557C22.1436 1.84961 21.7472 2.00611 21.4549 2.28468C21.1627 2.56324 20.9984 2.94106 20.9984 3.33502V10.7621Z" stroke="#FF9A53" stroke-width="3" stroke-linecap="round" stroke-linejoin="round"/>
<path id="Union" fill-rule="evenodd" clip-rule="evenodd" d="M23.587 14.1294C22.5244 13.8275 21.4184 14.4441 21.1165 15.5066C20.8146 16.5691 21.4312 17.6752 22.4937 17.9771C23.0254 18.1282 23.5398 18.4839 23.9287 19.0397C24.3194 19.5983 24.5471 20.3113 24.5471 21.0665C24.5471 21.8217 24.3194 22.5347 23.9287 23.0933C23.5398 23.6492 23.0254 24.0048 22.4937 24.1559C21.4312 24.4578 20.8146 25.5639 21.1165 26.6264C21.4184 27.6889 22.5244 28.3055 23.587 28.0036C25.0616 27.5846 26.3253 26.6456 27.2064 25.386C28.0855 24.1292 28.5471 22.6094 28.5471 21.0665C28.5471 19.5236 28.0855 18.0038 27.2064 16.747C26.3253 15.4874 25.0616 14.5484 23.587 14.1294ZM11.0129 21.0665C11.0129 19.4918 12.3808 18.0532 14.273 18.0532C16.1652 18.0532 17.5331 19.4918 17.5331 21.0665C17.5331 22.6412 16.1652 24.0798 14.273 24.0798C12.3808 24.0798 11.0129 22.6412 11.0129 21.0665ZM14.273 14.0532C10.355 14.0532 7.01289 17.1037 7.01289 21.0665C7.01289 25.0293 10.355 28.0798 14.273 28.0798C18.191 28.0798 21.5331 25.0293 21.5331 21.0665C21.5331 17.1037 18.191 14.0532 14.273 14.0532ZM7.69845 29.0931C5.67118 29.0931 3.71805 29.8799 2.271 31.2944C0.822401 32.7104 0 34.6408 0 36.6634V39.4486C0 40.5531 0.89543 41.4486 2 41.4486C3.10457 41.4486 4 40.5531 4 39.4486V36.6634C4 35.7314 4.37834 34.8281 5.06707 34.1548C5.75736 33.4801 6.70306 33.0931 7.69845 33.0931H19.0953C20.0907 33.0931 21.0364 33.4801 21.7267 34.1548C22.4154 34.8281 22.7938 35.7314 22.7938 36.6634V39.4486C22.7938 40.5531 23.6892 41.4486 24.7938 41.4486C25.8984 41.4486 26.7938 40.5531 26.7938 39.4486V36.6634C26.7938 34.6408 25.9714 32.7104 24.5228 31.2944C23.0757 29.8799 21.1226 29.0931 19.0953 29.0931H7.69845ZM26.3426 30.6828C26.5692 29.6018 27.6292 28.9091 28.7103 29.1357C30.5632 29.5241 32.2732 30.4138 33.5361 31.7365C34.8071 33.0674 35.5584 34.7747 35.5601 36.5999L35.5601 36.6017L35.5601 39.4486C35.5601 40.5531 34.6647 41.4486 33.5601 41.4486C32.4555 41.4486 31.5601 40.5531 31.5601 39.4486V36.6029C31.5593 35.9052 31.2762 35.1618 30.6432 34.4989C30.002 33.8274 29.0461 33.293 27.8897 33.0506C26.8086 32.824 26.1159 31.7639 26.3426 30.6828Z" fill="#183D6D"/>
</g>
</svg>
