<svg width="37" height="40" viewBox="0 0 37 40" fill="none" xmlns="http://www.w3.org/2000/svg">
<g id="Group 954">
<path id="Vector" d="M35.2665 9.40359C35.2665 9.74458 35.1311 10.0716 34.8899 10.3127C34.6488 10.5538 34.3218 10.6893 33.9808 10.6893H26.2667L23.6953 13.2607V2.97514C23.6953 2.63416 23.8308 2.30714 24.0719 2.06602C24.313 1.82491 24.64 1.68945 24.981 1.68945H33.9808C34.3218 1.68945 34.6488 1.82491 34.8899 2.06602C35.1311 2.30714 35.2665 2.63416 35.2665 2.97514V9.40359Z" stroke="#FF9A53" stroke-width="3" stroke-linecap="round" stroke-linejoin="round"/>
<path id="Union" fill-rule="evenodd" clip-rule="evenodd" d="M9.78555 17.6001C9.78555 15.5093 11.4804 13.8145 13.5711 13.8145C15.6619 13.8145 17.3568 15.5093 17.3568 17.6001C17.3568 19.6908 15.6619 21.3857 13.5711 21.3857C11.4804 21.3857 9.78555 19.6908 9.78555 17.6001ZM13.5711 9.81445C9.27128 9.81445 5.78555 13.3002 5.78555 17.6001C5.78555 21.8999 9.27128 25.3857 13.5711 25.3857C17.871 25.3857 21.3568 21.8999 21.3568 17.6001C21.3568 13.3002 17.871 9.81445 13.5711 9.81445ZM7.7856 27.1713C5.72073 27.1713 3.74043 27.9916 2.28035 29.4517C0.820266 30.9117 0 32.892 0 34.9569V37.8497C0 38.9543 0.89543 39.8497 2 39.8497C3.10457 39.8497 4 38.9543 4 37.8497V34.9569C4 33.9529 4.39884 32.99 5.10878 32.2801C5.81872 31.5702 6.7816 31.1713 7.7856 31.1713H19.3568C20.3608 31.1713 21.3237 31.5702 22.0336 32.2801C22.7436 32.99 23.1424 33.9529 23.1424 34.9569V37.8497C23.1424 38.9543 24.0378 39.8497 25.1424 39.8497C26.247 39.8497 27.1424 38.9543 27.1424 37.8497V34.9569C27.1424 32.892 26.3221 30.9117 24.8621 29.4517C23.402 27.9916 21.4217 27.1713 19.3568 27.1713H7.7856Z" fill="#183D6D"/>
</g>
</svg>
