<svg width="37" height="42" viewBox="0 0 37 42" fill="none" xmlns="http://www.w3.org/2000/svg">
<g id="Group 953">
<g id="Group 950">
<path id="Vector" d="M25.5724 17.7559C26.9495 18.7107 24.4465 16.9752 25.5724 17.7559ZM25.5724 17.7559C26.6983 18.5366 28.0374 18.9149 29.3877 18.834C30.738 18.753 32.0265 18.2171 33.059 17.307C34.0915 16.3969 34.8122 15.1619 35.1123 13.7882C35.4124 12.4144 35.2758 10.9762 34.723 9.69028C34.1702 8.4044 33.2312 7.34049 32.0475 6.65884C30.8638 5.9772 29.4994 5.71475 28.16 5.91104C26.8207 6.10734 25.5788 6.75174 24.6216 7.74715L21.4053 10.8953" stroke="#FF9A53" stroke-width="2" stroke-linejoin="round"/>
</g>
<path id="Union" fill-rule="evenodd" clip-rule="evenodd" d="M9.54488 18.8416C9.54488 16.6789 11.2078 15.0664 13.0891 15.0664C14.9704 15.0664 16.6333 16.6789 16.6333 18.8416C16.6333 21.0044 14.9704 22.6169 13.0891 22.6169C11.2078 22.6169 9.54488 21.0044 9.54488 18.8416ZM13.0891 11.0664C8.84638 11.0664 5.54488 14.6252 5.54488 18.8416C5.54488 23.0581 8.84638 26.6169 13.0891 26.6169C17.3318 26.6169 20.6333 23.0581 20.6333 18.8416C20.6333 14.6252 17.3318 11.0664 13.0891 11.0664ZM7.54423 28.392C5.51642 28.392 3.58902 29.2319 2.18109 30.6985C0.775824 32.1623 0 34.1309 0 36.1673V39.0549C0 40.1595 0.89543 41.0549 2 41.0549C3.10457 41.0549 4 40.1595 4 39.0549V36.1673C4 35.1403 4.39242 34.1709 5.06664 33.4686C5.7382 32.7691 6.6312 32.392 7.54423 32.392H18.6327C19.5457 32.392 20.4387 32.7691 21.1103 33.4686C21.7845 34.1709 22.1769 35.1403 22.1769 36.1673V39.0549C22.1769 40.1595 23.0723 41.0549 24.1769 41.0549C25.2815 41.0549 26.1769 40.1595 26.1769 39.0549V36.1673C26.1769 34.1309 25.4011 32.1623 23.9958 30.6985C22.5879 29.2319 20.6605 28.392 18.6327 28.392H7.54423Z" fill="#183D6D"/>
</g>
</svg>
