<svg width="111" height="120" viewBox="0 0 111 120" fill="none" xmlns="http://www.w3.org/2000/svg">
<g clip-path="url(#clip0_2034_4340)">
<path d="M0 14.2C0 9.7 0 5.2 0 0.7C0 0.2 0.1 0 0.7 0C4.4 0 8 0 11.7 0C12.3 0 12.4 0.1 12.4 0.7C12.4 9.1 12.4 17.4 12.4 25.8C12.4 27 12.5 28.1 12.8 29.3C13.7 32.3 16 34.2 19.2 34.5C20.5 34.6 21.8 34.6 23.1 34.2C26.1 33.3 28 30.8 28.2 27.5C28.2 26.9 28.2 26.4 28.2 25.8C28.2 17.4 28.2 9.1 28.2 0.7C28.3 0.1 28.4 0 29 0C32.7 0 36.3 0 40 0C40.6 0 40.7 0.2 40.7 0.7C40.7 9.1 40.7 17.4 40.7 25.8C40.7 28.7 40.4 31.6 39.3 34.4C37.4 39.6 33.7 43 28.4 44.6C23 46.3 17.5 46.3 12.2 44.6C5.5 42.5 1.7 37.8 0.4 31C0.1 29.4 0 27.8 0 26.1C0 22.2 0 18.2 0 14.2Z" fill="#444A50"/>
<path d="M20.8994 72.8C25.8994 72.8 30.5994 74 34.6994 77.1C35.9994 78.1 37.0994 79.2 37.9994 80.6C38.2994 81 38.2994 81.2 37.8994 81.5C35.5994 83.3 33.3994 85.1 31.0994 86.9C30.7994 87.2 30.5994 87.2 30.1994 86.9C28.0994 85.1 25.7994 83.9 22.9994 83.4C20.8994 83.1 18.6994 83.1 16.6994 84C15.5994 84.5 14.5994 85.1 14.4994 86.5C14.3994 87.9 15.2994 88.7 16.3994 89.4C18.1994 90.4 20.2994 90.9 22.2994 91.3C25.6994 92.1 29.0994 92.9 32.1994 94.5C33.9994 95.4 35.5994 96.5 36.9994 98C41.5994 103.1 40.7994 111.1 35.1994 115.5C32.5994 117.6 29.5994 118.7 26.3994 119.3C20.6994 120.4 15.0994 120.1 9.6994 118.1C6.6994 116.9 3.8994 115.3 1.8994 112.8C0.599399 111.2 0.599399 111.2 2.1994 110C4.0994 108.5 6.0994 106.9 7.9994 105.4C8.3994 105.1 8.4994 105.1 8.7994 105.4C11.0994 107.6 13.6994 109.2 16.8994 109.7C19.3994 110.1 21.8994 110.1 24.2994 109.2C25.0994 108.9 25.7994 108.5 26.3994 107.9C27.4994 106.7 27.2994 104.9 25.8994 104C24.4994 103.1 22.8994 102.8 21.3994 102.4C18.2994 101.6 15.1994 101 12.2994 99.7C9.3994 98.4 6.7994 96.8 4.8994 94.2C0.699399 88.8 1.5994 81.3 7.0994 77C9.8994 74.7 13.1994 73.6 16.7994 73.1C18.1994 72.9 19.4994 72.8 20.8994 72.8Z" fill="#444A50"/>
<path d="M90.7004 74.1C97.0004 74.1 103.3 74.1 109.6 74.1C110.2 74.1 110.3 74.2 110.3 74.8C110.3 77.9 110.3 81 110.3 84.1C110.3 84.6 110.2 84.7 109.7 84.7C105.7 84.7 101.6 84.7 97.6004 84.7C97.0004 84.7 96.9004 84.8 96.9004 85.4C96.9004 96.2 96.9004 107 96.9004 117.7C96.9004 118.4 96.7004 118.5 96.1004 118.5C92.5004 118.5 88.8004 118.5 85.2004 118.5C84.5004 118.5 84.5004 118.3 84.5004 117.7C84.5004 106.9 84.5004 96.2 84.5004 85.4C84.5004 84.8 84.4004 84.6 83.7004 84.6C79.7004 84.6 75.7004 84.6 71.6004 84.6C71.1004 84.6 70.9004 84.5 70.9004 84C70.9004 80.9 70.9004 77.8 70.9004 74.7C70.9004 74.2 71.1004 74 71.6004 74C78.0004 74.1 84.3004 74.1 90.7004 74.1Z" fill="#444A50"/>
<path d="M90.6004 30.4001C87.9004 30.4001 85.2004 30.4001 82.5004 30.4001C82.1004 30.4001 81.9004 30.3001 81.9004 29.8001C81.9004 24.4001 81.9004 19.1001 81.9004 13.7001C81.9004 13.2001 82.0004 13.1001 82.5004 13.1001C88.0004 13.1001 93.5004 13.1001 98.9004 13.1001C99.3004 13.1001 99.5004 13.2001 99.5004 13.6001C99.5004 19.0001 99.5004 24.4001 99.5004 29.8001C99.5004 30.3001 99.3004 30.4001 98.9004 30.4001C96.1004 30.4001 93.3004 30.4001 90.6004 30.4001Z" fill="#444A50"/>
</g>
<defs>
<clipPath id="clip0_2034_4340">
<rect width="110.3" height="119.9" fill="white"/>
</clipPath>
</defs>
</svg>
